M48
; DRILL file {KiCad 7.0.1-0} date 2024 February 17, Saturday 19:14:00
; FORMAT={-:-/ absolute / metric / decimal}
; #@! TF.CreationDate,2024-02-17T19:14:00+01:00
; #@! TF.GenerationSoftware,Kicad,Pcbnew,7.0.1-0
; #@! TF.FileFunction,Plated,1,2,PTH
FMAT,2
METRIC
; #@! TA.AperFunction,Plated,PTH,ViaDrill
T1C0.400
; #@! TA.AperFunction,Plated,PTH,ViaDrill
T2C0.500
; #@! TA.AperFunction,Plated,PTH,ComponentDrill
T3C1.000
%
G90
G05
T1
X50.866Y-104.303
X51.097Y-94.854
X53.744Y-93.054
X55.584Y-106.085
X57.961Y-113.478
X59.954Y-98.895
X60.529Y-113.478
X61.172Y-96.582
X63.307Y-100.335
X63.542Y-118.542
X63.786Y-104.76
X64.353Y-100.332
X65.615Y-106.588
X67.501Y-104.187
X67.703Y-95.792
X72.084Y-95.008
X73.889Y-85.506
X74.714Y-111.229
X80.677Y-86.896
X82.296Y-98.806
X82.55Y-97.282
X84.002Y-112.574
X84.198Y-97.023
X87.839Y-108.435
X88.743Y-109.345
X98.591Y-100.917
X99.373Y-104.119
X104.14Y-97.055
X104.902Y-90.17
X110.473Y-116.369
X117.29Y-91.569
X121.158Y-104.26
X121.307Y-90.571
X121.571Y-119.732
X122.544Y-100.53
X124.593Y-93.726
X127.461Y-89.304
X127.543Y-95.626
X127.833Y-116.072
X129.861Y-107.61
T2
X53.085Y-87.925
X60.294Y-91.583
X60.452Y-109.235
X61.488Y-98.934
X65.436Y-91.583
X78.976Y-107.021
X119.686Y-110.403
X123.121Y-97.188
T3
X79.502Y-82.55
X79.725Y-116.581
X79.725Y-119.121
X82.265Y-116.581
X82.265Y-119.121
X84.805Y-116.581
X84.805Y-119.121
X87.345Y-116.581
X87.345Y-119.121
X89.885Y-116.581
X89.885Y-119.121
X92.425Y-116.581
X92.425Y-119.121
X94.965Y-116.581
X94.965Y-119.121
X97.505Y-116.581
X97.505Y-119.121
T0
M30
