G04 #@! TF.GenerationSoftware,KiCad,Pcbnew,7.0.1-0*
G04 #@! TF.CreationDate,2024-02-17T19:13:57+01:00*
G04 #@! TF.ProjectId,parallel_trail,70617261-6c6c-4656-9c5f-747261696c2e,rev?*
G04 #@! TF.SameCoordinates,Original*
G04 #@! TF.FileFunction,Copper,L2,Bot*
G04 #@! TF.FilePolarity,Positive*
%FSLAX46Y46*%
G04 Gerber Fmt 4.6, Leading zero omitted, Abs format (unit mm)*
G04 Created by KiCad (PCBNEW 7.0.1-0) date 2024-02-17 19:13:57*
%MOMM*%
%LPD*%
G01*
G04 APERTURE LIST*
G04 #@! TA.AperFunction,ComponentPad*
%ADD10O,1.700000X1.700000*%
G04 #@! TD*
G04 #@! TA.AperFunction,ComponentPad*
%ADD11R,1.700000X1.700000*%
G04 #@! TD*
G04 #@! TA.AperFunction,ViaPad*
%ADD12C,0.800000*%
G04 #@! TD*
G04 #@! TA.AperFunction,ViaPad*
%ADD13C,1.000000*%
G04 #@! TD*
G04 #@! TA.AperFunction,Conductor*
%ADD14C,0.250000*%
G04 #@! TD*
G04 #@! TA.AperFunction,Conductor*
%ADD15C,0.500000*%
G04 #@! TD*
G04 APERTURE END LIST*
D10*
X97504800Y-116581200D03*
X97504800Y-119121200D03*
X94964800Y-116581200D03*
X94964800Y-119121200D03*
X92424800Y-116581200D03*
X92424800Y-119121200D03*
X89884800Y-116581200D03*
X89884800Y-119121200D03*
X87344800Y-116581200D03*
X87344800Y-119121200D03*
X84804800Y-116581200D03*
X84804800Y-119121200D03*
X82264800Y-116581200D03*
X82264800Y-119121200D03*
X79724800Y-116581200D03*
D11*
X79724800Y-119121200D03*
X79502000Y-82550000D03*
D12*
X65614700Y-106588200D03*
X63786300Y-104759800D03*
X57961300Y-113478200D03*
X60529000Y-113478200D03*
X63541600Y-118542300D03*
X55583500Y-106084800D03*
X72084000Y-95008400D03*
X51097200Y-94853700D03*
X50866000Y-104303400D03*
X67702700Y-95791600D03*
X67500500Y-104187400D03*
X121571400Y-119731800D03*
X74713800Y-111228600D03*
X53743800Y-93054500D03*
X121307200Y-90571300D03*
X122544200Y-100529800D03*
X117290100Y-91569300D03*
X129861400Y-107609800D03*
X124592700Y-93726000D03*
X127543200Y-95626200D03*
X127460800Y-89304500D03*
X110473300Y-116369500D03*
X84197600Y-97022600D03*
X87839400Y-108435400D03*
X104140000Y-97055300D03*
X88743500Y-109345200D03*
X121158000Y-104259700D03*
X84001700Y-112574000D03*
X127833200Y-116071600D03*
D13*
X123121100Y-97188500D03*
X53084900Y-87925500D03*
X60452000Y-109234600D03*
X78975700Y-107020900D03*
D12*
X98590800Y-100917400D03*
X99372700Y-104119200D03*
X80677300Y-86896500D03*
X63307200Y-100335200D03*
X59954300Y-98894700D03*
X61172200Y-96581700D03*
X64353200Y-100332400D03*
D13*
X65436200Y-91582800D03*
X61488400Y-98934500D03*
X60293700Y-91582800D03*
X119685600Y-110403500D03*
D12*
X82550000Y-97282000D03*
X82296000Y-98806000D03*
X73888900Y-85506300D03*
X104902000Y-90170000D03*
D14*
X65614700Y-106588200D02*
X63786300Y-104759800D01*
X57961300Y-113478200D02*
X60529000Y-113478200D01*
X85227900Y-122415000D02*
X67414300Y-122415000D01*
X67414300Y-122415000D02*
X63541600Y-118542300D01*
X87344800Y-119121200D02*
X87344800Y-120298100D01*
X87344800Y-120298100D02*
X85227900Y-122415000D01*
X71164700Y-121666000D02*
X55583500Y-106084800D01*
X82260000Y-121666000D02*
X71164700Y-121666000D01*
X84804800Y-119121200D02*
X82260000Y-121666000D01*
X63943600Y-86868000D02*
X72084000Y-95008400D01*
X51097200Y-88448500D02*
X52677700Y-86868000D01*
X52677700Y-86868000D02*
X63943600Y-86868000D01*
X51097200Y-104072200D02*
X51097200Y-94853700D01*
X51097200Y-94853700D02*
X51097200Y-88448500D01*
X50866000Y-104303400D02*
X51097200Y-104072200D01*
X67702700Y-103985200D02*
X67500500Y-104187400D01*
X67702700Y-95791600D02*
X67702700Y-103985200D01*
X93726000Y-118364000D02*
X93726000Y-120142000D01*
X93726000Y-120142000D02*
X94488000Y-120904000D01*
X120399200Y-120904000D02*
X121571400Y-119731800D01*
X92424800Y-116581200D02*
X92424800Y-117062800D01*
X92424800Y-117062800D02*
X93726000Y-118364000D01*
X94742000Y-120904000D02*
X120399200Y-120904000D01*
X94488000Y-120904000D02*
X94742000Y-120904000D01*
X53743800Y-93803800D02*
X60538600Y-100598600D01*
X60653500Y-100598600D02*
X71283500Y-111228600D01*
X71283500Y-111228600D02*
X74713800Y-111228600D01*
X60538600Y-100598600D02*
X60653500Y-100598600D01*
X53743800Y-93054500D02*
X53743800Y-93803800D01*
X121307200Y-99292800D02*
X121307200Y-90571300D01*
X122544200Y-100529800D02*
X121307200Y-99292800D01*
X117290100Y-99226700D02*
X117290100Y-91569300D01*
X120689200Y-121666000D02*
X122345700Y-120009500D01*
X89884800Y-119121200D02*
X89884800Y-119348800D01*
X122345700Y-104282300D02*
X117290100Y-99226700D01*
X122345700Y-120009500D02*
X122345700Y-104282300D01*
X89884800Y-119348800D02*
X92202000Y-121666000D01*
X92202000Y-121666000D02*
X120689200Y-121666000D01*
X129861400Y-107609800D02*
X129861400Y-98994700D01*
X129861400Y-98994700D02*
X124592700Y-93726000D01*
X127543200Y-95626200D02*
X127460800Y-95543800D01*
X127460800Y-95543800D02*
X127460800Y-89304500D01*
X93694800Y-116995600D02*
X94466100Y-117766900D01*
X84197600Y-97022600D02*
X84197600Y-105839500D01*
X93694800Y-115336700D02*
X93694800Y-116995600D01*
X84197600Y-105839500D02*
X93694800Y-115336700D01*
X109075900Y-117766900D02*
X110473300Y-116369500D01*
X94466100Y-117766900D02*
X109075900Y-117766900D01*
X99219500Y-97055300D02*
X104140000Y-97055300D01*
X87839400Y-108435400D02*
X99219500Y-97055300D01*
X121158000Y-104519000D02*
X120712500Y-104964500D01*
X120712500Y-104964500D02*
X120712500Y-110891800D01*
X120161400Y-111442900D02*
X110285700Y-111442900D01*
X110285700Y-111442900D02*
X99019000Y-100176200D01*
X120712500Y-110891800D02*
X120161400Y-111442900D01*
X121158000Y-104259700D02*
X121158000Y-104519000D01*
X99019000Y-100176200D02*
X97912500Y-100176200D01*
X97912500Y-100176200D02*
X88743500Y-109345200D01*
X88707900Y-116277100D02*
X88707900Y-119655900D01*
X84001700Y-112574000D02*
X85004800Y-112574000D01*
X91467000Y-122415000D02*
X121489800Y-122415000D01*
X121489800Y-122415000D02*
X127833200Y-116071600D01*
X88707900Y-119655900D02*
X91467000Y-122415000D01*
X85004800Y-112574000D02*
X88707900Y-116277100D01*
D15*
X66147600Y-123190000D02*
X122211900Y-123190000D01*
X122211900Y-123190000D02*
X128901700Y-116500200D01*
X79724800Y-119121200D02*
X78222900Y-119121200D01*
X55559800Y-104620900D02*
X54488800Y-105691900D01*
X52687100Y-101748200D02*
X52687100Y-88323300D01*
X63521700Y-112304300D02*
X60452000Y-109234600D01*
X78975700Y-108661600D02*
X78975700Y-107020900D01*
X128803500Y-115400300D02*
X128803500Y-102870900D01*
X52687100Y-88323300D02*
X53084900Y-87925500D01*
X128901700Y-116500200D02*
X128901700Y-115498500D01*
X60452000Y-109234600D02*
X55838300Y-104620900D01*
X55559800Y-104620900D02*
X52687100Y-101748200D01*
X54488800Y-111531200D02*
X66147600Y-123190000D01*
X128803500Y-102870900D02*
X123121100Y-97188500D01*
X55838300Y-104620900D02*
X55559800Y-104620900D01*
X75333000Y-112304300D02*
X63521700Y-112304300D01*
X75333000Y-112304300D02*
X75333000Y-116231300D01*
X75333000Y-112304300D02*
X78975700Y-108661600D01*
X75333000Y-116231300D02*
X78222900Y-119121200D01*
X54488800Y-105691900D02*
X54488800Y-111531200D01*
X128901700Y-115498500D02*
X128803500Y-115400300D01*
D14*
X94964800Y-115404300D02*
X98590800Y-111778300D01*
X94964800Y-116581200D02*
X94964800Y-115404300D01*
X98590800Y-111778300D02*
X98590800Y-100917400D01*
X97504800Y-115404300D02*
X99372700Y-113536400D01*
X97504800Y-116581200D02*
X97504800Y-115404300D01*
X99372700Y-113536400D02*
X99372700Y-104119200D01*
X59954300Y-98894700D02*
X59265900Y-98206300D01*
X59265900Y-98206300D02*
X59265900Y-91134400D01*
X61394800Y-100335200D02*
X59954300Y-98894700D01*
X63307200Y-100335200D02*
X61394800Y-100335200D01*
X59864200Y-90536100D02*
X66304200Y-90536100D01*
X66304200Y-90536100D02*
X71536500Y-95768400D01*
X59265900Y-91134400D02*
X59864200Y-90536100D01*
X72376900Y-95768400D02*
X80677300Y-87468000D01*
X80677300Y-87468000D02*
X80677300Y-86896500D01*
X71536500Y-95768400D02*
X72376900Y-95768400D01*
X61172200Y-96581700D02*
X61172200Y-97151400D01*
X61172200Y-97151400D02*
X64353200Y-100332400D01*
D15*
X79724800Y-115079300D02*
X80147600Y-114656500D01*
X80147600Y-97447000D02*
X81652300Y-95942300D01*
X79724800Y-116581200D02*
X79724800Y-115079300D01*
X105224400Y-95942300D02*
X119685600Y-110403500D01*
X71300400Y-97447000D02*
X65436200Y-91582800D01*
X60112200Y-97558300D02*
X61488400Y-98934500D01*
X80147600Y-114656500D02*
X80147600Y-97447000D01*
X60112200Y-91764300D02*
X60112200Y-97558300D01*
X81652300Y-95942300D02*
X105224400Y-95942300D01*
X60293700Y-91582800D02*
X65436200Y-91582800D01*
X60293700Y-91582800D02*
X60112200Y-91764300D01*
X80147600Y-97447000D02*
X71300400Y-97447000D01*
D14*
X83093600Y-97825600D02*
X82550000Y-97282000D01*
X83093600Y-113693100D02*
X83093600Y-97825600D01*
X84804800Y-116581200D02*
X84804800Y-115404300D01*
X84804800Y-115404300D02*
X83093600Y-113693100D01*
X82038800Y-115178300D02*
X82038800Y-103635200D01*
X82038800Y-103635200D02*
X82296000Y-103378000D01*
X82264800Y-115404300D02*
X82038800Y-115178300D01*
X82264800Y-116581200D02*
X82264800Y-115404300D01*
X82296000Y-103378000D02*
X82296000Y-98806000D01*
X104902000Y-87603200D02*
X104902000Y-90170000D01*
X73888900Y-85506300D02*
X102805100Y-85506300D01*
X102805100Y-85506300D02*
X104902000Y-87603200D01*
M02*
