%TF.GenerationSoftware,KiCad,Pcbnew,7.0.1-0*%
%TF.CreationDate,2024-02-17T19:14:01+01:00*%
%TF.ProjectId,parallel_trail,70617261-6c6c-4656-9c5f-747261696c2e,rev?*%
%TF.SameCoordinates,Original*%
%TF.FileFunction,Drillmap*%
%TF.FilePolarity,Positive*%
%FSLAX45Y45*%
G04 Gerber Fmt 4.5, Leading zero omitted, Abs format (unit mm)*
G04 Created by KiCad (PCBNEW 7.0.1-0) date 2024-02-17 19:14:01*
%MOMM*%
%LPD*%
G01*
G04 APERTURE LIST*
%ADD10C,0.200000*%
%ADD11C,0.040000*%
%ADD12C,0.050000*%
%ADD13C,0.100000*%
G04 APERTURE END LIST*
D10*
X4669400Y-7946000D02*
X13669400Y-7946000D01*
X13669400Y-12446000D01*
X4669400Y-12446000D01*
X4669400Y-7946000D01*
D11*
X5066600Y-10410340D02*
X5106600Y-10450340D01*
X5106600Y-10410340D02*
X5066600Y-10450340D01*
X5089720Y-9465370D02*
X5129720Y-9505370D01*
X5129720Y-9465370D02*
X5089720Y-9505370D01*
X5354380Y-9285450D02*
X5394380Y-9325450D01*
X5394380Y-9285450D02*
X5354380Y-9325450D01*
X5538350Y-10588480D02*
X5578350Y-10628480D01*
X5578350Y-10588480D02*
X5538350Y-10628480D01*
X5776130Y-11327820D02*
X5816130Y-11367820D01*
X5816130Y-11327820D02*
X5776130Y-11367820D01*
X5975430Y-9869470D02*
X6015430Y-9909470D01*
X6015430Y-9869470D02*
X5975430Y-9909470D01*
X6032900Y-11327820D02*
X6072900Y-11367820D01*
X6072900Y-11327820D02*
X6032900Y-11367820D01*
X6097220Y-9638170D02*
X6137220Y-9678170D01*
X6137220Y-9638170D02*
X6097220Y-9678170D01*
X6310720Y-10013520D02*
X6350720Y-10053520D01*
X6350720Y-10013520D02*
X6310720Y-10053520D01*
X6334160Y-11834230D02*
X6374160Y-11874230D01*
X6374160Y-11834230D02*
X6334160Y-11874230D01*
X6358630Y-10455980D02*
X6398630Y-10495980D01*
X6398630Y-10455980D02*
X6358630Y-10495980D01*
X6415320Y-10013240D02*
X6455320Y-10053240D01*
X6455320Y-10013240D02*
X6415320Y-10053240D01*
X6541470Y-10638820D02*
X6581470Y-10678820D01*
X6581470Y-10638820D02*
X6541470Y-10678820D01*
X6730050Y-10398740D02*
X6770050Y-10438740D01*
X6770050Y-10398740D02*
X6730050Y-10438740D01*
X6750270Y-9559160D02*
X6790270Y-9599160D01*
X6790270Y-9559160D02*
X6750270Y-9599160D01*
X7188400Y-9480840D02*
X7228400Y-9520840D01*
X7228400Y-9480840D02*
X7188400Y-9520840D01*
X7368890Y-8530630D02*
X7408890Y-8570630D01*
X7408890Y-8530630D02*
X7368890Y-8570630D01*
X7451380Y-11102860D02*
X7491380Y-11142860D01*
X7491380Y-11102860D02*
X7451380Y-11142860D01*
X8047730Y-8669650D02*
X8087730Y-8709650D01*
X8087730Y-8669650D02*
X8047730Y-8709650D01*
X8209600Y-9860600D02*
X8249600Y-9900600D01*
X8249600Y-9860600D02*
X8209600Y-9900600D01*
X8235000Y-9708200D02*
X8275000Y-9748200D01*
X8275000Y-9708200D02*
X8235000Y-9748200D01*
X8380170Y-11237400D02*
X8420170Y-11277400D01*
X8420170Y-11237400D02*
X8380170Y-11277400D01*
X8399760Y-9682260D02*
X8439760Y-9722260D01*
X8439760Y-9682260D02*
X8399760Y-9722260D01*
X8763940Y-10823540D02*
X8803940Y-10863540D01*
X8803940Y-10823540D02*
X8763940Y-10863540D01*
X8854350Y-10914520D02*
X8894350Y-10954520D01*
X8894350Y-10914520D02*
X8854350Y-10954520D01*
X9839080Y-10071740D02*
X9879080Y-10111740D01*
X9879080Y-10071740D02*
X9839080Y-10111740D01*
X9917270Y-10391920D02*
X9957270Y-10431920D01*
X9957270Y-10391920D02*
X9917270Y-10431920D01*
X10394000Y-9685530D02*
X10434000Y-9725530D01*
X10434000Y-9685530D02*
X10394000Y-9725530D01*
X10470200Y-8997000D02*
X10510200Y-9037000D01*
X10510200Y-8997000D02*
X10470200Y-9037000D01*
X11027330Y-11616950D02*
X11067330Y-11656950D01*
X11067330Y-11616950D02*
X11027330Y-11656950D01*
X11709010Y-9136930D02*
X11749010Y-9176930D01*
X11749010Y-9136930D02*
X11709010Y-9176930D01*
X12095800Y-10405970D02*
X12135800Y-10445970D01*
X12135800Y-10405970D02*
X12095800Y-10445970D01*
X12110720Y-9037130D02*
X12150720Y-9077130D01*
X12150720Y-9037130D02*
X12110720Y-9077130D01*
X12137140Y-11953180D02*
X12177140Y-11993180D01*
X12177140Y-11953180D02*
X12137140Y-11993180D01*
X12234420Y-10032980D02*
X12274420Y-10072980D01*
X12274420Y-10032980D02*
X12234420Y-10072980D01*
X12439270Y-9352600D02*
X12479270Y-9392600D01*
X12479270Y-9352600D02*
X12439270Y-9392600D01*
X12726080Y-8910450D02*
X12766080Y-8950450D01*
X12766080Y-8910450D02*
X12726080Y-8950450D01*
X12734320Y-9542620D02*
X12774320Y-9582620D01*
X12774320Y-9542620D02*
X12734320Y-9582620D01*
X12763320Y-11587160D02*
X12803320Y-11627160D01*
X12803320Y-11587160D02*
X12763320Y-11627160D01*
X12966140Y-10740980D02*
X13006140Y-10780980D01*
X13006140Y-10740980D02*
X12966140Y-10780980D01*
D12*
X5333490Y-8792550D02*
G75*
G03*
X5333490Y-8792550I-25000J0D01*
G01*
X6054370Y-9158280D02*
G75*
G03*
X6054370Y-9158280I-25000J0D01*
G01*
X6070200Y-10923460D02*
G75*
G03*
X6070200Y-10923460I-25000J0D01*
G01*
X6173840Y-9893450D02*
G75*
G03*
X6173840Y-9893450I-25000J0D01*
G01*
X6568620Y-9158280D02*
G75*
G03*
X6568620Y-9158280I-25000J0D01*
G01*
X7922570Y-10702090D02*
G75*
G03*
X7922570Y-10702090I-25000J0D01*
G01*
X11993560Y-11040350D02*
G75*
G03*
X11993560Y-11040350I-25000J0D01*
G01*
X12337110Y-9718850D02*
G75*
G03*
X12337110Y-9718850I-25000J0D01*
G01*
D13*
X7950200Y-8205000D02*
X7950200Y-8305000D01*
X7900200Y-8255000D02*
X8000200Y-8255000D01*
X7972480Y-11608120D02*
X7972480Y-11708120D01*
X7922480Y-11658120D02*
X8022480Y-11658120D01*
X7972480Y-11862120D02*
X7972480Y-11962120D01*
X7922480Y-11912120D02*
X8022480Y-11912120D01*
X8226480Y-11608120D02*
X8226480Y-11708120D01*
X8176480Y-11658120D02*
X8276480Y-11658120D01*
X8226480Y-11862120D02*
X8226480Y-11962120D01*
X8176480Y-11912120D02*
X8276480Y-11912120D01*
X8480480Y-11608120D02*
X8480480Y-11708120D01*
X8430480Y-11658120D02*
X8530480Y-11658120D01*
X8480480Y-11862120D02*
X8480480Y-11962120D01*
X8430480Y-11912120D02*
X8530480Y-11912120D01*
X8734480Y-11608120D02*
X8734480Y-11708120D01*
X8684480Y-11658120D02*
X8784480Y-11658120D01*
X8734480Y-11862120D02*
X8734480Y-11962120D01*
X8684480Y-11912120D02*
X8784480Y-11912120D01*
X8988480Y-11608120D02*
X8988480Y-11708120D01*
X8938480Y-11658120D02*
X9038480Y-11658120D01*
X8988480Y-11862120D02*
X8988480Y-11962120D01*
X8938480Y-11912120D02*
X9038480Y-11912120D01*
X9242480Y-11608120D02*
X9242480Y-11708120D01*
X9192480Y-11658120D02*
X9292480Y-11658120D01*
X9242480Y-11862120D02*
X9242480Y-11962120D01*
X9192480Y-11912120D02*
X9292480Y-11912120D01*
X9496480Y-11608120D02*
X9496480Y-11708120D01*
X9446480Y-11658120D02*
X9546480Y-11658120D01*
X9496480Y-11862120D02*
X9496480Y-11962120D01*
X9446480Y-11912120D02*
X9546480Y-11912120D01*
X9750480Y-11608120D02*
X9750480Y-11708120D01*
X9700480Y-11658120D02*
X9800480Y-11658120D01*
X9750480Y-11862120D02*
X9750480Y-11962120D01*
X9700480Y-11912120D02*
X9800480Y-11912120D01*
D10*
X4907019Y-12768524D02*
X4907019Y-12568524D01*
X4907019Y-12568524D02*
X4954638Y-12568524D01*
X4954638Y-12568524D02*
X4983210Y-12578048D01*
X4983210Y-12578048D02*
X5002257Y-12597095D01*
X5002257Y-12597095D02*
X5011781Y-12616143D01*
X5011781Y-12616143D02*
X5021305Y-12654238D01*
X5021305Y-12654238D02*
X5021305Y-12682809D01*
X5021305Y-12682809D02*
X5011781Y-12720905D01*
X5011781Y-12720905D02*
X5002257Y-12739952D01*
X5002257Y-12739952D02*
X4983210Y-12759000D01*
X4983210Y-12759000D02*
X4954638Y-12768524D01*
X4954638Y-12768524D02*
X4907019Y-12768524D01*
X5107019Y-12768524D02*
X5107019Y-12635190D01*
X5107019Y-12673286D02*
X5116543Y-12654238D01*
X5116543Y-12654238D02*
X5126067Y-12644714D01*
X5126067Y-12644714D02*
X5145114Y-12635190D01*
X5145114Y-12635190D02*
X5164162Y-12635190D01*
X5230829Y-12768524D02*
X5230829Y-12635190D01*
X5230829Y-12568524D02*
X5221305Y-12578048D01*
X5221305Y-12578048D02*
X5230829Y-12587571D01*
X5230829Y-12587571D02*
X5240352Y-12578048D01*
X5240352Y-12578048D02*
X5230829Y-12568524D01*
X5230829Y-12568524D02*
X5230829Y-12587571D01*
X5354638Y-12768524D02*
X5335590Y-12759000D01*
X5335590Y-12759000D02*
X5326067Y-12739952D01*
X5326067Y-12739952D02*
X5326067Y-12568524D01*
X5459400Y-12768524D02*
X5440352Y-12759000D01*
X5440352Y-12759000D02*
X5430829Y-12739952D01*
X5430829Y-12739952D02*
X5430829Y-12568524D01*
X5687971Y-12768524D02*
X5687971Y-12568524D01*
X5687971Y-12568524D02*
X5754638Y-12711381D01*
X5754638Y-12711381D02*
X5821305Y-12568524D01*
X5821305Y-12568524D02*
X5821305Y-12768524D01*
X6002257Y-12768524D02*
X6002257Y-12663762D01*
X6002257Y-12663762D02*
X5992733Y-12644714D01*
X5992733Y-12644714D02*
X5973686Y-12635190D01*
X5973686Y-12635190D02*
X5935590Y-12635190D01*
X5935590Y-12635190D02*
X5916543Y-12644714D01*
X6002257Y-12759000D02*
X5983209Y-12768524D01*
X5983209Y-12768524D02*
X5935590Y-12768524D01*
X5935590Y-12768524D02*
X5916543Y-12759000D01*
X5916543Y-12759000D02*
X5907019Y-12739952D01*
X5907019Y-12739952D02*
X5907019Y-12720905D01*
X5907019Y-12720905D02*
X5916543Y-12701857D01*
X5916543Y-12701857D02*
X5935590Y-12692333D01*
X5935590Y-12692333D02*
X5983209Y-12692333D01*
X5983209Y-12692333D02*
X6002257Y-12682809D01*
X6097495Y-12635190D02*
X6097495Y-12835190D01*
X6097495Y-12644714D02*
X6116543Y-12635190D01*
X6116543Y-12635190D02*
X6154638Y-12635190D01*
X6154638Y-12635190D02*
X6173686Y-12644714D01*
X6173686Y-12644714D02*
X6183209Y-12654238D01*
X6183209Y-12654238D02*
X6192733Y-12673286D01*
X6192733Y-12673286D02*
X6192733Y-12730428D01*
X6192733Y-12730428D02*
X6183209Y-12749476D01*
X6183209Y-12749476D02*
X6173686Y-12759000D01*
X6173686Y-12759000D02*
X6154638Y-12768524D01*
X6154638Y-12768524D02*
X6116543Y-12768524D01*
X6116543Y-12768524D02*
X6097495Y-12759000D01*
X6278448Y-12749476D02*
X6287971Y-12759000D01*
X6287971Y-12759000D02*
X6278448Y-12768524D01*
X6278448Y-12768524D02*
X6268924Y-12759000D01*
X6268924Y-12759000D02*
X6278448Y-12749476D01*
X6278448Y-12749476D02*
X6278448Y-12768524D01*
X6278448Y-12644714D02*
X6287971Y-12654238D01*
X6287971Y-12654238D02*
X6278448Y-12663762D01*
X6278448Y-12663762D02*
X6268924Y-12654238D01*
X6268924Y-12654238D02*
X6278448Y-12644714D01*
X6278448Y-12644714D02*
X6278448Y-12663762D01*
D11*
X4619400Y-13076000D02*
X4659400Y-13116000D01*
X4659400Y-13076000D02*
X4619400Y-13116000D01*
D10*
X4945114Y-12988524D02*
X4964162Y-12988524D01*
X4964162Y-12988524D02*
X4983210Y-12998048D01*
X4983210Y-12998048D02*
X4992733Y-13007571D01*
X4992733Y-13007571D02*
X5002257Y-13026619D01*
X5002257Y-13026619D02*
X5011781Y-13064714D01*
X5011781Y-13064714D02*
X5011781Y-13112333D01*
X5011781Y-13112333D02*
X5002257Y-13150428D01*
X5002257Y-13150428D02*
X4992733Y-13169476D01*
X4992733Y-13169476D02*
X4983210Y-13179000D01*
X4983210Y-13179000D02*
X4964162Y-13188524D01*
X4964162Y-13188524D02*
X4945114Y-13188524D01*
X4945114Y-13188524D02*
X4926067Y-13179000D01*
X4926067Y-13179000D02*
X4916543Y-13169476D01*
X4916543Y-13169476D02*
X4907019Y-13150428D01*
X4907019Y-13150428D02*
X4897495Y-13112333D01*
X4897495Y-13112333D02*
X4897495Y-13064714D01*
X4897495Y-13064714D02*
X4907019Y-13026619D01*
X4907019Y-13026619D02*
X4916543Y-13007571D01*
X4916543Y-13007571D02*
X4926067Y-12998048D01*
X4926067Y-12998048D02*
X4945114Y-12988524D01*
X5097495Y-13169476D02*
X5107019Y-13179000D01*
X5107019Y-13179000D02*
X5097495Y-13188524D01*
X5097495Y-13188524D02*
X5087971Y-13179000D01*
X5087971Y-13179000D02*
X5097495Y-13169476D01*
X5097495Y-13169476D02*
X5097495Y-13188524D01*
X5278448Y-13055190D02*
X5278448Y-13188524D01*
X5230829Y-12979000D02*
X5183210Y-13121857D01*
X5183210Y-13121857D02*
X5307019Y-13121857D01*
X5421305Y-12988524D02*
X5440352Y-12988524D01*
X5440352Y-12988524D02*
X5459400Y-12998048D01*
X5459400Y-12998048D02*
X5468924Y-13007571D01*
X5468924Y-13007571D02*
X5478448Y-13026619D01*
X5478448Y-13026619D02*
X5487971Y-13064714D01*
X5487971Y-13064714D02*
X5487971Y-13112333D01*
X5487971Y-13112333D02*
X5478448Y-13150428D01*
X5478448Y-13150428D02*
X5468924Y-13169476D01*
X5468924Y-13169476D02*
X5459400Y-13179000D01*
X5459400Y-13179000D02*
X5440352Y-13188524D01*
X5440352Y-13188524D02*
X5421305Y-13188524D01*
X5421305Y-13188524D02*
X5402257Y-13179000D01*
X5402257Y-13179000D02*
X5392733Y-13169476D01*
X5392733Y-13169476D02*
X5383210Y-13150428D01*
X5383210Y-13150428D02*
X5373686Y-13112333D01*
X5373686Y-13112333D02*
X5373686Y-13064714D01*
X5373686Y-13064714D02*
X5383210Y-13026619D01*
X5383210Y-13026619D02*
X5392733Y-13007571D01*
X5392733Y-13007571D02*
X5402257Y-12998048D01*
X5402257Y-12998048D02*
X5421305Y-12988524D01*
X5611781Y-12988524D02*
X5630829Y-12988524D01*
X5630829Y-12988524D02*
X5649876Y-12998048D01*
X5649876Y-12998048D02*
X5659400Y-13007571D01*
X5659400Y-13007571D02*
X5668924Y-13026619D01*
X5668924Y-13026619D02*
X5678448Y-13064714D01*
X5678448Y-13064714D02*
X5678448Y-13112333D01*
X5678448Y-13112333D02*
X5668924Y-13150428D01*
X5668924Y-13150428D02*
X5659400Y-13169476D01*
X5659400Y-13169476D02*
X5649876Y-13179000D01*
X5649876Y-13179000D02*
X5630829Y-13188524D01*
X5630829Y-13188524D02*
X5611781Y-13188524D01*
X5611781Y-13188524D02*
X5592733Y-13179000D01*
X5592733Y-13179000D02*
X5583210Y-13169476D01*
X5583210Y-13169476D02*
X5573686Y-13150428D01*
X5573686Y-13150428D02*
X5564162Y-13112333D01*
X5564162Y-13112333D02*
X5564162Y-13064714D01*
X5564162Y-13064714D02*
X5573686Y-13026619D01*
X5573686Y-13026619D02*
X5583210Y-13007571D01*
X5583210Y-13007571D02*
X5592733Y-12998048D01*
X5592733Y-12998048D02*
X5611781Y-12988524D01*
X5764162Y-13188524D02*
X5764162Y-13055190D01*
X5764162Y-13074238D02*
X5773686Y-13064714D01*
X5773686Y-13064714D02*
X5792733Y-13055190D01*
X5792733Y-13055190D02*
X5821305Y-13055190D01*
X5821305Y-13055190D02*
X5840352Y-13064714D01*
X5840352Y-13064714D02*
X5849876Y-13083762D01*
X5849876Y-13083762D02*
X5849876Y-13188524D01*
X5849876Y-13083762D02*
X5859400Y-13064714D01*
X5859400Y-13064714D02*
X5878448Y-13055190D01*
X5878448Y-13055190D02*
X5907019Y-13055190D01*
X5907019Y-13055190D02*
X5926067Y-13064714D01*
X5926067Y-13064714D02*
X5935590Y-13083762D01*
X5935590Y-13083762D02*
X5935590Y-13188524D01*
X6030829Y-13188524D02*
X6030829Y-13055190D01*
X6030829Y-13074238D02*
X6040352Y-13064714D01*
X6040352Y-13064714D02*
X6059400Y-13055190D01*
X6059400Y-13055190D02*
X6087971Y-13055190D01*
X6087971Y-13055190D02*
X6107019Y-13064714D01*
X6107019Y-13064714D02*
X6116543Y-13083762D01*
X6116543Y-13083762D02*
X6116543Y-13188524D01*
X6116543Y-13083762D02*
X6126067Y-13064714D01*
X6126067Y-13064714D02*
X6145114Y-13055190D01*
X6145114Y-13055190D02*
X6173686Y-13055190D01*
X6173686Y-13055190D02*
X6192733Y-13064714D01*
X6192733Y-13064714D02*
X6202257Y-13083762D01*
X6202257Y-13083762D02*
X6202257Y-13188524D01*
X6592733Y-12979000D02*
X6421305Y-13236143D01*
X6849876Y-12988524D02*
X6868924Y-12988524D01*
X6868924Y-12988524D02*
X6887972Y-12998048D01*
X6887972Y-12998048D02*
X6897495Y-13007571D01*
X6897495Y-13007571D02*
X6907019Y-13026619D01*
X6907019Y-13026619D02*
X6916543Y-13064714D01*
X6916543Y-13064714D02*
X6916543Y-13112333D01*
X6916543Y-13112333D02*
X6907019Y-13150428D01*
X6907019Y-13150428D02*
X6897495Y-13169476D01*
X6897495Y-13169476D02*
X6887972Y-13179000D01*
X6887972Y-13179000D02*
X6868924Y-13188524D01*
X6868924Y-13188524D02*
X6849876Y-13188524D01*
X6849876Y-13188524D02*
X6830829Y-13179000D01*
X6830829Y-13179000D02*
X6821305Y-13169476D01*
X6821305Y-13169476D02*
X6811781Y-13150428D01*
X6811781Y-13150428D02*
X6802257Y-13112333D01*
X6802257Y-13112333D02*
X6802257Y-13064714D01*
X6802257Y-13064714D02*
X6811781Y-13026619D01*
X6811781Y-13026619D02*
X6821305Y-13007571D01*
X6821305Y-13007571D02*
X6830829Y-12998048D01*
X6830829Y-12998048D02*
X6849876Y-12988524D01*
X7002257Y-13169476D02*
X7011781Y-13179000D01*
X7011781Y-13179000D02*
X7002257Y-13188524D01*
X7002257Y-13188524D02*
X6992733Y-13179000D01*
X6992733Y-13179000D02*
X7002257Y-13169476D01*
X7002257Y-13169476D02*
X7002257Y-13188524D01*
X7135591Y-12988524D02*
X7154638Y-12988524D01*
X7154638Y-12988524D02*
X7173686Y-12998048D01*
X7173686Y-12998048D02*
X7183210Y-13007571D01*
X7183210Y-13007571D02*
X7192733Y-13026619D01*
X7192733Y-13026619D02*
X7202257Y-13064714D01*
X7202257Y-13064714D02*
X7202257Y-13112333D01*
X7202257Y-13112333D02*
X7192733Y-13150428D01*
X7192733Y-13150428D02*
X7183210Y-13169476D01*
X7183210Y-13169476D02*
X7173686Y-13179000D01*
X7173686Y-13179000D02*
X7154638Y-13188524D01*
X7154638Y-13188524D02*
X7135591Y-13188524D01*
X7135591Y-13188524D02*
X7116543Y-13179000D01*
X7116543Y-13179000D02*
X7107019Y-13169476D01*
X7107019Y-13169476D02*
X7097495Y-13150428D01*
X7097495Y-13150428D02*
X7087972Y-13112333D01*
X7087972Y-13112333D02*
X7087972Y-13064714D01*
X7087972Y-13064714D02*
X7097495Y-13026619D01*
X7097495Y-13026619D02*
X7107019Y-13007571D01*
X7107019Y-13007571D02*
X7116543Y-12998048D01*
X7116543Y-12998048D02*
X7135591Y-12988524D01*
X7392733Y-13188524D02*
X7278448Y-13188524D01*
X7335591Y-13188524D02*
X7335591Y-12988524D01*
X7335591Y-12988524D02*
X7316543Y-13017095D01*
X7316543Y-13017095D02*
X7297495Y-13036143D01*
X7297495Y-13036143D02*
X7278448Y-13045667D01*
X7573686Y-12988524D02*
X7478448Y-12988524D01*
X7478448Y-12988524D02*
X7468924Y-13083762D01*
X7468924Y-13083762D02*
X7478448Y-13074238D01*
X7478448Y-13074238D02*
X7497495Y-13064714D01*
X7497495Y-13064714D02*
X7545114Y-13064714D01*
X7545114Y-13064714D02*
X7564162Y-13074238D01*
X7564162Y-13074238D02*
X7573686Y-13083762D01*
X7573686Y-13083762D02*
X7583210Y-13102809D01*
X7583210Y-13102809D02*
X7583210Y-13150428D01*
X7583210Y-13150428D02*
X7573686Y-13169476D01*
X7573686Y-13169476D02*
X7564162Y-13179000D01*
X7564162Y-13179000D02*
X7545114Y-13188524D01*
X7545114Y-13188524D02*
X7497495Y-13188524D01*
X7497495Y-13188524D02*
X7478448Y-13179000D01*
X7478448Y-13179000D02*
X7468924Y-13169476D01*
X7649876Y-12988524D02*
X7783210Y-12988524D01*
X7783210Y-12988524D02*
X7697495Y-13188524D01*
X7849876Y-12988524D02*
X7849876Y-13026619D01*
X7926067Y-12988524D02*
X7926067Y-13026619D01*
X8221305Y-13264714D02*
X8211781Y-13255190D01*
X8211781Y-13255190D02*
X8192734Y-13226619D01*
X8192734Y-13226619D02*
X8183210Y-13207571D01*
X8183210Y-13207571D02*
X8173686Y-13179000D01*
X8173686Y-13179000D02*
X8164162Y-13131381D01*
X8164162Y-13131381D02*
X8164162Y-13093286D01*
X8164162Y-13093286D02*
X8173686Y-13045667D01*
X8173686Y-13045667D02*
X8183210Y-13017095D01*
X8183210Y-13017095D02*
X8192734Y-12998048D01*
X8192734Y-12998048D02*
X8211781Y-12969476D01*
X8211781Y-12969476D02*
X8221305Y-12959952D01*
X8383210Y-13055190D02*
X8383210Y-13188524D01*
X8335591Y-12979000D02*
X8287972Y-13121857D01*
X8287972Y-13121857D02*
X8411781Y-13121857D01*
X8526067Y-12988524D02*
X8545115Y-12988524D01*
X8545115Y-12988524D02*
X8564162Y-12998048D01*
X8564162Y-12998048D02*
X8573686Y-13007571D01*
X8573686Y-13007571D02*
X8583210Y-13026619D01*
X8583210Y-13026619D02*
X8592734Y-13064714D01*
X8592734Y-13064714D02*
X8592734Y-13112333D01*
X8592734Y-13112333D02*
X8583210Y-13150428D01*
X8583210Y-13150428D02*
X8573686Y-13169476D01*
X8573686Y-13169476D02*
X8564162Y-13179000D01*
X8564162Y-13179000D02*
X8545115Y-13188524D01*
X8545115Y-13188524D02*
X8526067Y-13188524D01*
X8526067Y-13188524D02*
X8507019Y-13179000D01*
X8507019Y-13179000D02*
X8497496Y-13169476D01*
X8497496Y-13169476D02*
X8487972Y-13150428D01*
X8487972Y-13150428D02*
X8478448Y-13112333D01*
X8478448Y-13112333D02*
X8478448Y-13064714D01*
X8478448Y-13064714D02*
X8487972Y-13026619D01*
X8487972Y-13026619D02*
X8497496Y-13007571D01*
X8497496Y-13007571D02*
X8507019Y-12998048D01*
X8507019Y-12998048D02*
X8526067Y-12988524D01*
X8830829Y-13188524D02*
X8830829Y-12988524D01*
X8916543Y-13188524D02*
X8916543Y-13083762D01*
X8916543Y-13083762D02*
X8907019Y-13064714D01*
X8907019Y-13064714D02*
X8887972Y-13055190D01*
X8887972Y-13055190D02*
X8859400Y-13055190D01*
X8859400Y-13055190D02*
X8840353Y-13064714D01*
X8840353Y-13064714D02*
X8830829Y-13074238D01*
X9040353Y-13188524D02*
X9021305Y-13179000D01*
X9021305Y-13179000D02*
X9011781Y-13169476D01*
X9011781Y-13169476D02*
X9002258Y-13150428D01*
X9002258Y-13150428D02*
X9002258Y-13093286D01*
X9002258Y-13093286D02*
X9011781Y-13074238D01*
X9011781Y-13074238D02*
X9021305Y-13064714D01*
X9021305Y-13064714D02*
X9040353Y-13055190D01*
X9040353Y-13055190D02*
X9068924Y-13055190D01*
X9068924Y-13055190D02*
X9087972Y-13064714D01*
X9087972Y-13064714D02*
X9097496Y-13074238D01*
X9097496Y-13074238D02*
X9107019Y-13093286D01*
X9107019Y-13093286D02*
X9107019Y-13150428D01*
X9107019Y-13150428D02*
X9097496Y-13169476D01*
X9097496Y-13169476D02*
X9087972Y-13179000D01*
X9087972Y-13179000D02*
X9068924Y-13188524D01*
X9068924Y-13188524D02*
X9040353Y-13188524D01*
X9221305Y-13188524D02*
X9202258Y-13179000D01*
X9202258Y-13179000D02*
X9192734Y-13159952D01*
X9192734Y-13159952D02*
X9192734Y-12988524D01*
X9373686Y-13179000D02*
X9354639Y-13188524D01*
X9354639Y-13188524D02*
X9316543Y-13188524D01*
X9316543Y-13188524D02*
X9297496Y-13179000D01*
X9297496Y-13179000D02*
X9287972Y-13159952D01*
X9287972Y-13159952D02*
X9287972Y-13083762D01*
X9287972Y-13083762D02*
X9297496Y-13064714D01*
X9297496Y-13064714D02*
X9316543Y-13055190D01*
X9316543Y-13055190D02*
X9354639Y-13055190D01*
X9354639Y-13055190D02*
X9373686Y-13064714D01*
X9373686Y-13064714D02*
X9383210Y-13083762D01*
X9383210Y-13083762D02*
X9383210Y-13102809D01*
X9383210Y-13102809D02*
X9287972Y-13121857D01*
X9459400Y-13179000D02*
X9478448Y-13188524D01*
X9478448Y-13188524D02*
X9516543Y-13188524D01*
X9516543Y-13188524D02*
X9535591Y-13179000D01*
X9535591Y-13179000D02*
X9545115Y-13159952D01*
X9545115Y-13159952D02*
X9545115Y-13150428D01*
X9545115Y-13150428D02*
X9535591Y-13131381D01*
X9535591Y-13131381D02*
X9516543Y-13121857D01*
X9516543Y-13121857D02*
X9487972Y-13121857D01*
X9487972Y-13121857D02*
X9468924Y-13112333D01*
X9468924Y-13112333D02*
X9459400Y-13093286D01*
X9459400Y-13093286D02*
X9459400Y-13083762D01*
X9459400Y-13083762D02*
X9468924Y-13064714D01*
X9468924Y-13064714D02*
X9487972Y-13055190D01*
X9487972Y-13055190D02*
X9516543Y-13055190D01*
X9516543Y-13055190D02*
X9535591Y-13064714D01*
X9611781Y-13264714D02*
X9621305Y-13255190D01*
X9621305Y-13255190D02*
X9640353Y-13226619D01*
X9640353Y-13226619D02*
X9649877Y-13207571D01*
X9649877Y-13207571D02*
X9659400Y-13179000D01*
X9659400Y-13179000D02*
X9668924Y-13131381D01*
X9668924Y-13131381D02*
X9668924Y-13093286D01*
X9668924Y-13093286D02*
X9659400Y-13045667D01*
X9659400Y-13045667D02*
X9649877Y-13017095D01*
X9649877Y-13017095D02*
X9640353Y-12998048D01*
X9640353Y-12998048D02*
X9621305Y-12969476D01*
X9621305Y-12969476D02*
X9611781Y-12959952D01*
D12*
X4659400Y-13360000D02*
G75*
G03*
X4659400Y-13360000I-25000J0D01*
G01*
D10*
X4945114Y-13252524D02*
X4964162Y-13252524D01*
X4964162Y-13252524D02*
X4983210Y-13262048D01*
X4983210Y-13262048D02*
X4992733Y-13271571D01*
X4992733Y-13271571D02*
X5002257Y-13290619D01*
X5002257Y-13290619D02*
X5011781Y-13328714D01*
X5011781Y-13328714D02*
X5011781Y-13376333D01*
X5011781Y-13376333D02*
X5002257Y-13414428D01*
X5002257Y-13414428D02*
X4992733Y-13433476D01*
X4992733Y-13433476D02*
X4983210Y-13443000D01*
X4983210Y-13443000D02*
X4964162Y-13452524D01*
X4964162Y-13452524D02*
X4945114Y-13452524D01*
X4945114Y-13452524D02*
X4926067Y-13443000D01*
X4926067Y-13443000D02*
X4916543Y-13433476D01*
X4916543Y-13433476D02*
X4907019Y-13414428D01*
X4907019Y-13414428D02*
X4897495Y-13376333D01*
X4897495Y-13376333D02*
X4897495Y-13328714D01*
X4897495Y-13328714D02*
X4907019Y-13290619D01*
X4907019Y-13290619D02*
X4916543Y-13271571D01*
X4916543Y-13271571D02*
X4926067Y-13262048D01*
X4926067Y-13262048D02*
X4945114Y-13252524D01*
X5097495Y-13433476D02*
X5107019Y-13443000D01*
X5107019Y-13443000D02*
X5097495Y-13452524D01*
X5097495Y-13452524D02*
X5087971Y-13443000D01*
X5087971Y-13443000D02*
X5097495Y-13433476D01*
X5097495Y-13433476D02*
X5097495Y-13452524D01*
X5287971Y-13252524D02*
X5192733Y-13252524D01*
X5192733Y-13252524D02*
X5183210Y-13347762D01*
X5183210Y-13347762D02*
X5192733Y-13338238D01*
X5192733Y-13338238D02*
X5211781Y-13328714D01*
X5211781Y-13328714D02*
X5259400Y-13328714D01*
X5259400Y-13328714D02*
X5278448Y-13338238D01*
X5278448Y-13338238D02*
X5287971Y-13347762D01*
X5287971Y-13347762D02*
X5297495Y-13366809D01*
X5297495Y-13366809D02*
X5297495Y-13414428D01*
X5297495Y-13414428D02*
X5287971Y-13433476D01*
X5287971Y-13433476D02*
X5278448Y-13443000D01*
X5278448Y-13443000D02*
X5259400Y-13452524D01*
X5259400Y-13452524D02*
X5211781Y-13452524D01*
X5211781Y-13452524D02*
X5192733Y-13443000D01*
X5192733Y-13443000D02*
X5183210Y-13433476D01*
X5421305Y-13252524D02*
X5440352Y-13252524D01*
X5440352Y-13252524D02*
X5459400Y-13262048D01*
X5459400Y-13262048D02*
X5468924Y-13271571D01*
X5468924Y-13271571D02*
X5478448Y-13290619D01*
X5478448Y-13290619D02*
X5487971Y-13328714D01*
X5487971Y-13328714D02*
X5487971Y-13376333D01*
X5487971Y-13376333D02*
X5478448Y-13414428D01*
X5478448Y-13414428D02*
X5468924Y-13433476D01*
X5468924Y-13433476D02*
X5459400Y-13443000D01*
X5459400Y-13443000D02*
X5440352Y-13452524D01*
X5440352Y-13452524D02*
X5421305Y-13452524D01*
X5421305Y-13452524D02*
X5402257Y-13443000D01*
X5402257Y-13443000D02*
X5392733Y-13433476D01*
X5392733Y-13433476D02*
X5383210Y-13414428D01*
X5383210Y-13414428D02*
X5373686Y-13376333D01*
X5373686Y-13376333D02*
X5373686Y-13328714D01*
X5373686Y-13328714D02*
X5383210Y-13290619D01*
X5383210Y-13290619D02*
X5392733Y-13271571D01*
X5392733Y-13271571D02*
X5402257Y-13262048D01*
X5402257Y-13262048D02*
X5421305Y-13252524D01*
X5611781Y-13252524D02*
X5630829Y-13252524D01*
X5630829Y-13252524D02*
X5649876Y-13262048D01*
X5649876Y-13262048D02*
X5659400Y-13271571D01*
X5659400Y-13271571D02*
X5668924Y-13290619D01*
X5668924Y-13290619D02*
X5678448Y-13328714D01*
X5678448Y-13328714D02*
X5678448Y-13376333D01*
X5678448Y-13376333D02*
X5668924Y-13414428D01*
X5668924Y-13414428D02*
X5659400Y-13433476D01*
X5659400Y-13433476D02*
X5649876Y-13443000D01*
X5649876Y-13443000D02*
X5630829Y-13452524D01*
X5630829Y-13452524D02*
X5611781Y-13452524D01*
X5611781Y-13452524D02*
X5592733Y-13443000D01*
X5592733Y-13443000D02*
X5583210Y-13433476D01*
X5583210Y-13433476D02*
X5573686Y-13414428D01*
X5573686Y-13414428D02*
X5564162Y-13376333D01*
X5564162Y-13376333D02*
X5564162Y-13328714D01*
X5564162Y-13328714D02*
X5573686Y-13290619D01*
X5573686Y-13290619D02*
X5583210Y-13271571D01*
X5583210Y-13271571D02*
X5592733Y-13262048D01*
X5592733Y-13262048D02*
X5611781Y-13252524D01*
X5764162Y-13452524D02*
X5764162Y-13319190D01*
X5764162Y-13338238D02*
X5773686Y-13328714D01*
X5773686Y-13328714D02*
X5792733Y-13319190D01*
X5792733Y-13319190D02*
X5821305Y-13319190D01*
X5821305Y-13319190D02*
X5840352Y-13328714D01*
X5840352Y-13328714D02*
X5849876Y-13347762D01*
X5849876Y-13347762D02*
X5849876Y-13452524D01*
X5849876Y-13347762D02*
X5859400Y-13328714D01*
X5859400Y-13328714D02*
X5878448Y-13319190D01*
X5878448Y-13319190D02*
X5907019Y-13319190D01*
X5907019Y-13319190D02*
X5926067Y-13328714D01*
X5926067Y-13328714D02*
X5935590Y-13347762D01*
X5935590Y-13347762D02*
X5935590Y-13452524D01*
X6030829Y-13452524D02*
X6030829Y-13319190D01*
X6030829Y-13338238D02*
X6040352Y-13328714D01*
X6040352Y-13328714D02*
X6059400Y-13319190D01*
X6059400Y-13319190D02*
X6087971Y-13319190D01*
X6087971Y-13319190D02*
X6107019Y-13328714D01*
X6107019Y-13328714D02*
X6116543Y-13347762D01*
X6116543Y-13347762D02*
X6116543Y-13452524D01*
X6116543Y-13347762D02*
X6126067Y-13328714D01*
X6126067Y-13328714D02*
X6145114Y-13319190D01*
X6145114Y-13319190D02*
X6173686Y-13319190D01*
X6173686Y-13319190D02*
X6192733Y-13328714D01*
X6192733Y-13328714D02*
X6202257Y-13347762D01*
X6202257Y-13347762D02*
X6202257Y-13452524D01*
X6592733Y-13243000D02*
X6421305Y-13500143D01*
X6849876Y-13252524D02*
X6868924Y-13252524D01*
X6868924Y-13252524D02*
X6887972Y-13262048D01*
X6887972Y-13262048D02*
X6897495Y-13271571D01*
X6897495Y-13271571D02*
X6907019Y-13290619D01*
X6907019Y-13290619D02*
X6916543Y-13328714D01*
X6916543Y-13328714D02*
X6916543Y-13376333D01*
X6916543Y-13376333D02*
X6907019Y-13414428D01*
X6907019Y-13414428D02*
X6897495Y-13433476D01*
X6897495Y-13433476D02*
X6887972Y-13443000D01*
X6887972Y-13443000D02*
X6868924Y-13452524D01*
X6868924Y-13452524D02*
X6849876Y-13452524D01*
X6849876Y-13452524D02*
X6830829Y-13443000D01*
X6830829Y-13443000D02*
X6821305Y-13433476D01*
X6821305Y-13433476D02*
X6811781Y-13414428D01*
X6811781Y-13414428D02*
X6802257Y-13376333D01*
X6802257Y-13376333D02*
X6802257Y-13328714D01*
X6802257Y-13328714D02*
X6811781Y-13290619D01*
X6811781Y-13290619D02*
X6821305Y-13271571D01*
X6821305Y-13271571D02*
X6830829Y-13262048D01*
X6830829Y-13262048D02*
X6849876Y-13252524D01*
X7002257Y-13433476D02*
X7011781Y-13443000D01*
X7011781Y-13443000D02*
X7002257Y-13452524D01*
X7002257Y-13452524D02*
X6992733Y-13443000D01*
X6992733Y-13443000D02*
X7002257Y-13433476D01*
X7002257Y-13433476D02*
X7002257Y-13452524D01*
X7135591Y-13252524D02*
X7154638Y-13252524D01*
X7154638Y-13252524D02*
X7173686Y-13262048D01*
X7173686Y-13262048D02*
X7183210Y-13271571D01*
X7183210Y-13271571D02*
X7192733Y-13290619D01*
X7192733Y-13290619D02*
X7202257Y-13328714D01*
X7202257Y-13328714D02*
X7202257Y-13376333D01*
X7202257Y-13376333D02*
X7192733Y-13414428D01*
X7192733Y-13414428D02*
X7183210Y-13433476D01*
X7183210Y-13433476D02*
X7173686Y-13443000D01*
X7173686Y-13443000D02*
X7154638Y-13452524D01*
X7154638Y-13452524D02*
X7135591Y-13452524D01*
X7135591Y-13452524D02*
X7116543Y-13443000D01*
X7116543Y-13443000D02*
X7107019Y-13433476D01*
X7107019Y-13433476D02*
X7097495Y-13414428D01*
X7097495Y-13414428D02*
X7087972Y-13376333D01*
X7087972Y-13376333D02*
X7087972Y-13328714D01*
X7087972Y-13328714D02*
X7097495Y-13290619D01*
X7097495Y-13290619D02*
X7107019Y-13271571D01*
X7107019Y-13271571D02*
X7116543Y-13262048D01*
X7116543Y-13262048D02*
X7135591Y-13252524D01*
X7392733Y-13452524D02*
X7278448Y-13452524D01*
X7335591Y-13452524D02*
X7335591Y-13252524D01*
X7335591Y-13252524D02*
X7316543Y-13281095D01*
X7316543Y-13281095D02*
X7297495Y-13300143D01*
X7297495Y-13300143D02*
X7278448Y-13309667D01*
X7487972Y-13452524D02*
X7526067Y-13452524D01*
X7526067Y-13452524D02*
X7545114Y-13443000D01*
X7545114Y-13443000D02*
X7554638Y-13433476D01*
X7554638Y-13433476D02*
X7573686Y-13404905D01*
X7573686Y-13404905D02*
X7583210Y-13366809D01*
X7583210Y-13366809D02*
X7583210Y-13290619D01*
X7583210Y-13290619D02*
X7573686Y-13271571D01*
X7573686Y-13271571D02*
X7564162Y-13262048D01*
X7564162Y-13262048D02*
X7545114Y-13252524D01*
X7545114Y-13252524D02*
X7507019Y-13252524D01*
X7507019Y-13252524D02*
X7487972Y-13262048D01*
X7487972Y-13262048D02*
X7478448Y-13271571D01*
X7478448Y-13271571D02*
X7468924Y-13290619D01*
X7468924Y-13290619D02*
X7468924Y-13338238D01*
X7468924Y-13338238D02*
X7478448Y-13357286D01*
X7478448Y-13357286D02*
X7487972Y-13366809D01*
X7487972Y-13366809D02*
X7507019Y-13376333D01*
X7507019Y-13376333D02*
X7545114Y-13376333D01*
X7545114Y-13376333D02*
X7564162Y-13366809D01*
X7564162Y-13366809D02*
X7573686Y-13357286D01*
X7573686Y-13357286D02*
X7583210Y-13338238D01*
X7649876Y-13252524D02*
X7783210Y-13252524D01*
X7783210Y-13252524D02*
X7697495Y-13452524D01*
X7849876Y-13252524D02*
X7849876Y-13290619D01*
X7926067Y-13252524D02*
X7926067Y-13290619D01*
X8221305Y-13528714D02*
X8211781Y-13519190D01*
X8211781Y-13519190D02*
X8192734Y-13490619D01*
X8192734Y-13490619D02*
X8183210Y-13471571D01*
X8183210Y-13471571D02*
X8173686Y-13443000D01*
X8173686Y-13443000D02*
X8164162Y-13395381D01*
X8164162Y-13395381D02*
X8164162Y-13357286D01*
X8164162Y-13357286D02*
X8173686Y-13309667D01*
X8173686Y-13309667D02*
X8183210Y-13281095D01*
X8183210Y-13281095D02*
X8192734Y-13262048D01*
X8192734Y-13262048D02*
X8211781Y-13233476D01*
X8211781Y-13233476D02*
X8221305Y-13223952D01*
X8326067Y-13338238D02*
X8307019Y-13328714D01*
X8307019Y-13328714D02*
X8297495Y-13319190D01*
X8297495Y-13319190D02*
X8287972Y-13300143D01*
X8287972Y-13300143D02*
X8287972Y-13290619D01*
X8287972Y-13290619D02*
X8297495Y-13271571D01*
X8297495Y-13271571D02*
X8307019Y-13262048D01*
X8307019Y-13262048D02*
X8326067Y-13252524D01*
X8326067Y-13252524D02*
X8364162Y-13252524D01*
X8364162Y-13252524D02*
X8383210Y-13262048D01*
X8383210Y-13262048D02*
X8392734Y-13271571D01*
X8392734Y-13271571D02*
X8402257Y-13290619D01*
X8402257Y-13290619D02*
X8402257Y-13300143D01*
X8402257Y-13300143D02*
X8392734Y-13319190D01*
X8392734Y-13319190D02*
X8383210Y-13328714D01*
X8383210Y-13328714D02*
X8364162Y-13338238D01*
X8364162Y-13338238D02*
X8326067Y-13338238D01*
X8326067Y-13338238D02*
X8307019Y-13347762D01*
X8307019Y-13347762D02*
X8297495Y-13357286D01*
X8297495Y-13357286D02*
X8287972Y-13376333D01*
X8287972Y-13376333D02*
X8287972Y-13414428D01*
X8287972Y-13414428D02*
X8297495Y-13433476D01*
X8297495Y-13433476D02*
X8307019Y-13443000D01*
X8307019Y-13443000D02*
X8326067Y-13452524D01*
X8326067Y-13452524D02*
X8364162Y-13452524D01*
X8364162Y-13452524D02*
X8383210Y-13443000D01*
X8383210Y-13443000D02*
X8392734Y-13433476D01*
X8392734Y-13433476D02*
X8402257Y-13414428D01*
X8402257Y-13414428D02*
X8402257Y-13376333D01*
X8402257Y-13376333D02*
X8392734Y-13357286D01*
X8392734Y-13357286D02*
X8383210Y-13347762D01*
X8383210Y-13347762D02*
X8364162Y-13338238D01*
X8640353Y-13452524D02*
X8640353Y-13252524D01*
X8726067Y-13452524D02*
X8726067Y-13347762D01*
X8726067Y-13347762D02*
X8716543Y-13328714D01*
X8716543Y-13328714D02*
X8697496Y-13319190D01*
X8697496Y-13319190D02*
X8668924Y-13319190D01*
X8668924Y-13319190D02*
X8649877Y-13328714D01*
X8649877Y-13328714D02*
X8640353Y-13338238D01*
X8849877Y-13452524D02*
X8830829Y-13443000D01*
X8830829Y-13443000D02*
X8821305Y-13433476D01*
X8821305Y-13433476D02*
X8811781Y-13414428D01*
X8811781Y-13414428D02*
X8811781Y-13357286D01*
X8811781Y-13357286D02*
X8821305Y-13338238D01*
X8821305Y-13338238D02*
X8830829Y-13328714D01*
X8830829Y-13328714D02*
X8849877Y-13319190D01*
X8849877Y-13319190D02*
X8878448Y-13319190D01*
X8878448Y-13319190D02*
X8897496Y-13328714D01*
X8897496Y-13328714D02*
X8907019Y-13338238D01*
X8907019Y-13338238D02*
X8916543Y-13357286D01*
X8916543Y-13357286D02*
X8916543Y-13414428D01*
X8916543Y-13414428D02*
X8907019Y-13433476D01*
X8907019Y-13433476D02*
X8897496Y-13443000D01*
X8897496Y-13443000D02*
X8878448Y-13452524D01*
X8878448Y-13452524D02*
X8849877Y-13452524D01*
X9030829Y-13452524D02*
X9011781Y-13443000D01*
X9011781Y-13443000D02*
X9002258Y-13423952D01*
X9002258Y-13423952D02*
X9002258Y-13252524D01*
X9183210Y-13443000D02*
X9164162Y-13452524D01*
X9164162Y-13452524D02*
X9126067Y-13452524D01*
X9126067Y-13452524D02*
X9107019Y-13443000D01*
X9107019Y-13443000D02*
X9097496Y-13423952D01*
X9097496Y-13423952D02*
X9097496Y-13347762D01*
X9097496Y-13347762D02*
X9107019Y-13328714D01*
X9107019Y-13328714D02*
X9126067Y-13319190D01*
X9126067Y-13319190D02*
X9164162Y-13319190D01*
X9164162Y-13319190D02*
X9183210Y-13328714D01*
X9183210Y-13328714D02*
X9192734Y-13347762D01*
X9192734Y-13347762D02*
X9192734Y-13366809D01*
X9192734Y-13366809D02*
X9097496Y-13385857D01*
X9268924Y-13443000D02*
X9287972Y-13452524D01*
X9287972Y-13452524D02*
X9326067Y-13452524D01*
X9326067Y-13452524D02*
X9345115Y-13443000D01*
X9345115Y-13443000D02*
X9354639Y-13423952D01*
X9354639Y-13423952D02*
X9354639Y-13414428D01*
X9354639Y-13414428D02*
X9345115Y-13395381D01*
X9345115Y-13395381D02*
X9326067Y-13385857D01*
X9326067Y-13385857D02*
X9297496Y-13385857D01*
X9297496Y-13385857D02*
X9278448Y-13376333D01*
X9278448Y-13376333D02*
X9268924Y-13357286D01*
X9268924Y-13357286D02*
X9268924Y-13347762D01*
X9268924Y-13347762D02*
X9278448Y-13328714D01*
X9278448Y-13328714D02*
X9297496Y-13319190D01*
X9297496Y-13319190D02*
X9326067Y-13319190D01*
X9326067Y-13319190D02*
X9345115Y-13328714D01*
X9421305Y-13528714D02*
X9430829Y-13519190D01*
X9430829Y-13519190D02*
X9449877Y-13490619D01*
X9449877Y-13490619D02*
X9459400Y-13471571D01*
X9459400Y-13471571D02*
X9468924Y-13443000D01*
X9468924Y-13443000D02*
X9478448Y-13395381D01*
X9478448Y-13395381D02*
X9478448Y-13357286D01*
X9478448Y-13357286D02*
X9468924Y-13309667D01*
X9468924Y-13309667D02*
X9459400Y-13281095D01*
X9459400Y-13281095D02*
X9449877Y-13262048D01*
X9449877Y-13262048D02*
X9430829Y-13233476D01*
X9430829Y-13233476D02*
X9421305Y-13223952D01*
D13*
X4609400Y-13574000D02*
X4609400Y-13674000D01*
X4559400Y-13624000D02*
X4659400Y-13624000D01*
D10*
X5011781Y-13716524D02*
X4897495Y-13716524D01*
X4954638Y-13716524D02*
X4954638Y-13516524D01*
X4954638Y-13516524D02*
X4935590Y-13545095D01*
X4935590Y-13545095D02*
X4916543Y-13564143D01*
X4916543Y-13564143D02*
X4897495Y-13573667D01*
X5097495Y-13697476D02*
X5107019Y-13707000D01*
X5107019Y-13707000D02*
X5097495Y-13716524D01*
X5097495Y-13716524D02*
X5087971Y-13707000D01*
X5087971Y-13707000D02*
X5097495Y-13697476D01*
X5097495Y-13697476D02*
X5097495Y-13716524D01*
X5230829Y-13516524D02*
X5249876Y-13516524D01*
X5249876Y-13516524D02*
X5268924Y-13526048D01*
X5268924Y-13526048D02*
X5278448Y-13535571D01*
X5278448Y-13535571D02*
X5287971Y-13554619D01*
X5287971Y-13554619D02*
X5297495Y-13592714D01*
X5297495Y-13592714D02*
X5297495Y-13640333D01*
X5297495Y-13640333D02*
X5287971Y-13678428D01*
X5287971Y-13678428D02*
X5278448Y-13697476D01*
X5278448Y-13697476D02*
X5268924Y-13707000D01*
X5268924Y-13707000D02*
X5249876Y-13716524D01*
X5249876Y-13716524D02*
X5230829Y-13716524D01*
X5230829Y-13716524D02*
X5211781Y-13707000D01*
X5211781Y-13707000D02*
X5202257Y-13697476D01*
X5202257Y-13697476D02*
X5192733Y-13678428D01*
X5192733Y-13678428D02*
X5183210Y-13640333D01*
X5183210Y-13640333D02*
X5183210Y-13592714D01*
X5183210Y-13592714D02*
X5192733Y-13554619D01*
X5192733Y-13554619D02*
X5202257Y-13535571D01*
X5202257Y-13535571D02*
X5211781Y-13526048D01*
X5211781Y-13526048D02*
X5230829Y-13516524D01*
X5421305Y-13516524D02*
X5440352Y-13516524D01*
X5440352Y-13516524D02*
X5459400Y-13526048D01*
X5459400Y-13526048D02*
X5468924Y-13535571D01*
X5468924Y-13535571D02*
X5478448Y-13554619D01*
X5478448Y-13554619D02*
X5487971Y-13592714D01*
X5487971Y-13592714D02*
X5487971Y-13640333D01*
X5487971Y-13640333D02*
X5478448Y-13678428D01*
X5478448Y-13678428D02*
X5468924Y-13697476D01*
X5468924Y-13697476D02*
X5459400Y-13707000D01*
X5459400Y-13707000D02*
X5440352Y-13716524D01*
X5440352Y-13716524D02*
X5421305Y-13716524D01*
X5421305Y-13716524D02*
X5402257Y-13707000D01*
X5402257Y-13707000D02*
X5392733Y-13697476D01*
X5392733Y-13697476D02*
X5383210Y-13678428D01*
X5383210Y-13678428D02*
X5373686Y-13640333D01*
X5373686Y-13640333D02*
X5373686Y-13592714D01*
X5373686Y-13592714D02*
X5383210Y-13554619D01*
X5383210Y-13554619D02*
X5392733Y-13535571D01*
X5392733Y-13535571D02*
X5402257Y-13526048D01*
X5402257Y-13526048D02*
X5421305Y-13516524D01*
X5611781Y-13516524D02*
X5630829Y-13516524D01*
X5630829Y-13516524D02*
X5649876Y-13526048D01*
X5649876Y-13526048D02*
X5659400Y-13535571D01*
X5659400Y-13535571D02*
X5668924Y-13554619D01*
X5668924Y-13554619D02*
X5678448Y-13592714D01*
X5678448Y-13592714D02*
X5678448Y-13640333D01*
X5678448Y-13640333D02*
X5668924Y-13678428D01*
X5668924Y-13678428D02*
X5659400Y-13697476D01*
X5659400Y-13697476D02*
X5649876Y-13707000D01*
X5649876Y-13707000D02*
X5630829Y-13716524D01*
X5630829Y-13716524D02*
X5611781Y-13716524D01*
X5611781Y-13716524D02*
X5592733Y-13707000D01*
X5592733Y-13707000D02*
X5583210Y-13697476D01*
X5583210Y-13697476D02*
X5573686Y-13678428D01*
X5573686Y-13678428D02*
X5564162Y-13640333D01*
X5564162Y-13640333D02*
X5564162Y-13592714D01*
X5564162Y-13592714D02*
X5573686Y-13554619D01*
X5573686Y-13554619D02*
X5583210Y-13535571D01*
X5583210Y-13535571D02*
X5592733Y-13526048D01*
X5592733Y-13526048D02*
X5611781Y-13516524D01*
X5764162Y-13716524D02*
X5764162Y-13583190D01*
X5764162Y-13602238D02*
X5773686Y-13592714D01*
X5773686Y-13592714D02*
X5792733Y-13583190D01*
X5792733Y-13583190D02*
X5821305Y-13583190D01*
X5821305Y-13583190D02*
X5840352Y-13592714D01*
X5840352Y-13592714D02*
X5849876Y-13611762D01*
X5849876Y-13611762D02*
X5849876Y-13716524D01*
X5849876Y-13611762D02*
X5859400Y-13592714D01*
X5859400Y-13592714D02*
X5878448Y-13583190D01*
X5878448Y-13583190D02*
X5907019Y-13583190D01*
X5907019Y-13583190D02*
X5926067Y-13592714D01*
X5926067Y-13592714D02*
X5935590Y-13611762D01*
X5935590Y-13611762D02*
X5935590Y-13716524D01*
X6030829Y-13716524D02*
X6030829Y-13583190D01*
X6030829Y-13602238D02*
X6040352Y-13592714D01*
X6040352Y-13592714D02*
X6059400Y-13583190D01*
X6059400Y-13583190D02*
X6087971Y-13583190D01*
X6087971Y-13583190D02*
X6107019Y-13592714D01*
X6107019Y-13592714D02*
X6116543Y-13611762D01*
X6116543Y-13611762D02*
X6116543Y-13716524D01*
X6116543Y-13611762D02*
X6126067Y-13592714D01*
X6126067Y-13592714D02*
X6145114Y-13583190D01*
X6145114Y-13583190D02*
X6173686Y-13583190D01*
X6173686Y-13583190D02*
X6192733Y-13592714D01*
X6192733Y-13592714D02*
X6202257Y-13611762D01*
X6202257Y-13611762D02*
X6202257Y-13716524D01*
X6592733Y-13507000D02*
X6421305Y-13764143D01*
X6849876Y-13516524D02*
X6868924Y-13516524D01*
X6868924Y-13516524D02*
X6887972Y-13526048D01*
X6887972Y-13526048D02*
X6897495Y-13535571D01*
X6897495Y-13535571D02*
X6907019Y-13554619D01*
X6907019Y-13554619D02*
X6916543Y-13592714D01*
X6916543Y-13592714D02*
X6916543Y-13640333D01*
X6916543Y-13640333D02*
X6907019Y-13678428D01*
X6907019Y-13678428D02*
X6897495Y-13697476D01*
X6897495Y-13697476D02*
X6887972Y-13707000D01*
X6887972Y-13707000D02*
X6868924Y-13716524D01*
X6868924Y-13716524D02*
X6849876Y-13716524D01*
X6849876Y-13716524D02*
X6830829Y-13707000D01*
X6830829Y-13707000D02*
X6821305Y-13697476D01*
X6821305Y-13697476D02*
X6811781Y-13678428D01*
X6811781Y-13678428D02*
X6802257Y-13640333D01*
X6802257Y-13640333D02*
X6802257Y-13592714D01*
X6802257Y-13592714D02*
X6811781Y-13554619D01*
X6811781Y-13554619D02*
X6821305Y-13535571D01*
X6821305Y-13535571D02*
X6830829Y-13526048D01*
X6830829Y-13526048D02*
X6849876Y-13516524D01*
X7002257Y-13697476D02*
X7011781Y-13707000D01*
X7011781Y-13707000D02*
X7002257Y-13716524D01*
X7002257Y-13716524D02*
X6992733Y-13707000D01*
X6992733Y-13707000D02*
X7002257Y-13697476D01*
X7002257Y-13697476D02*
X7002257Y-13716524D01*
X7135591Y-13516524D02*
X7154638Y-13516524D01*
X7154638Y-13516524D02*
X7173686Y-13526048D01*
X7173686Y-13526048D02*
X7183210Y-13535571D01*
X7183210Y-13535571D02*
X7192733Y-13554619D01*
X7192733Y-13554619D02*
X7202257Y-13592714D01*
X7202257Y-13592714D02*
X7202257Y-13640333D01*
X7202257Y-13640333D02*
X7192733Y-13678428D01*
X7192733Y-13678428D02*
X7183210Y-13697476D01*
X7183210Y-13697476D02*
X7173686Y-13707000D01*
X7173686Y-13707000D02*
X7154638Y-13716524D01*
X7154638Y-13716524D02*
X7135591Y-13716524D01*
X7135591Y-13716524D02*
X7116543Y-13707000D01*
X7116543Y-13707000D02*
X7107019Y-13697476D01*
X7107019Y-13697476D02*
X7097495Y-13678428D01*
X7097495Y-13678428D02*
X7087972Y-13640333D01*
X7087972Y-13640333D02*
X7087972Y-13592714D01*
X7087972Y-13592714D02*
X7097495Y-13554619D01*
X7097495Y-13554619D02*
X7107019Y-13535571D01*
X7107019Y-13535571D02*
X7116543Y-13526048D01*
X7116543Y-13526048D02*
X7135591Y-13516524D01*
X7268924Y-13516524D02*
X7392733Y-13516524D01*
X7392733Y-13516524D02*
X7326067Y-13592714D01*
X7326067Y-13592714D02*
X7354638Y-13592714D01*
X7354638Y-13592714D02*
X7373686Y-13602238D01*
X7373686Y-13602238D02*
X7383210Y-13611762D01*
X7383210Y-13611762D02*
X7392733Y-13630809D01*
X7392733Y-13630809D02*
X7392733Y-13678428D01*
X7392733Y-13678428D02*
X7383210Y-13697476D01*
X7383210Y-13697476D02*
X7373686Y-13707000D01*
X7373686Y-13707000D02*
X7354638Y-13716524D01*
X7354638Y-13716524D02*
X7297495Y-13716524D01*
X7297495Y-13716524D02*
X7278448Y-13707000D01*
X7278448Y-13707000D02*
X7268924Y-13697476D01*
X7487972Y-13716524D02*
X7526067Y-13716524D01*
X7526067Y-13716524D02*
X7545114Y-13707000D01*
X7545114Y-13707000D02*
X7554638Y-13697476D01*
X7554638Y-13697476D02*
X7573686Y-13668905D01*
X7573686Y-13668905D02*
X7583210Y-13630809D01*
X7583210Y-13630809D02*
X7583210Y-13554619D01*
X7583210Y-13554619D02*
X7573686Y-13535571D01*
X7573686Y-13535571D02*
X7564162Y-13526048D01*
X7564162Y-13526048D02*
X7545114Y-13516524D01*
X7545114Y-13516524D02*
X7507019Y-13516524D01*
X7507019Y-13516524D02*
X7487972Y-13526048D01*
X7487972Y-13526048D02*
X7478448Y-13535571D01*
X7478448Y-13535571D02*
X7468924Y-13554619D01*
X7468924Y-13554619D02*
X7468924Y-13602238D01*
X7468924Y-13602238D02*
X7478448Y-13621286D01*
X7478448Y-13621286D02*
X7487972Y-13630809D01*
X7487972Y-13630809D02*
X7507019Y-13640333D01*
X7507019Y-13640333D02*
X7545114Y-13640333D01*
X7545114Y-13640333D02*
X7564162Y-13630809D01*
X7564162Y-13630809D02*
X7573686Y-13621286D01*
X7573686Y-13621286D02*
X7583210Y-13602238D01*
X7754638Y-13583190D02*
X7754638Y-13716524D01*
X7707019Y-13507000D02*
X7659400Y-13649857D01*
X7659400Y-13649857D02*
X7783210Y-13649857D01*
X7849876Y-13516524D02*
X7849876Y-13554619D01*
X7926067Y-13516524D02*
X7926067Y-13554619D01*
X8221305Y-13792714D02*
X8211781Y-13783190D01*
X8211781Y-13783190D02*
X8192734Y-13754619D01*
X8192734Y-13754619D02*
X8183210Y-13735571D01*
X8183210Y-13735571D02*
X8173686Y-13707000D01*
X8173686Y-13707000D02*
X8164162Y-13659381D01*
X8164162Y-13659381D02*
X8164162Y-13621286D01*
X8164162Y-13621286D02*
X8173686Y-13573667D01*
X8173686Y-13573667D02*
X8183210Y-13545095D01*
X8183210Y-13545095D02*
X8192734Y-13526048D01*
X8192734Y-13526048D02*
X8211781Y-13497476D01*
X8211781Y-13497476D02*
X8221305Y-13487952D01*
X8402257Y-13716524D02*
X8287972Y-13716524D01*
X8345114Y-13716524D02*
X8345114Y-13516524D01*
X8345114Y-13516524D02*
X8326067Y-13545095D01*
X8326067Y-13545095D02*
X8307019Y-13564143D01*
X8307019Y-13564143D02*
X8287972Y-13573667D01*
X8468924Y-13516524D02*
X8602257Y-13516524D01*
X8602257Y-13516524D02*
X8516543Y-13716524D01*
X8830829Y-13716524D02*
X8830829Y-13516524D01*
X8916543Y-13716524D02*
X8916543Y-13611762D01*
X8916543Y-13611762D02*
X8907019Y-13592714D01*
X8907019Y-13592714D02*
X8887972Y-13583190D01*
X8887972Y-13583190D02*
X8859400Y-13583190D01*
X8859400Y-13583190D02*
X8840353Y-13592714D01*
X8840353Y-13592714D02*
X8830829Y-13602238D01*
X9040353Y-13716524D02*
X9021305Y-13707000D01*
X9021305Y-13707000D02*
X9011781Y-13697476D01*
X9011781Y-13697476D02*
X9002258Y-13678428D01*
X9002258Y-13678428D02*
X9002258Y-13621286D01*
X9002258Y-13621286D02*
X9011781Y-13602238D01*
X9011781Y-13602238D02*
X9021305Y-13592714D01*
X9021305Y-13592714D02*
X9040353Y-13583190D01*
X9040353Y-13583190D02*
X9068924Y-13583190D01*
X9068924Y-13583190D02*
X9087972Y-13592714D01*
X9087972Y-13592714D02*
X9097496Y-13602238D01*
X9097496Y-13602238D02*
X9107019Y-13621286D01*
X9107019Y-13621286D02*
X9107019Y-13678428D01*
X9107019Y-13678428D02*
X9097496Y-13697476D01*
X9097496Y-13697476D02*
X9087972Y-13707000D01*
X9087972Y-13707000D02*
X9068924Y-13716524D01*
X9068924Y-13716524D02*
X9040353Y-13716524D01*
X9221305Y-13716524D02*
X9202258Y-13707000D01*
X9202258Y-13707000D02*
X9192734Y-13687952D01*
X9192734Y-13687952D02*
X9192734Y-13516524D01*
X9373686Y-13707000D02*
X9354639Y-13716524D01*
X9354639Y-13716524D02*
X9316543Y-13716524D01*
X9316543Y-13716524D02*
X9297496Y-13707000D01*
X9297496Y-13707000D02*
X9287972Y-13687952D01*
X9287972Y-13687952D02*
X9287972Y-13611762D01*
X9287972Y-13611762D02*
X9297496Y-13592714D01*
X9297496Y-13592714D02*
X9316543Y-13583190D01*
X9316543Y-13583190D02*
X9354639Y-13583190D01*
X9354639Y-13583190D02*
X9373686Y-13592714D01*
X9373686Y-13592714D02*
X9383210Y-13611762D01*
X9383210Y-13611762D02*
X9383210Y-13630809D01*
X9383210Y-13630809D02*
X9287972Y-13649857D01*
X9459400Y-13707000D02*
X9478448Y-13716524D01*
X9478448Y-13716524D02*
X9516543Y-13716524D01*
X9516543Y-13716524D02*
X9535591Y-13707000D01*
X9535591Y-13707000D02*
X9545115Y-13687952D01*
X9545115Y-13687952D02*
X9545115Y-13678428D01*
X9545115Y-13678428D02*
X9535591Y-13659381D01*
X9535591Y-13659381D02*
X9516543Y-13649857D01*
X9516543Y-13649857D02*
X9487972Y-13649857D01*
X9487972Y-13649857D02*
X9468924Y-13640333D01*
X9468924Y-13640333D02*
X9459400Y-13621286D01*
X9459400Y-13621286D02*
X9459400Y-13611762D01*
X9459400Y-13611762D02*
X9468924Y-13592714D01*
X9468924Y-13592714D02*
X9487972Y-13583190D01*
X9487972Y-13583190D02*
X9516543Y-13583190D01*
X9516543Y-13583190D02*
X9535591Y-13592714D01*
X9611781Y-13792714D02*
X9621305Y-13783190D01*
X9621305Y-13783190D02*
X9640353Y-13754619D01*
X9640353Y-13754619D02*
X9649877Y-13735571D01*
X9649877Y-13735571D02*
X9659400Y-13707000D01*
X9659400Y-13707000D02*
X9668924Y-13659381D01*
X9668924Y-13659381D02*
X9668924Y-13621286D01*
X9668924Y-13621286D02*
X9659400Y-13573667D01*
X9659400Y-13573667D02*
X9649877Y-13545095D01*
X9649877Y-13545095D02*
X9640353Y-13526048D01*
X9640353Y-13526048D02*
X9621305Y-13497476D01*
X9621305Y-13497476D02*
X9611781Y-13487952D01*
M02*
