G04 #@! TF.GenerationSoftware,KiCad,Pcbnew,7.0.1-0*
G04 #@! TF.CreationDate,2023-12-28T14:24:05+01:00*
G04 #@! TF.ProjectId,parallel_trail,70617261-6c6c-4656-9c5f-747261696c2e,rev?*
G04 #@! TF.SameCoordinates,Original*
G04 #@! TF.FileFunction,Legend,Top*
G04 #@! TF.FilePolarity,Positive*
%FSLAX46Y46*%
G04 Gerber Fmt 4.6, Leading zero omitted, Abs format (unit mm)*
G04 Created by KiCad (PCBNEW 7.0.1-0) date 2023-12-28 14:24:05*
%MOMM*%
%LPD*%
G01*
G04 APERTURE LIST*
G04 Aperture macros list*
%AMRoundRect*
0 Rectangle with rounded corners*
0 $1 Rounding radius*
0 $2 $3 $4 $5 $6 $7 $8 $9 X,Y pos of 4 corners*
0 Add a 4 corners polygon primitive as box body*
4,1,4,$2,$3,$4,$5,$6,$7,$8,$9,$2,$3,0*
0 Add four circle primitives for the rounded corners*
1,1,$1+$1,$2,$3*
1,1,$1+$1,$4,$5*
1,1,$1+$1,$6,$7*
1,1,$1+$1,$8,$9*
0 Add four rect primitives between the rounded corners*
20,1,$1+$1,$2,$3,$4,$5,0*
20,1,$1+$1,$4,$5,$6,$7,0*
20,1,$1+$1,$6,$7,$8,$9,0*
20,1,$1+$1,$8,$9,$2,$3,0*%
G04 Aperture macros list end*
%ADD10C,0.150000*%
%ADD11C,0.060000*%
%ADD12C,0.120000*%
%ADD13R,1.700000X1.700000*%
%ADD14O,1.700000X1.700000*%
%ADD15RoundRect,0.150000X-0.800000X-0.150000X0.800000X-0.150000X0.800000X0.150000X-0.800000X0.150000X0*%
%ADD16RoundRect,0.150000X-0.150000X0.825000X-0.150000X-0.825000X0.150000X-0.825000X0.150000X0.825000X0*%
%ADD17RoundRect,0.150000X0.150000X-0.825000X0.150000X0.825000X-0.150000X0.825000X-0.150000X-0.825000X0*%
%ADD18RoundRect,0.250000X-0.450000X0.262500X-0.450000X-0.262500X0.450000X-0.262500X0.450000X0.262500X0*%
%ADD19RoundRect,0.250000X0.450000X-0.262500X0.450000X0.262500X-0.450000X0.262500X-0.450000X-0.262500X0*%
%ADD20RoundRect,0.250000X0.262500X0.450000X-0.262500X0.450000X-0.262500X-0.450000X0.262500X-0.450000X0*%
%ADD21RoundRect,0.250000X-0.475000X0.250000X-0.475000X-0.250000X0.475000X-0.250000X0.475000X0.250000X0*%
%ADD22RoundRect,0.250000X-1.075000X-0.550000X1.075000X-0.550000X1.075000X0.550000X-1.075000X0.550000X0*%
%ADD23RoundRect,0.250000X1.075000X0.550000X-1.075000X0.550000X-1.075000X-0.550000X1.075000X-0.550000X0*%
%ADD24RoundRect,0.250000X0.475000X-0.250000X0.475000X0.250000X-0.475000X0.250000X-0.475000X-0.250000X0*%
%ADD25RoundRect,0.250000X0.250000X0.475000X-0.250000X0.475000X-0.250000X-0.475000X0.250000X-0.475000X0*%
%ADD26RoundRect,0.250000X-0.550000X1.075000X-0.550000X-1.075000X0.550000X-1.075000X0.550000X1.075000X0*%
%ADD27RoundRect,0.250000X0.550000X-1.075000X0.550000X1.075000X-0.550000X1.075000X-0.550000X-1.075000X0*%
G04 APERTURE END LIST*
D10*
X99060000Y-124587000D02*
X99060000Y-123825000D01*
X96520000Y-124587000D02*
X96520000Y-123825000D01*
X93980000Y-124587000D02*
X93980000Y-123825000D01*
X91440000Y-124587000D02*
X91440000Y-123825000D01*
X88900000Y-124587000D02*
X88900000Y-123825000D01*
X86360000Y-124587000D02*
X86360000Y-123825000D01*
X83820000Y-124587000D02*
X83820000Y-123825000D01*
X81280000Y-124587000D02*
X81280000Y-123825000D01*
X99060000Y-130810000D02*
X99060000Y-130302000D01*
X96520000Y-130810000D02*
X96520000Y-130302000D01*
X93980000Y-130810000D02*
X93980000Y-130302000D01*
X91440000Y-130810000D02*
X91440000Y-130302000D01*
X88900000Y-130810000D02*
X88900000Y-130302000D01*
X86360000Y-130810000D02*
X86360000Y-130302000D01*
X83820000Y-130810000D02*
X83820000Y-130302000D01*
X81280000Y-130810000D02*
X81280000Y-130302000D01*
D11*
X98272571Y-123374904D02*
X98329714Y-123398714D01*
X98329714Y-123398714D02*
X98348761Y-123422523D01*
X98348761Y-123422523D02*
X98367809Y-123470142D01*
X98367809Y-123470142D02*
X98367809Y-123541571D01*
X98367809Y-123541571D02*
X98348761Y-123589190D01*
X98348761Y-123589190D02*
X98329714Y-123613000D01*
X98329714Y-123613000D02*
X98291619Y-123636809D01*
X98291619Y-123636809D02*
X98139238Y-123636809D01*
X98139238Y-123636809D02*
X98139238Y-123136809D01*
X98139238Y-123136809D02*
X98272571Y-123136809D01*
X98272571Y-123136809D02*
X98310666Y-123160619D01*
X98310666Y-123160619D02*
X98329714Y-123184428D01*
X98329714Y-123184428D02*
X98348761Y-123232047D01*
X98348761Y-123232047D02*
X98348761Y-123279666D01*
X98348761Y-123279666D02*
X98329714Y-123327285D01*
X98329714Y-123327285D02*
X98310666Y-123351095D01*
X98310666Y-123351095D02*
X98272571Y-123374904D01*
X98272571Y-123374904D02*
X98139238Y-123374904D01*
X98444000Y-123684428D02*
X98748761Y-123684428D01*
X98920190Y-123136809D02*
X98996381Y-123136809D01*
X98996381Y-123136809D02*
X99034476Y-123160619D01*
X99034476Y-123160619D02*
X99072571Y-123208238D01*
X99072571Y-123208238D02*
X99091619Y-123303476D01*
X99091619Y-123303476D02*
X99091619Y-123470142D01*
X99091619Y-123470142D02*
X99072571Y-123565380D01*
X99072571Y-123565380D02*
X99034476Y-123613000D01*
X99034476Y-123613000D02*
X98996381Y-123636809D01*
X98996381Y-123636809D02*
X98920190Y-123636809D01*
X98920190Y-123636809D02*
X98882095Y-123613000D01*
X98882095Y-123613000D02*
X98844000Y-123565380D01*
X98844000Y-123565380D02*
X98824952Y-123470142D01*
X98824952Y-123470142D02*
X98824952Y-123303476D01*
X98824952Y-123303476D02*
X98844000Y-123208238D01*
X98844000Y-123208238D02*
X98882095Y-123160619D01*
X98882095Y-123160619D02*
X98920190Y-123136809D01*
X99263048Y-123136809D02*
X99263048Y-123541571D01*
X99263048Y-123541571D02*
X99282095Y-123589190D01*
X99282095Y-123589190D02*
X99301143Y-123613000D01*
X99301143Y-123613000D02*
X99339238Y-123636809D01*
X99339238Y-123636809D02*
X99415429Y-123636809D01*
X99415429Y-123636809D02*
X99453524Y-123613000D01*
X99453524Y-123613000D02*
X99472571Y-123589190D01*
X99472571Y-123589190D02*
X99491619Y-123541571D01*
X99491619Y-123541571D02*
X99491619Y-123136809D01*
X99624953Y-123136809D02*
X99853524Y-123136809D01*
X99739238Y-123636809D02*
X99739238Y-123136809D01*
X99891620Y-123684428D02*
X100196381Y-123684428D01*
X100482096Y-123636809D02*
X100291620Y-123636809D01*
X100291620Y-123636809D02*
X100291620Y-123136809D01*
X100520192Y-123684428D02*
X100824953Y-123684428D01*
X100920192Y-123636809D02*
X100920192Y-123136809D01*
X95478571Y-123374904D02*
X95535714Y-123398714D01*
X95535714Y-123398714D02*
X95554761Y-123422523D01*
X95554761Y-123422523D02*
X95573809Y-123470142D01*
X95573809Y-123470142D02*
X95573809Y-123541571D01*
X95573809Y-123541571D02*
X95554761Y-123589190D01*
X95554761Y-123589190D02*
X95535714Y-123613000D01*
X95535714Y-123613000D02*
X95497619Y-123636809D01*
X95497619Y-123636809D02*
X95345238Y-123636809D01*
X95345238Y-123636809D02*
X95345238Y-123136809D01*
X95345238Y-123136809D02*
X95478571Y-123136809D01*
X95478571Y-123136809D02*
X95516666Y-123160619D01*
X95516666Y-123160619D02*
X95535714Y-123184428D01*
X95535714Y-123184428D02*
X95554761Y-123232047D01*
X95554761Y-123232047D02*
X95554761Y-123279666D01*
X95554761Y-123279666D02*
X95535714Y-123327285D01*
X95535714Y-123327285D02*
X95516666Y-123351095D01*
X95516666Y-123351095D02*
X95478571Y-123374904D01*
X95478571Y-123374904D02*
X95345238Y-123374904D01*
X95650000Y-123684428D02*
X95954761Y-123684428D01*
X96126190Y-123136809D02*
X96202381Y-123136809D01*
X96202381Y-123136809D02*
X96240476Y-123160619D01*
X96240476Y-123160619D02*
X96278571Y-123208238D01*
X96278571Y-123208238D02*
X96297619Y-123303476D01*
X96297619Y-123303476D02*
X96297619Y-123470142D01*
X96297619Y-123470142D02*
X96278571Y-123565380D01*
X96278571Y-123565380D02*
X96240476Y-123613000D01*
X96240476Y-123613000D02*
X96202381Y-123636809D01*
X96202381Y-123636809D02*
X96126190Y-123636809D01*
X96126190Y-123636809D02*
X96088095Y-123613000D01*
X96088095Y-123613000D02*
X96050000Y-123565380D01*
X96050000Y-123565380D02*
X96030952Y-123470142D01*
X96030952Y-123470142D02*
X96030952Y-123303476D01*
X96030952Y-123303476D02*
X96050000Y-123208238D01*
X96050000Y-123208238D02*
X96088095Y-123160619D01*
X96088095Y-123160619D02*
X96126190Y-123136809D01*
X96469048Y-123136809D02*
X96469048Y-123541571D01*
X96469048Y-123541571D02*
X96488095Y-123589190D01*
X96488095Y-123589190D02*
X96507143Y-123613000D01*
X96507143Y-123613000D02*
X96545238Y-123636809D01*
X96545238Y-123636809D02*
X96621429Y-123636809D01*
X96621429Y-123636809D02*
X96659524Y-123613000D01*
X96659524Y-123613000D02*
X96678571Y-123589190D01*
X96678571Y-123589190D02*
X96697619Y-123541571D01*
X96697619Y-123541571D02*
X96697619Y-123136809D01*
X96830953Y-123136809D02*
X97059524Y-123136809D01*
X96945238Y-123636809D02*
X96945238Y-123136809D01*
X97097620Y-123684428D02*
X97402381Y-123684428D01*
X97688096Y-123636809D02*
X97497620Y-123636809D01*
X97497620Y-123636809D02*
X97497620Y-123136809D01*
X85928190Y-123613000D02*
X85985333Y-123636809D01*
X85985333Y-123636809D02*
X86080571Y-123636809D01*
X86080571Y-123636809D02*
X86118666Y-123613000D01*
X86118666Y-123613000D02*
X86137714Y-123589190D01*
X86137714Y-123589190D02*
X86156761Y-123541571D01*
X86156761Y-123541571D02*
X86156761Y-123493952D01*
X86156761Y-123493952D02*
X86137714Y-123446333D01*
X86137714Y-123446333D02*
X86118666Y-123422523D01*
X86118666Y-123422523D02*
X86080571Y-123398714D01*
X86080571Y-123398714D02*
X86004380Y-123374904D01*
X86004380Y-123374904D02*
X85966285Y-123351095D01*
X85966285Y-123351095D02*
X85947238Y-123327285D01*
X85947238Y-123327285D02*
X85928190Y-123279666D01*
X85928190Y-123279666D02*
X85928190Y-123232047D01*
X85928190Y-123232047D02*
X85947238Y-123184428D01*
X85947238Y-123184428D02*
X85966285Y-123160619D01*
X85966285Y-123160619D02*
X86004380Y-123136809D01*
X86004380Y-123136809D02*
X86099619Y-123136809D01*
X86099619Y-123136809D02*
X86156761Y-123160619D01*
X86556761Y-123589190D02*
X86537713Y-123613000D01*
X86537713Y-123613000D02*
X86480571Y-123636809D01*
X86480571Y-123636809D02*
X86442475Y-123636809D01*
X86442475Y-123636809D02*
X86385332Y-123613000D01*
X86385332Y-123613000D02*
X86347237Y-123565380D01*
X86347237Y-123565380D02*
X86328190Y-123517761D01*
X86328190Y-123517761D02*
X86309142Y-123422523D01*
X86309142Y-123422523D02*
X86309142Y-123351095D01*
X86309142Y-123351095D02*
X86328190Y-123255857D01*
X86328190Y-123255857D02*
X86347237Y-123208238D01*
X86347237Y-123208238D02*
X86385332Y-123160619D01*
X86385332Y-123160619D02*
X86442475Y-123136809D01*
X86442475Y-123136809D02*
X86480571Y-123136809D01*
X86480571Y-123136809D02*
X86537713Y-123160619D01*
X86537713Y-123160619D02*
X86556761Y-123184428D01*
X86918666Y-123636809D02*
X86728190Y-123636809D01*
X86728190Y-123636809D02*
X86728190Y-123136809D01*
X93192571Y-123374904D02*
X93249714Y-123398714D01*
X93249714Y-123398714D02*
X93268761Y-123422523D01*
X93268761Y-123422523D02*
X93287809Y-123470142D01*
X93287809Y-123470142D02*
X93287809Y-123541571D01*
X93287809Y-123541571D02*
X93268761Y-123589190D01*
X93268761Y-123589190D02*
X93249714Y-123613000D01*
X93249714Y-123613000D02*
X93211619Y-123636809D01*
X93211619Y-123636809D02*
X93059238Y-123636809D01*
X93059238Y-123636809D02*
X93059238Y-123136809D01*
X93059238Y-123136809D02*
X93192571Y-123136809D01*
X93192571Y-123136809D02*
X93230666Y-123160619D01*
X93230666Y-123160619D02*
X93249714Y-123184428D01*
X93249714Y-123184428D02*
X93268761Y-123232047D01*
X93268761Y-123232047D02*
X93268761Y-123279666D01*
X93268761Y-123279666D02*
X93249714Y-123327285D01*
X93249714Y-123327285D02*
X93230666Y-123351095D01*
X93230666Y-123351095D02*
X93192571Y-123374904D01*
X93192571Y-123374904D02*
X93059238Y-123374904D01*
X93364000Y-123684428D02*
X93668761Y-123684428D01*
X93764000Y-123636809D02*
X93764000Y-123136809D01*
X93954476Y-123636809D02*
X93954476Y-123136809D01*
X93954476Y-123136809D02*
X94183047Y-123636809D01*
X94183047Y-123636809D02*
X94183047Y-123136809D01*
X94278286Y-123684428D02*
X94583047Y-123684428D01*
X94868762Y-123636809D02*
X94678286Y-123636809D01*
X94678286Y-123636809D02*
X94678286Y-123136809D01*
X87979238Y-123636809D02*
X87979238Y-123136809D01*
X87979238Y-123136809D02*
X88131619Y-123136809D01*
X88131619Y-123136809D02*
X88169714Y-123160619D01*
X88169714Y-123160619D02*
X88188761Y-123184428D01*
X88188761Y-123184428D02*
X88207809Y-123232047D01*
X88207809Y-123232047D02*
X88207809Y-123303476D01*
X88207809Y-123303476D02*
X88188761Y-123351095D01*
X88188761Y-123351095D02*
X88169714Y-123374904D01*
X88169714Y-123374904D02*
X88131619Y-123398714D01*
X88131619Y-123398714D02*
X87979238Y-123398714D01*
X88379238Y-123636809D02*
X88379238Y-123136809D01*
X88379238Y-123136809D02*
X88512571Y-123493952D01*
X88512571Y-123493952D02*
X88645904Y-123136809D01*
X88645904Y-123136809D02*
X88645904Y-123636809D01*
X88741143Y-123684428D02*
X89045904Y-123684428D01*
X89141143Y-123636809D02*
X89141143Y-123136809D01*
X89331619Y-123636809D02*
X89331619Y-123136809D01*
X89331619Y-123136809D02*
X89560190Y-123636809D01*
X89560190Y-123636809D02*
X89560190Y-123136809D01*
X80613238Y-123446333D02*
X80918000Y-123446333D01*
X81127523Y-123636809D02*
X81203714Y-123636809D01*
X81203714Y-123636809D02*
X81241809Y-123613000D01*
X81241809Y-123613000D02*
X81260857Y-123589190D01*
X81260857Y-123589190D02*
X81298952Y-123517761D01*
X81298952Y-123517761D02*
X81317999Y-123422523D01*
X81317999Y-123422523D02*
X81317999Y-123232047D01*
X81317999Y-123232047D02*
X81298952Y-123184428D01*
X81298952Y-123184428D02*
X81279904Y-123160619D01*
X81279904Y-123160619D02*
X81241809Y-123136809D01*
X81241809Y-123136809D02*
X81165618Y-123136809D01*
X81165618Y-123136809D02*
X81127523Y-123160619D01*
X81127523Y-123160619D02*
X81108476Y-123184428D01*
X81108476Y-123184428D02*
X81089428Y-123232047D01*
X81089428Y-123232047D02*
X81089428Y-123351095D01*
X81089428Y-123351095D02*
X81108476Y-123398714D01*
X81108476Y-123398714D02*
X81127523Y-123422523D01*
X81127523Y-123422523D02*
X81165618Y-123446333D01*
X81165618Y-123446333D02*
X81241809Y-123446333D01*
X81241809Y-123446333D02*
X81279904Y-123422523D01*
X81279904Y-123422523D02*
X81298952Y-123398714D01*
X81298952Y-123398714D02*
X81317999Y-123351095D01*
X81451332Y-123303476D02*
X81546570Y-123636809D01*
X81546570Y-123636809D02*
X81641809Y-123303476D01*
X83388190Y-123613000D02*
X83445333Y-123636809D01*
X83445333Y-123636809D02*
X83540571Y-123636809D01*
X83540571Y-123636809D02*
X83578666Y-123613000D01*
X83578666Y-123613000D02*
X83597714Y-123589190D01*
X83597714Y-123589190D02*
X83616761Y-123541571D01*
X83616761Y-123541571D02*
X83616761Y-123493952D01*
X83616761Y-123493952D02*
X83597714Y-123446333D01*
X83597714Y-123446333D02*
X83578666Y-123422523D01*
X83578666Y-123422523D02*
X83540571Y-123398714D01*
X83540571Y-123398714D02*
X83464380Y-123374904D01*
X83464380Y-123374904D02*
X83426285Y-123351095D01*
X83426285Y-123351095D02*
X83407238Y-123327285D01*
X83407238Y-123327285D02*
X83388190Y-123279666D01*
X83388190Y-123279666D02*
X83388190Y-123232047D01*
X83388190Y-123232047D02*
X83407238Y-123184428D01*
X83407238Y-123184428D02*
X83426285Y-123160619D01*
X83426285Y-123160619D02*
X83464380Y-123136809D01*
X83464380Y-123136809D02*
X83559619Y-123136809D01*
X83559619Y-123136809D02*
X83616761Y-123160619D01*
X83788190Y-123636809D02*
X83788190Y-123136809D01*
X83788190Y-123136809D02*
X83883428Y-123136809D01*
X83883428Y-123136809D02*
X83940571Y-123160619D01*
X83940571Y-123160619D02*
X83978666Y-123208238D01*
X83978666Y-123208238D02*
X83997713Y-123255857D01*
X83997713Y-123255857D02*
X84016761Y-123351095D01*
X84016761Y-123351095D02*
X84016761Y-123422523D01*
X84016761Y-123422523D02*
X83997713Y-123517761D01*
X83997713Y-123517761D02*
X83978666Y-123565380D01*
X83978666Y-123565380D02*
X83940571Y-123613000D01*
X83940571Y-123613000D02*
X83883428Y-123636809D01*
X83883428Y-123636809D02*
X83788190Y-123636809D01*
X84169142Y-123493952D02*
X84359618Y-123493952D01*
X84131047Y-123636809D02*
X84264380Y-123136809D01*
X84264380Y-123136809D02*
X84397713Y-123636809D01*
X90519238Y-123636809D02*
X90519238Y-123136809D01*
X90519238Y-123136809D02*
X90671619Y-123136809D01*
X90671619Y-123136809D02*
X90709714Y-123160619D01*
X90709714Y-123160619D02*
X90728761Y-123184428D01*
X90728761Y-123184428D02*
X90747809Y-123232047D01*
X90747809Y-123232047D02*
X90747809Y-123303476D01*
X90747809Y-123303476D02*
X90728761Y-123351095D01*
X90728761Y-123351095D02*
X90709714Y-123374904D01*
X90709714Y-123374904D02*
X90671619Y-123398714D01*
X90671619Y-123398714D02*
X90519238Y-123398714D01*
X90919238Y-123636809D02*
X90919238Y-123136809D01*
X90919238Y-123136809D02*
X91052571Y-123493952D01*
X91052571Y-123493952D02*
X91185904Y-123136809D01*
X91185904Y-123136809D02*
X91185904Y-123636809D01*
X91281143Y-123684428D02*
X91585904Y-123684428D01*
X91757333Y-123136809D02*
X91833524Y-123136809D01*
X91833524Y-123136809D02*
X91871619Y-123160619D01*
X91871619Y-123160619D02*
X91909714Y-123208238D01*
X91909714Y-123208238D02*
X91928762Y-123303476D01*
X91928762Y-123303476D02*
X91928762Y-123470142D01*
X91928762Y-123470142D02*
X91909714Y-123565380D01*
X91909714Y-123565380D02*
X91871619Y-123613000D01*
X91871619Y-123613000D02*
X91833524Y-123636809D01*
X91833524Y-123636809D02*
X91757333Y-123636809D01*
X91757333Y-123636809D02*
X91719238Y-123613000D01*
X91719238Y-123613000D02*
X91681143Y-123565380D01*
X91681143Y-123565380D02*
X91662095Y-123470142D01*
X91662095Y-123470142D02*
X91662095Y-123303476D01*
X91662095Y-123303476D02*
X91681143Y-123208238D01*
X91681143Y-123208238D02*
X91719238Y-123160619D01*
X91719238Y-123160619D02*
X91757333Y-123136809D01*
X92100191Y-123136809D02*
X92100191Y-123541571D01*
X92100191Y-123541571D02*
X92119238Y-123589190D01*
X92119238Y-123589190D02*
X92138286Y-123613000D01*
X92138286Y-123613000D02*
X92176381Y-123636809D01*
X92176381Y-123636809D02*
X92252572Y-123636809D01*
X92252572Y-123636809D02*
X92290667Y-123613000D01*
X92290667Y-123613000D02*
X92309714Y-123589190D01*
X92309714Y-123589190D02*
X92328762Y-123541571D01*
X92328762Y-123541571D02*
X92328762Y-123136809D01*
X92462096Y-123136809D02*
X92690667Y-123136809D01*
X92576381Y-123636809D02*
X92576381Y-123136809D01*
X99155238Y-131510809D02*
X99155238Y-131010809D01*
X99155238Y-131010809D02*
X99383809Y-131510809D01*
X99383809Y-131510809D02*
X99383809Y-131010809D01*
X99802857Y-131463190D02*
X99783809Y-131487000D01*
X99783809Y-131487000D02*
X99726667Y-131510809D01*
X99726667Y-131510809D02*
X99688571Y-131510809D01*
X99688571Y-131510809D02*
X99631428Y-131487000D01*
X99631428Y-131487000D02*
X99593333Y-131439380D01*
X99593333Y-131439380D02*
X99574286Y-131391761D01*
X99574286Y-131391761D02*
X99555238Y-131296523D01*
X99555238Y-131296523D02*
X99555238Y-131225095D01*
X99555238Y-131225095D02*
X99574286Y-131129857D01*
X99574286Y-131129857D02*
X99593333Y-131082238D01*
X99593333Y-131082238D02*
X99631428Y-131034619D01*
X99631428Y-131034619D02*
X99688571Y-131010809D01*
X99688571Y-131010809D02*
X99726667Y-131010809D01*
X99726667Y-131010809D02*
X99783809Y-131034619D01*
X99783809Y-131034619D02*
X99802857Y-131058428D01*
X95732571Y-131248904D02*
X95789714Y-131272714D01*
X95789714Y-131272714D02*
X95808761Y-131296523D01*
X95808761Y-131296523D02*
X95827809Y-131344142D01*
X95827809Y-131344142D02*
X95827809Y-131415571D01*
X95827809Y-131415571D02*
X95808761Y-131463190D01*
X95808761Y-131463190D02*
X95789714Y-131487000D01*
X95789714Y-131487000D02*
X95751619Y-131510809D01*
X95751619Y-131510809D02*
X95599238Y-131510809D01*
X95599238Y-131510809D02*
X95599238Y-131010809D01*
X95599238Y-131010809D02*
X95732571Y-131010809D01*
X95732571Y-131010809D02*
X95770666Y-131034619D01*
X95770666Y-131034619D02*
X95789714Y-131058428D01*
X95789714Y-131058428D02*
X95808761Y-131106047D01*
X95808761Y-131106047D02*
X95808761Y-131153666D01*
X95808761Y-131153666D02*
X95789714Y-131201285D01*
X95789714Y-131201285D02*
X95770666Y-131225095D01*
X95770666Y-131225095D02*
X95732571Y-131248904D01*
X95732571Y-131248904D02*
X95599238Y-131248904D01*
X95904000Y-131558428D02*
X96208761Y-131558428D01*
X96380190Y-131010809D02*
X96456381Y-131010809D01*
X96456381Y-131010809D02*
X96494476Y-131034619D01*
X96494476Y-131034619D02*
X96532571Y-131082238D01*
X96532571Y-131082238D02*
X96551619Y-131177476D01*
X96551619Y-131177476D02*
X96551619Y-131344142D01*
X96551619Y-131344142D02*
X96532571Y-131439380D01*
X96532571Y-131439380D02*
X96494476Y-131487000D01*
X96494476Y-131487000D02*
X96456381Y-131510809D01*
X96456381Y-131510809D02*
X96380190Y-131510809D01*
X96380190Y-131510809D02*
X96342095Y-131487000D01*
X96342095Y-131487000D02*
X96304000Y-131439380D01*
X96304000Y-131439380D02*
X96284952Y-131344142D01*
X96284952Y-131344142D02*
X96284952Y-131177476D01*
X96284952Y-131177476D02*
X96304000Y-131082238D01*
X96304000Y-131082238D02*
X96342095Y-131034619D01*
X96342095Y-131034619D02*
X96380190Y-131010809D01*
X96723048Y-131010809D02*
X96723048Y-131415571D01*
X96723048Y-131415571D02*
X96742095Y-131463190D01*
X96742095Y-131463190D02*
X96761143Y-131487000D01*
X96761143Y-131487000D02*
X96799238Y-131510809D01*
X96799238Y-131510809D02*
X96875429Y-131510809D01*
X96875429Y-131510809D02*
X96913524Y-131487000D01*
X96913524Y-131487000D02*
X96932571Y-131463190D01*
X96932571Y-131463190D02*
X96951619Y-131415571D01*
X96951619Y-131415571D02*
X96951619Y-131010809D01*
X97084953Y-131010809D02*
X97313524Y-131010809D01*
X97199238Y-131510809D02*
X97199238Y-131010809D01*
X97351620Y-131558428D02*
X97656381Y-131558428D01*
X97980191Y-131510809D02*
X97846858Y-131272714D01*
X97751620Y-131510809D02*
X97751620Y-131010809D01*
X97751620Y-131010809D02*
X97904001Y-131010809D01*
X97904001Y-131010809D02*
X97942096Y-131034619D01*
X97942096Y-131034619D02*
X97961143Y-131058428D01*
X97961143Y-131058428D02*
X97980191Y-131106047D01*
X97980191Y-131106047D02*
X97980191Y-131177476D01*
X97980191Y-131177476D02*
X97961143Y-131225095D01*
X97961143Y-131225095D02*
X97942096Y-131248904D01*
X97942096Y-131248904D02*
X97904001Y-131272714D01*
X97904001Y-131272714D02*
X97751620Y-131272714D01*
X98056382Y-131558428D02*
X98361143Y-131558428D01*
X98456382Y-131510809D02*
X98456382Y-131010809D01*
X92938571Y-131248904D02*
X92995714Y-131272714D01*
X92995714Y-131272714D02*
X93014761Y-131296523D01*
X93014761Y-131296523D02*
X93033809Y-131344142D01*
X93033809Y-131344142D02*
X93033809Y-131415571D01*
X93033809Y-131415571D02*
X93014761Y-131463190D01*
X93014761Y-131463190D02*
X92995714Y-131487000D01*
X92995714Y-131487000D02*
X92957619Y-131510809D01*
X92957619Y-131510809D02*
X92805238Y-131510809D01*
X92805238Y-131510809D02*
X92805238Y-131010809D01*
X92805238Y-131010809D02*
X92938571Y-131010809D01*
X92938571Y-131010809D02*
X92976666Y-131034619D01*
X92976666Y-131034619D02*
X92995714Y-131058428D01*
X92995714Y-131058428D02*
X93014761Y-131106047D01*
X93014761Y-131106047D02*
X93014761Y-131153666D01*
X93014761Y-131153666D02*
X92995714Y-131201285D01*
X92995714Y-131201285D02*
X92976666Y-131225095D01*
X92976666Y-131225095D02*
X92938571Y-131248904D01*
X92938571Y-131248904D02*
X92805238Y-131248904D01*
X93110000Y-131558428D02*
X93414761Y-131558428D01*
X93586190Y-131010809D02*
X93662381Y-131010809D01*
X93662381Y-131010809D02*
X93700476Y-131034619D01*
X93700476Y-131034619D02*
X93738571Y-131082238D01*
X93738571Y-131082238D02*
X93757619Y-131177476D01*
X93757619Y-131177476D02*
X93757619Y-131344142D01*
X93757619Y-131344142D02*
X93738571Y-131439380D01*
X93738571Y-131439380D02*
X93700476Y-131487000D01*
X93700476Y-131487000D02*
X93662381Y-131510809D01*
X93662381Y-131510809D02*
X93586190Y-131510809D01*
X93586190Y-131510809D02*
X93548095Y-131487000D01*
X93548095Y-131487000D02*
X93510000Y-131439380D01*
X93510000Y-131439380D02*
X93490952Y-131344142D01*
X93490952Y-131344142D02*
X93490952Y-131177476D01*
X93490952Y-131177476D02*
X93510000Y-131082238D01*
X93510000Y-131082238D02*
X93548095Y-131034619D01*
X93548095Y-131034619D02*
X93586190Y-131010809D01*
X93929048Y-131010809D02*
X93929048Y-131415571D01*
X93929048Y-131415571D02*
X93948095Y-131463190D01*
X93948095Y-131463190D02*
X93967143Y-131487000D01*
X93967143Y-131487000D02*
X94005238Y-131510809D01*
X94005238Y-131510809D02*
X94081429Y-131510809D01*
X94081429Y-131510809D02*
X94119524Y-131487000D01*
X94119524Y-131487000D02*
X94138571Y-131463190D01*
X94138571Y-131463190D02*
X94157619Y-131415571D01*
X94157619Y-131415571D02*
X94157619Y-131010809D01*
X94290953Y-131010809D02*
X94519524Y-131010809D01*
X94405238Y-131510809D02*
X94405238Y-131010809D01*
X94557620Y-131558428D02*
X94862381Y-131558428D01*
X95186191Y-131510809D02*
X95052858Y-131272714D01*
X94957620Y-131510809D02*
X94957620Y-131010809D01*
X94957620Y-131010809D02*
X95110001Y-131010809D01*
X95110001Y-131010809D02*
X95148096Y-131034619D01*
X95148096Y-131034619D02*
X95167143Y-131058428D01*
X95167143Y-131058428D02*
X95186191Y-131106047D01*
X95186191Y-131106047D02*
X95186191Y-131177476D01*
X95186191Y-131177476D02*
X95167143Y-131225095D01*
X95167143Y-131225095D02*
X95148096Y-131248904D01*
X95148096Y-131248904D02*
X95110001Y-131272714D01*
X95110001Y-131272714D02*
X94957620Y-131272714D01*
X88487238Y-131510809D02*
X88487238Y-131010809D01*
X88487238Y-131010809D02*
X88639619Y-131010809D01*
X88639619Y-131010809D02*
X88677714Y-131034619D01*
X88677714Y-131034619D02*
X88696761Y-131058428D01*
X88696761Y-131058428D02*
X88715809Y-131106047D01*
X88715809Y-131106047D02*
X88715809Y-131177476D01*
X88715809Y-131177476D02*
X88696761Y-131225095D01*
X88696761Y-131225095D02*
X88677714Y-131248904D01*
X88677714Y-131248904D02*
X88639619Y-131272714D01*
X88639619Y-131272714D02*
X88487238Y-131272714D01*
X89115809Y-131510809D02*
X88982476Y-131272714D01*
X88887238Y-131510809D02*
X88887238Y-131010809D01*
X88887238Y-131010809D02*
X89039619Y-131010809D01*
X89039619Y-131010809D02*
X89077714Y-131034619D01*
X89077714Y-131034619D02*
X89096761Y-131058428D01*
X89096761Y-131058428D02*
X89115809Y-131106047D01*
X89115809Y-131106047D02*
X89115809Y-131177476D01*
X89115809Y-131177476D02*
X89096761Y-131225095D01*
X89096761Y-131225095D02*
X89077714Y-131248904D01*
X89077714Y-131248904D02*
X89039619Y-131272714D01*
X89039619Y-131272714D02*
X88887238Y-131272714D01*
X89496761Y-131510809D02*
X89268190Y-131510809D01*
X89382476Y-131510809D02*
X89382476Y-131010809D01*
X89382476Y-131010809D02*
X89344380Y-131082238D01*
X89344380Y-131082238D02*
X89306285Y-131129857D01*
X89306285Y-131129857D02*
X89268190Y-131153666D01*
X90652571Y-131248904D02*
X90709714Y-131272714D01*
X90709714Y-131272714D02*
X90728761Y-131296523D01*
X90728761Y-131296523D02*
X90747809Y-131344142D01*
X90747809Y-131344142D02*
X90747809Y-131415571D01*
X90747809Y-131415571D02*
X90728761Y-131463190D01*
X90728761Y-131463190D02*
X90709714Y-131487000D01*
X90709714Y-131487000D02*
X90671619Y-131510809D01*
X90671619Y-131510809D02*
X90519238Y-131510809D01*
X90519238Y-131510809D02*
X90519238Y-131010809D01*
X90519238Y-131010809D02*
X90652571Y-131010809D01*
X90652571Y-131010809D02*
X90690666Y-131034619D01*
X90690666Y-131034619D02*
X90709714Y-131058428D01*
X90709714Y-131058428D02*
X90728761Y-131106047D01*
X90728761Y-131106047D02*
X90728761Y-131153666D01*
X90728761Y-131153666D02*
X90709714Y-131201285D01*
X90709714Y-131201285D02*
X90690666Y-131225095D01*
X90690666Y-131225095D02*
X90652571Y-131248904D01*
X90652571Y-131248904D02*
X90519238Y-131248904D01*
X90824000Y-131558428D02*
X91128761Y-131558428D01*
X91224000Y-131510809D02*
X91224000Y-131010809D01*
X91414476Y-131510809D02*
X91414476Y-131010809D01*
X91414476Y-131010809D02*
X91643047Y-131510809D01*
X91643047Y-131510809D02*
X91643047Y-131010809D01*
X91738286Y-131558428D02*
X92043047Y-131558428D01*
X92366857Y-131510809D02*
X92233524Y-131272714D01*
X92138286Y-131510809D02*
X92138286Y-131010809D01*
X92138286Y-131010809D02*
X92290667Y-131010809D01*
X92290667Y-131010809D02*
X92328762Y-131034619D01*
X92328762Y-131034619D02*
X92347809Y-131058428D01*
X92347809Y-131058428D02*
X92366857Y-131106047D01*
X92366857Y-131106047D02*
X92366857Y-131177476D01*
X92366857Y-131177476D02*
X92347809Y-131225095D01*
X92347809Y-131225095D02*
X92328762Y-131248904D01*
X92328762Y-131248904D02*
X92290667Y-131272714D01*
X92290667Y-131272714D02*
X92138286Y-131272714D01*
X85947238Y-131510809D02*
X85947238Y-131010809D01*
X85947238Y-131010809D02*
X86099619Y-131010809D01*
X86099619Y-131010809D02*
X86137714Y-131034619D01*
X86137714Y-131034619D02*
X86156761Y-131058428D01*
X86156761Y-131058428D02*
X86175809Y-131106047D01*
X86175809Y-131106047D02*
X86175809Y-131177476D01*
X86175809Y-131177476D02*
X86156761Y-131225095D01*
X86156761Y-131225095D02*
X86137714Y-131248904D01*
X86137714Y-131248904D02*
X86099619Y-131272714D01*
X86099619Y-131272714D02*
X85947238Y-131272714D01*
X86328190Y-131487000D02*
X86385333Y-131510809D01*
X86385333Y-131510809D02*
X86480571Y-131510809D01*
X86480571Y-131510809D02*
X86518666Y-131487000D01*
X86518666Y-131487000D02*
X86537714Y-131463190D01*
X86537714Y-131463190D02*
X86556761Y-131415571D01*
X86556761Y-131415571D02*
X86556761Y-131367952D01*
X86556761Y-131367952D02*
X86537714Y-131320333D01*
X86537714Y-131320333D02*
X86518666Y-131296523D01*
X86518666Y-131296523D02*
X86480571Y-131272714D01*
X86480571Y-131272714D02*
X86404380Y-131248904D01*
X86404380Y-131248904D02*
X86366285Y-131225095D01*
X86366285Y-131225095D02*
X86347238Y-131201285D01*
X86347238Y-131201285D02*
X86328190Y-131153666D01*
X86328190Y-131153666D02*
X86328190Y-131106047D01*
X86328190Y-131106047D02*
X86347238Y-131058428D01*
X86347238Y-131058428D02*
X86366285Y-131034619D01*
X86366285Y-131034619D02*
X86404380Y-131010809D01*
X86404380Y-131010809D02*
X86499619Y-131010809D01*
X86499619Y-131010809D02*
X86556761Y-131034619D01*
X86937713Y-131510809D02*
X86709142Y-131510809D01*
X86823428Y-131510809D02*
X86823428Y-131010809D01*
X86823428Y-131010809D02*
X86785332Y-131082238D01*
X86785332Y-131082238D02*
X86747237Y-131129857D01*
X86747237Y-131129857D02*
X86709142Y-131153666D01*
X80867238Y-131320333D02*
X81172000Y-131320333D01*
X81019619Y-131510809D02*
X81019619Y-131129857D01*
X81381523Y-131510809D02*
X81457714Y-131510809D01*
X81457714Y-131510809D02*
X81495809Y-131487000D01*
X81495809Y-131487000D02*
X81514857Y-131463190D01*
X81514857Y-131463190D02*
X81552952Y-131391761D01*
X81552952Y-131391761D02*
X81571999Y-131296523D01*
X81571999Y-131296523D02*
X81571999Y-131106047D01*
X81571999Y-131106047D02*
X81552952Y-131058428D01*
X81552952Y-131058428D02*
X81533904Y-131034619D01*
X81533904Y-131034619D02*
X81495809Y-131010809D01*
X81495809Y-131010809D02*
X81419618Y-131010809D01*
X81419618Y-131010809D02*
X81381523Y-131034619D01*
X81381523Y-131034619D02*
X81362476Y-131058428D01*
X81362476Y-131058428D02*
X81343428Y-131106047D01*
X81343428Y-131106047D02*
X81343428Y-131225095D01*
X81343428Y-131225095D02*
X81362476Y-131272714D01*
X81362476Y-131272714D02*
X81381523Y-131296523D01*
X81381523Y-131296523D02*
X81419618Y-131320333D01*
X81419618Y-131320333D02*
X81495809Y-131320333D01*
X81495809Y-131320333D02*
X81533904Y-131296523D01*
X81533904Y-131296523D02*
X81552952Y-131272714D01*
X81552952Y-131272714D02*
X81571999Y-131225095D01*
X81705332Y-131177476D02*
X81800570Y-131510809D01*
X81800570Y-131510809D02*
X81895809Y-131177476D01*
X83616761Y-131034619D02*
X83578666Y-131010809D01*
X83578666Y-131010809D02*
X83521523Y-131010809D01*
X83521523Y-131010809D02*
X83464380Y-131034619D01*
X83464380Y-131034619D02*
X83426285Y-131082238D01*
X83426285Y-131082238D02*
X83407238Y-131129857D01*
X83407238Y-131129857D02*
X83388190Y-131225095D01*
X83388190Y-131225095D02*
X83388190Y-131296523D01*
X83388190Y-131296523D02*
X83407238Y-131391761D01*
X83407238Y-131391761D02*
X83426285Y-131439380D01*
X83426285Y-131439380D02*
X83464380Y-131487000D01*
X83464380Y-131487000D02*
X83521523Y-131510809D01*
X83521523Y-131510809D02*
X83559619Y-131510809D01*
X83559619Y-131510809D02*
X83616761Y-131487000D01*
X83616761Y-131487000D02*
X83635809Y-131463190D01*
X83635809Y-131463190D02*
X83635809Y-131296523D01*
X83635809Y-131296523D02*
X83559619Y-131296523D01*
X83807238Y-131510809D02*
X83807238Y-131010809D01*
X83807238Y-131010809D02*
X84035809Y-131510809D01*
X84035809Y-131510809D02*
X84035809Y-131010809D01*
X84226286Y-131510809D02*
X84226286Y-131010809D01*
X84226286Y-131010809D02*
X84321524Y-131010809D01*
X84321524Y-131010809D02*
X84378667Y-131034619D01*
X84378667Y-131034619D02*
X84416762Y-131082238D01*
X84416762Y-131082238D02*
X84435809Y-131129857D01*
X84435809Y-131129857D02*
X84454857Y-131225095D01*
X84454857Y-131225095D02*
X84454857Y-131296523D01*
X84454857Y-131296523D02*
X84435809Y-131391761D01*
X84435809Y-131391761D02*
X84416762Y-131439380D01*
X84416762Y-131439380D02*
X84378667Y-131487000D01*
X84378667Y-131487000D02*
X84321524Y-131510809D01*
X84321524Y-131510809D02*
X84226286Y-131510809D01*
D10*
X79412619Y-128841333D02*
X78936428Y-129174666D01*
X79412619Y-129412761D02*
X78412619Y-129412761D01*
X78412619Y-129412761D02*
X78412619Y-129031809D01*
X78412619Y-129031809D02*
X78460238Y-128936571D01*
X78460238Y-128936571D02*
X78507857Y-128888952D01*
X78507857Y-128888952D02*
X78603095Y-128841333D01*
X78603095Y-128841333D02*
X78745952Y-128841333D01*
X78745952Y-128841333D02*
X78841190Y-128888952D01*
X78841190Y-128888952D02*
X78888809Y-128936571D01*
X78888809Y-128936571D02*
X78936428Y-129031809D01*
X78936428Y-129031809D02*
X78936428Y-129412761D01*
X78888809Y-128412761D02*
X78888809Y-128079428D01*
X79412619Y-127936571D02*
X79412619Y-128412761D01*
X79412619Y-128412761D02*
X78412619Y-128412761D01*
X78412619Y-128412761D02*
X78412619Y-127936571D01*
X78888809Y-127174666D02*
X78888809Y-127507999D01*
X79412619Y-127507999D02*
X78412619Y-127507999D01*
X78412619Y-127507999D02*
X78412619Y-127031809D01*
X78412619Y-126507999D02*
X78650714Y-126507999D01*
X78555476Y-126746094D02*
X78650714Y-126507999D01*
X78650714Y-126507999D02*
X78555476Y-126269904D01*
X78841190Y-126650856D02*
X78650714Y-126507999D01*
X78650714Y-126507999D02*
X78841190Y-126365142D01*
X78412619Y-125746094D02*
X78650714Y-125746094D01*
X78555476Y-125984189D02*
X78650714Y-125746094D01*
X78650714Y-125746094D02*
X78555476Y-125507999D01*
X78841190Y-125888951D02*
X78650714Y-125746094D01*
X78650714Y-125746094D02*
X78841190Y-125603237D01*
X82514381Y-104602619D02*
X82514381Y-103602619D01*
X82514381Y-103602619D02*
X82895333Y-103602619D01*
X82895333Y-103602619D02*
X82990571Y-103650238D01*
X82990571Y-103650238D02*
X83038190Y-103697857D01*
X83038190Y-103697857D02*
X83085809Y-103793095D01*
X83085809Y-103793095D02*
X83085809Y-103935952D01*
X83085809Y-103935952D02*
X83038190Y-104031190D01*
X83038190Y-104031190D02*
X82990571Y-104078809D01*
X82990571Y-104078809D02*
X82895333Y-104126428D01*
X82895333Y-104126428D02*
X82514381Y-104126428D01*
X83371524Y-103602619D02*
X83942952Y-103602619D01*
X83657238Y-104602619D02*
X83657238Y-103602619D01*
X84228667Y-103697857D02*
X84276286Y-103650238D01*
X84276286Y-103650238D02*
X84371524Y-103602619D01*
X84371524Y-103602619D02*
X84609619Y-103602619D01*
X84609619Y-103602619D02*
X84704857Y-103650238D01*
X84704857Y-103650238D02*
X84752476Y-103697857D01*
X84752476Y-103697857D02*
X84800095Y-103793095D01*
X84800095Y-103793095D02*
X84800095Y-103888333D01*
X84800095Y-103888333D02*
X84752476Y-104031190D01*
X84752476Y-104031190D02*
X84181048Y-104602619D01*
X84181048Y-104602619D02*
X84800095Y-104602619D01*
X85181048Y-103697857D02*
X85228667Y-103650238D01*
X85228667Y-103650238D02*
X85323905Y-103602619D01*
X85323905Y-103602619D02*
X85562000Y-103602619D01*
X85562000Y-103602619D02*
X85657238Y-103650238D01*
X85657238Y-103650238D02*
X85704857Y-103697857D01*
X85704857Y-103697857D02*
X85752476Y-103793095D01*
X85752476Y-103793095D02*
X85752476Y-103888333D01*
X85752476Y-103888333D02*
X85704857Y-104031190D01*
X85704857Y-104031190D02*
X85133429Y-104602619D01*
X85133429Y-104602619D02*
X85752476Y-104602619D01*
X86657238Y-103602619D02*
X86181048Y-103602619D01*
X86181048Y-103602619D02*
X86133429Y-104078809D01*
X86133429Y-104078809D02*
X86181048Y-104031190D01*
X86181048Y-104031190D02*
X86276286Y-103983571D01*
X86276286Y-103983571D02*
X86514381Y-103983571D01*
X86514381Y-103983571D02*
X86609619Y-104031190D01*
X86609619Y-104031190D02*
X86657238Y-104078809D01*
X86657238Y-104078809D02*
X86704857Y-104174047D01*
X86704857Y-104174047D02*
X86704857Y-104412142D01*
X86704857Y-104412142D02*
X86657238Y-104507380D01*
X86657238Y-104507380D02*
X86609619Y-104555000D01*
X86609619Y-104555000D02*
X86514381Y-104602619D01*
X86514381Y-104602619D02*
X86276286Y-104602619D01*
X86276286Y-104602619D02*
X86181048Y-104555000D01*
X86181048Y-104555000D02*
X86133429Y-104507380D01*
X87276286Y-104031190D02*
X87181048Y-103983571D01*
X87181048Y-103983571D02*
X87133429Y-103935952D01*
X87133429Y-103935952D02*
X87085810Y-103840714D01*
X87085810Y-103840714D02*
X87085810Y-103793095D01*
X87085810Y-103793095D02*
X87133429Y-103697857D01*
X87133429Y-103697857D02*
X87181048Y-103650238D01*
X87181048Y-103650238D02*
X87276286Y-103602619D01*
X87276286Y-103602619D02*
X87466762Y-103602619D01*
X87466762Y-103602619D02*
X87562000Y-103650238D01*
X87562000Y-103650238D02*
X87609619Y-103697857D01*
X87609619Y-103697857D02*
X87657238Y-103793095D01*
X87657238Y-103793095D02*
X87657238Y-103840714D01*
X87657238Y-103840714D02*
X87609619Y-103935952D01*
X87609619Y-103935952D02*
X87562000Y-103983571D01*
X87562000Y-103983571D02*
X87466762Y-104031190D01*
X87466762Y-104031190D02*
X87276286Y-104031190D01*
X87276286Y-104031190D02*
X87181048Y-104078809D01*
X87181048Y-104078809D02*
X87133429Y-104126428D01*
X87133429Y-104126428D02*
X87085810Y-104221666D01*
X87085810Y-104221666D02*
X87085810Y-104412142D01*
X87085810Y-104412142D02*
X87133429Y-104507380D01*
X87133429Y-104507380D02*
X87181048Y-104555000D01*
X87181048Y-104555000D02*
X87276286Y-104602619D01*
X87276286Y-104602619D02*
X87466762Y-104602619D01*
X87466762Y-104602619D02*
X87562000Y-104555000D01*
X87562000Y-104555000D02*
X87609619Y-104507380D01*
X87609619Y-104507380D02*
X87657238Y-104412142D01*
X87657238Y-104412142D02*
X87657238Y-104221666D01*
X87657238Y-104221666D02*
X87609619Y-104126428D01*
X87609619Y-104126428D02*
X87562000Y-104078809D01*
X87562000Y-104078809D02*
X87466762Y-104031190D01*
X114778619Y-107797285D02*
X114778619Y-107225857D01*
X115778619Y-107511571D02*
X114778619Y-107511571D01*
X115778619Y-106416333D02*
X115778619Y-106892523D01*
X115778619Y-106892523D02*
X114778619Y-106892523D01*
X114778619Y-105892523D02*
X114778619Y-105797285D01*
X114778619Y-105797285D02*
X114826238Y-105702047D01*
X114826238Y-105702047D02*
X114873857Y-105654428D01*
X114873857Y-105654428D02*
X114969095Y-105606809D01*
X114969095Y-105606809D02*
X115159571Y-105559190D01*
X115159571Y-105559190D02*
X115397666Y-105559190D01*
X115397666Y-105559190D02*
X115588142Y-105606809D01*
X115588142Y-105606809D02*
X115683380Y-105654428D01*
X115683380Y-105654428D02*
X115731000Y-105702047D01*
X115731000Y-105702047D02*
X115778619Y-105797285D01*
X115778619Y-105797285D02*
X115778619Y-105892523D01*
X115778619Y-105892523D02*
X115731000Y-105987761D01*
X115731000Y-105987761D02*
X115683380Y-106035380D01*
X115683380Y-106035380D02*
X115588142Y-106082999D01*
X115588142Y-106082999D02*
X115397666Y-106130618D01*
X115397666Y-106130618D02*
X115159571Y-106130618D01*
X115159571Y-106130618D02*
X114969095Y-106082999D01*
X114969095Y-106082999D02*
X114873857Y-106035380D01*
X114873857Y-106035380D02*
X114826238Y-105987761D01*
X114826238Y-105987761D02*
X114778619Y-105892523D01*
X114778619Y-105225856D02*
X114778619Y-104559190D01*
X114778619Y-104559190D02*
X115778619Y-104987761D01*
X115111952Y-103749666D02*
X115778619Y-103749666D01*
X114731000Y-103987761D02*
X115445285Y-104225856D01*
X115445285Y-104225856D02*
X115445285Y-103606809D01*
X115397666Y-103225856D02*
X115397666Y-102463952D01*
X114873857Y-102035380D02*
X114826238Y-101987761D01*
X114826238Y-101987761D02*
X114778619Y-101892523D01*
X114778619Y-101892523D02*
X114778619Y-101654428D01*
X114778619Y-101654428D02*
X114826238Y-101559190D01*
X114826238Y-101559190D02*
X114873857Y-101511571D01*
X114873857Y-101511571D02*
X114969095Y-101463952D01*
X114969095Y-101463952D02*
X115064333Y-101463952D01*
X115064333Y-101463952D02*
X115207190Y-101511571D01*
X115207190Y-101511571D02*
X115778619Y-102082999D01*
X115778619Y-102082999D02*
X115778619Y-101463952D01*
X65756619Y-107354285D02*
X65756619Y-106782857D01*
X66756619Y-107068571D02*
X65756619Y-107068571D01*
X66756619Y-105973333D02*
X66756619Y-106449523D01*
X66756619Y-106449523D02*
X65756619Y-106449523D01*
X65756619Y-105449523D02*
X65756619Y-105354285D01*
X65756619Y-105354285D02*
X65804238Y-105259047D01*
X65804238Y-105259047D02*
X65851857Y-105211428D01*
X65851857Y-105211428D02*
X65947095Y-105163809D01*
X65947095Y-105163809D02*
X66137571Y-105116190D01*
X66137571Y-105116190D02*
X66375666Y-105116190D01*
X66375666Y-105116190D02*
X66566142Y-105163809D01*
X66566142Y-105163809D02*
X66661380Y-105211428D01*
X66661380Y-105211428D02*
X66709000Y-105259047D01*
X66709000Y-105259047D02*
X66756619Y-105354285D01*
X66756619Y-105354285D02*
X66756619Y-105449523D01*
X66756619Y-105449523D02*
X66709000Y-105544761D01*
X66709000Y-105544761D02*
X66661380Y-105592380D01*
X66661380Y-105592380D02*
X66566142Y-105639999D01*
X66566142Y-105639999D02*
X66375666Y-105687618D01*
X66375666Y-105687618D02*
X66137571Y-105687618D01*
X66137571Y-105687618D02*
X65947095Y-105639999D01*
X65947095Y-105639999D02*
X65851857Y-105592380D01*
X65851857Y-105592380D02*
X65804238Y-105544761D01*
X65804238Y-105544761D02*
X65756619Y-105449523D01*
X65756619Y-104782856D02*
X65756619Y-104116190D01*
X65756619Y-104116190D02*
X66756619Y-104544761D01*
X66089952Y-103306666D02*
X66756619Y-103306666D01*
X65709000Y-103544761D02*
X66423285Y-103782856D01*
X66423285Y-103782856D02*
X66423285Y-103163809D01*
X66375666Y-102782856D02*
X66375666Y-102020952D01*
X66756619Y-101020952D02*
X66756619Y-101592380D01*
X66756619Y-101306666D02*
X65756619Y-101306666D01*
X65756619Y-101306666D02*
X65899476Y-101401904D01*
X65899476Y-101401904D02*
X65994714Y-101497142D01*
X65994714Y-101497142D02*
X66042333Y-101592380D01*
X95838619Y-100615357D02*
X95362428Y-100948690D01*
X95838619Y-101186785D02*
X94838619Y-101186785D01*
X94838619Y-101186785D02*
X94838619Y-100805833D01*
X94838619Y-100805833D02*
X94886238Y-100710595D01*
X94886238Y-100710595D02*
X94933857Y-100662976D01*
X94933857Y-100662976D02*
X95029095Y-100615357D01*
X95029095Y-100615357D02*
X95171952Y-100615357D01*
X95171952Y-100615357D02*
X95267190Y-100662976D01*
X95267190Y-100662976D02*
X95314809Y-100710595D01*
X95314809Y-100710595D02*
X95362428Y-100805833D01*
X95362428Y-100805833D02*
X95362428Y-101186785D01*
X94838619Y-100282023D02*
X94838619Y-99662976D01*
X94838619Y-99662976D02*
X95219571Y-99996309D01*
X95219571Y-99996309D02*
X95219571Y-99853452D01*
X95219571Y-99853452D02*
X95267190Y-99758214D01*
X95267190Y-99758214D02*
X95314809Y-99710595D01*
X95314809Y-99710595D02*
X95410047Y-99662976D01*
X95410047Y-99662976D02*
X95648142Y-99662976D01*
X95648142Y-99662976D02*
X95743380Y-99710595D01*
X95743380Y-99710595D02*
X95791000Y-99758214D01*
X95791000Y-99758214D02*
X95838619Y-99853452D01*
X95838619Y-99853452D02*
X95838619Y-100139166D01*
X95838619Y-100139166D02*
X95791000Y-100234404D01*
X95791000Y-100234404D02*
X95743380Y-100282023D01*
X94838619Y-99329642D02*
X94838619Y-98662976D01*
X94838619Y-98662976D02*
X95838619Y-99091547D01*
X95838619Y-94726357D02*
X95362428Y-95059690D01*
X95838619Y-95297785D02*
X94838619Y-95297785D01*
X94838619Y-95297785D02*
X94838619Y-94916833D01*
X94838619Y-94916833D02*
X94886238Y-94821595D01*
X94886238Y-94821595D02*
X94933857Y-94773976D01*
X94933857Y-94773976D02*
X95029095Y-94726357D01*
X95029095Y-94726357D02*
X95171952Y-94726357D01*
X95171952Y-94726357D02*
X95267190Y-94773976D01*
X95267190Y-94773976D02*
X95314809Y-94821595D01*
X95314809Y-94821595D02*
X95362428Y-94916833D01*
X95362428Y-94916833D02*
X95362428Y-95297785D01*
X94838619Y-94393023D02*
X94838619Y-93773976D01*
X94838619Y-93773976D02*
X95219571Y-94107309D01*
X95219571Y-94107309D02*
X95219571Y-93964452D01*
X95219571Y-93964452D02*
X95267190Y-93869214D01*
X95267190Y-93869214D02*
X95314809Y-93821595D01*
X95314809Y-93821595D02*
X95410047Y-93773976D01*
X95410047Y-93773976D02*
X95648142Y-93773976D01*
X95648142Y-93773976D02*
X95743380Y-93821595D01*
X95743380Y-93821595D02*
X95791000Y-93869214D01*
X95791000Y-93869214D02*
X95838619Y-93964452D01*
X95838619Y-93964452D02*
X95838619Y-94250166D01*
X95838619Y-94250166D02*
X95791000Y-94345404D01*
X95791000Y-94345404D02*
X95743380Y-94393023D01*
X94838619Y-92916833D02*
X94838619Y-93107309D01*
X94838619Y-93107309D02*
X94886238Y-93202547D01*
X94886238Y-93202547D02*
X94933857Y-93250166D01*
X94933857Y-93250166D02*
X95076714Y-93345404D01*
X95076714Y-93345404D02*
X95267190Y-93393023D01*
X95267190Y-93393023D02*
X95648142Y-93393023D01*
X95648142Y-93393023D02*
X95743380Y-93345404D01*
X95743380Y-93345404D02*
X95791000Y-93297785D01*
X95791000Y-93297785D02*
X95838619Y-93202547D01*
X95838619Y-93202547D02*
X95838619Y-93012071D01*
X95838619Y-93012071D02*
X95791000Y-92916833D01*
X95791000Y-92916833D02*
X95743380Y-92869214D01*
X95743380Y-92869214D02*
X95648142Y-92821595D01*
X95648142Y-92821595D02*
X95410047Y-92821595D01*
X95410047Y-92821595D02*
X95314809Y-92869214D01*
X95314809Y-92869214D02*
X95267190Y-92916833D01*
X95267190Y-92916833D02*
X95219571Y-93012071D01*
X95219571Y-93012071D02*
X95219571Y-93202547D01*
X95219571Y-93202547D02*
X95267190Y-93297785D01*
X95267190Y-93297785D02*
X95314809Y-93345404D01*
X95314809Y-93345404D02*
X95410047Y-93393023D01*
X95838619Y-88931357D02*
X95362428Y-89264690D01*
X95838619Y-89502785D02*
X94838619Y-89502785D01*
X94838619Y-89502785D02*
X94838619Y-89121833D01*
X94838619Y-89121833D02*
X94886238Y-89026595D01*
X94886238Y-89026595D02*
X94933857Y-88978976D01*
X94933857Y-88978976D02*
X95029095Y-88931357D01*
X95029095Y-88931357D02*
X95171952Y-88931357D01*
X95171952Y-88931357D02*
X95267190Y-88978976D01*
X95267190Y-88978976D02*
X95314809Y-89026595D01*
X95314809Y-89026595D02*
X95362428Y-89121833D01*
X95362428Y-89121833D02*
X95362428Y-89502785D01*
X94838619Y-88598023D02*
X94838619Y-87978976D01*
X94838619Y-87978976D02*
X95219571Y-88312309D01*
X95219571Y-88312309D02*
X95219571Y-88169452D01*
X95219571Y-88169452D02*
X95267190Y-88074214D01*
X95267190Y-88074214D02*
X95314809Y-88026595D01*
X95314809Y-88026595D02*
X95410047Y-87978976D01*
X95410047Y-87978976D02*
X95648142Y-87978976D01*
X95648142Y-87978976D02*
X95743380Y-88026595D01*
X95743380Y-88026595D02*
X95791000Y-88074214D01*
X95791000Y-88074214D02*
X95838619Y-88169452D01*
X95838619Y-88169452D02*
X95838619Y-88455166D01*
X95838619Y-88455166D02*
X95791000Y-88550404D01*
X95791000Y-88550404D02*
X95743380Y-88598023D01*
X94838619Y-87074214D02*
X94838619Y-87550404D01*
X94838619Y-87550404D02*
X95314809Y-87598023D01*
X95314809Y-87598023D02*
X95267190Y-87550404D01*
X95267190Y-87550404D02*
X95219571Y-87455166D01*
X95219571Y-87455166D02*
X95219571Y-87217071D01*
X95219571Y-87217071D02*
X95267190Y-87121833D01*
X95267190Y-87121833D02*
X95314809Y-87074214D01*
X95314809Y-87074214D02*
X95410047Y-87026595D01*
X95410047Y-87026595D02*
X95648142Y-87026595D01*
X95648142Y-87026595D02*
X95743380Y-87074214D01*
X95743380Y-87074214D02*
X95791000Y-87121833D01*
X95791000Y-87121833D02*
X95838619Y-87217071D01*
X95838619Y-87217071D02*
X95838619Y-87455166D01*
X95838619Y-87455166D02*
X95791000Y-87550404D01*
X95791000Y-87550404D02*
X95743380Y-87598023D01*
X95838619Y-117736857D02*
X95362428Y-118070190D01*
X95838619Y-118308285D02*
X94838619Y-118308285D01*
X94838619Y-118308285D02*
X94838619Y-117927333D01*
X94838619Y-117927333D02*
X94886238Y-117832095D01*
X94886238Y-117832095D02*
X94933857Y-117784476D01*
X94933857Y-117784476D02*
X95029095Y-117736857D01*
X95029095Y-117736857D02*
X95171952Y-117736857D01*
X95171952Y-117736857D02*
X95267190Y-117784476D01*
X95267190Y-117784476D02*
X95314809Y-117832095D01*
X95314809Y-117832095D02*
X95362428Y-117927333D01*
X95362428Y-117927333D02*
X95362428Y-118308285D01*
X94838619Y-117403523D02*
X94838619Y-116784476D01*
X94838619Y-116784476D02*
X95219571Y-117117809D01*
X95219571Y-117117809D02*
X95219571Y-116974952D01*
X95219571Y-116974952D02*
X95267190Y-116879714D01*
X95267190Y-116879714D02*
X95314809Y-116832095D01*
X95314809Y-116832095D02*
X95410047Y-116784476D01*
X95410047Y-116784476D02*
X95648142Y-116784476D01*
X95648142Y-116784476D02*
X95743380Y-116832095D01*
X95743380Y-116832095D02*
X95791000Y-116879714D01*
X95791000Y-116879714D02*
X95838619Y-116974952D01*
X95838619Y-116974952D02*
X95838619Y-117260666D01*
X95838619Y-117260666D02*
X95791000Y-117355904D01*
X95791000Y-117355904D02*
X95743380Y-117403523D01*
X95171952Y-115927333D02*
X95838619Y-115927333D01*
X94791000Y-116165428D02*
X95505285Y-116403523D01*
X95505285Y-116403523D02*
X95505285Y-115784476D01*
X95838619Y-111894857D02*
X95362428Y-112228190D01*
X95838619Y-112466285D02*
X94838619Y-112466285D01*
X94838619Y-112466285D02*
X94838619Y-112085333D01*
X94838619Y-112085333D02*
X94886238Y-111990095D01*
X94886238Y-111990095D02*
X94933857Y-111942476D01*
X94933857Y-111942476D02*
X95029095Y-111894857D01*
X95029095Y-111894857D02*
X95171952Y-111894857D01*
X95171952Y-111894857D02*
X95267190Y-111942476D01*
X95267190Y-111942476D02*
X95314809Y-111990095D01*
X95314809Y-111990095D02*
X95362428Y-112085333D01*
X95362428Y-112085333D02*
X95362428Y-112466285D01*
X94838619Y-111561523D02*
X94838619Y-110942476D01*
X94838619Y-110942476D02*
X95219571Y-111275809D01*
X95219571Y-111275809D02*
X95219571Y-111132952D01*
X95219571Y-111132952D02*
X95267190Y-111037714D01*
X95267190Y-111037714D02*
X95314809Y-110990095D01*
X95314809Y-110990095D02*
X95410047Y-110942476D01*
X95410047Y-110942476D02*
X95648142Y-110942476D01*
X95648142Y-110942476D02*
X95743380Y-110990095D01*
X95743380Y-110990095D02*
X95791000Y-111037714D01*
X95791000Y-111037714D02*
X95838619Y-111132952D01*
X95838619Y-111132952D02*
X95838619Y-111418666D01*
X95838619Y-111418666D02*
X95791000Y-111513904D01*
X95791000Y-111513904D02*
X95743380Y-111561523D01*
X94838619Y-110609142D02*
X94838619Y-109990095D01*
X94838619Y-109990095D02*
X95219571Y-110323428D01*
X95219571Y-110323428D02*
X95219571Y-110180571D01*
X95219571Y-110180571D02*
X95267190Y-110085333D01*
X95267190Y-110085333D02*
X95314809Y-110037714D01*
X95314809Y-110037714D02*
X95410047Y-109990095D01*
X95410047Y-109990095D02*
X95648142Y-109990095D01*
X95648142Y-109990095D02*
X95743380Y-110037714D01*
X95743380Y-110037714D02*
X95791000Y-110085333D01*
X95791000Y-110085333D02*
X95838619Y-110180571D01*
X95838619Y-110180571D02*
X95838619Y-110466285D01*
X95838619Y-110466285D02*
X95791000Y-110561523D01*
X95791000Y-110561523D02*
X95743380Y-110609142D01*
X95838619Y-106052857D02*
X95362428Y-106386190D01*
X95838619Y-106624285D02*
X94838619Y-106624285D01*
X94838619Y-106624285D02*
X94838619Y-106243333D01*
X94838619Y-106243333D02*
X94886238Y-106148095D01*
X94886238Y-106148095D02*
X94933857Y-106100476D01*
X94933857Y-106100476D02*
X95029095Y-106052857D01*
X95029095Y-106052857D02*
X95171952Y-106052857D01*
X95171952Y-106052857D02*
X95267190Y-106100476D01*
X95267190Y-106100476D02*
X95314809Y-106148095D01*
X95314809Y-106148095D02*
X95362428Y-106243333D01*
X95362428Y-106243333D02*
X95362428Y-106624285D01*
X94838619Y-105719523D02*
X94838619Y-105100476D01*
X94838619Y-105100476D02*
X95219571Y-105433809D01*
X95219571Y-105433809D02*
X95219571Y-105290952D01*
X95219571Y-105290952D02*
X95267190Y-105195714D01*
X95267190Y-105195714D02*
X95314809Y-105148095D01*
X95314809Y-105148095D02*
X95410047Y-105100476D01*
X95410047Y-105100476D02*
X95648142Y-105100476D01*
X95648142Y-105100476D02*
X95743380Y-105148095D01*
X95743380Y-105148095D02*
X95791000Y-105195714D01*
X95791000Y-105195714D02*
X95838619Y-105290952D01*
X95838619Y-105290952D02*
X95838619Y-105576666D01*
X95838619Y-105576666D02*
X95791000Y-105671904D01*
X95791000Y-105671904D02*
X95743380Y-105719523D01*
X94933857Y-104719523D02*
X94886238Y-104671904D01*
X94886238Y-104671904D02*
X94838619Y-104576666D01*
X94838619Y-104576666D02*
X94838619Y-104338571D01*
X94838619Y-104338571D02*
X94886238Y-104243333D01*
X94886238Y-104243333D02*
X94933857Y-104195714D01*
X94933857Y-104195714D02*
X95029095Y-104148095D01*
X95029095Y-104148095D02*
X95124333Y-104148095D01*
X95124333Y-104148095D02*
X95267190Y-104195714D01*
X95267190Y-104195714D02*
X95838619Y-104767142D01*
X95838619Y-104767142D02*
X95838619Y-104148095D01*
X60802619Y-116812857D02*
X60326428Y-117146190D01*
X60802619Y-117384285D02*
X59802619Y-117384285D01*
X59802619Y-117384285D02*
X59802619Y-117003333D01*
X59802619Y-117003333D02*
X59850238Y-116908095D01*
X59850238Y-116908095D02*
X59897857Y-116860476D01*
X59897857Y-116860476D02*
X59993095Y-116812857D01*
X59993095Y-116812857D02*
X60135952Y-116812857D01*
X60135952Y-116812857D02*
X60231190Y-116860476D01*
X60231190Y-116860476D02*
X60278809Y-116908095D01*
X60278809Y-116908095D02*
X60326428Y-117003333D01*
X60326428Y-117003333D02*
X60326428Y-117384285D01*
X59802619Y-116479523D02*
X59802619Y-115860476D01*
X59802619Y-115860476D02*
X60183571Y-116193809D01*
X60183571Y-116193809D02*
X60183571Y-116050952D01*
X60183571Y-116050952D02*
X60231190Y-115955714D01*
X60231190Y-115955714D02*
X60278809Y-115908095D01*
X60278809Y-115908095D02*
X60374047Y-115860476D01*
X60374047Y-115860476D02*
X60612142Y-115860476D01*
X60612142Y-115860476D02*
X60707380Y-115908095D01*
X60707380Y-115908095D02*
X60755000Y-115955714D01*
X60755000Y-115955714D02*
X60802619Y-116050952D01*
X60802619Y-116050952D02*
X60802619Y-116336666D01*
X60802619Y-116336666D02*
X60755000Y-116431904D01*
X60755000Y-116431904D02*
X60707380Y-116479523D01*
X60802619Y-114908095D02*
X60802619Y-115479523D01*
X60802619Y-115193809D02*
X59802619Y-115193809D01*
X59802619Y-115193809D02*
X59945476Y-115289047D01*
X59945476Y-115289047D02*
X60040714Y-115384285D01*
X60040714Y-115384285D02*
X60088333Y-115479523D01*
X64090619Y-116974857D02*
X63614428Y-117308190D01*
X64090619Y-117546285D02*
X63090619Y-117546285D01*
X63090619Y-117546285D02*
X63090619Y-117165333D01*
X63090619Y-117165333D02*
X63138238Y-117070095D01*
X63138238Y-117070095D02*
X63185857Y-117022476D01*
X63185857Y-117022476D02*
X63281095Y-116974857D01*
X63281095Y-116974857D02*
X63423952Y-116974857D01*
X63423952Y-116974857D02*
X63519190Y-117022476D01*
X63519190Y-117022476D02*
X63566809Y-117070095D01*
X63566809Y-117070095D02*
X63614428Y-117165333D01*
X63614428Y-117165333D02*
X63614428Y-117546285D01*
X63090619Y-116641523D02*
X63090619Y-116022476D01*
X63090619Y-116022476D02*
X63471571Y-116355809D01*
X63471571Y-116355809D02*
X63471571Y-116212952D01*
X63471571Y-116212952D02*
X63519190Y-116117714D01*
X63519190Y-116117714D02*
X63566809Y-116070095D01*
X63566809Y-116070095D02*
X63662047Y-116022476D01*
X63662047Y-116022476D02*
X63900142Y-116022476D01*
X63900142Y-116022476D02*
X63995380Y-116070095D01*
X63995380Y-116070095D02*
X64043000Y-116117714D01*
X64043000Y-116117714D02*
X64090619Y-116212952D01*
X64090619Y-116212952D02*
X64090619Y-116498666D01*
X64090619Y-116498666D02*
X64043000Y-116593904D01*
X64043000Y-116593904D02*
X63995380Y-116641523D01*
X63090619Y-115403428D02*
X63090619Y-115308190D01*
X63090619Y-115308190D02*
X63138238Y-115212952D01*
X63138238Y-115212952D02*
X63185857Y-115165333D01*
X63185857Y-115165333D02*
X63281095Y-115117714D01*
X63281095Y-115117714D02*
X63471571Y-115070095D01*
X63471571Y-115070095D02*
X63709666Y-115070095D01*
X63709666Y-115070095D02*
X63900142Y-115117714D01*
X63900142Y-115117714D02*
X63995380Y-115165333D01*
X63995380Y-115165333D02*
X64043000Y-115212952D01*
X64043000Y-115212952D02*
X64090619Y-115308190D01*
X64090619Y-115308190D02*
X64090619Y-115403428D01*
X64090619Y-115403428D02*
X64043000Y-115498666D01*
X64043000Y-115498666D02*
X63995380Y-115546285D01*
X63995380Y-115546285D02*
X63900142Y-115593904D01*
X63900142Y-115593904D02*
X63709666Y-115641523D01*
X63709666Y-115641523D02*
X63471571Y-115641523D01*
X63471571Y-115641523D02*
X63281095Y-115593904D01*
X63281095Y-115593904D02*
X63185857Y-115546285D01*
X63185857Y-115546285D02*
X63138238Y-115498666D01*
X63138238Y-115498666D02*
X63090619Y-115403428D01*
X125597142Y-99852619D02*
X125263809Y-99376428D01*
X125025714Y-99852619D02*
X125025714Y-98852619D01*
X125025714Y-98852619D02*
X125406666Y-98852619D01*
X125406666Y-98852619D02*
X125501904Y-98900238D01*
X125501904Y-98900238D02*
X125549523Y-98947857D01*
X125549523Y-98947857D02*
X125597142Y-99043095D01*
X125597142Y-99043095D02*
X125597142Y-99185952D01*
X125597142Y-99185952D02*
X125549523Y-99281190D01*
X125549523Y-99281190D02*
X125501904Y-99328809D01*
X125501904Y-99328809D02*
X125406666Y-99376428D01*
X125406666Y-99376428D02*
X125025714Y-99376428D01*
X125978095Y-98947857D02*
X126025714Y-98900238D01*
X126025714Y-98900238D02*
X126120952Y-98852619D01*
X126120952Y-98852619D02*
X126359047Y-98852619D01*
X126359047Y-98852619D02*
X126454285Y-98900238D01*
X126454285Y-98900238D02*
X126501904Y-98947857D01*
X126501904Y-98947857D02*
X126549523Y-99043095D01*
X126549523Y-99043095D02*
X126549523Y-99138333D01*
X126549523Y-99138333D02*
X126501904Y-99281190D01*
X126501904Y-99281190D02*
X125930476Y-99852619D01*
X125930476Y-99852619D02*
X126549523Y-99852619D01*
X127025714Y-99852619D02*
X127216190Y-99852619D01*
X127216190Y-99852619D02*
X127311428Y-99805000D01*
X127311428Y-99805000D02*
X127359047Y-99757380D01*
X127359047Y-99757380D02*
X127454285Y-99614523D01*
X127454285Y-99614523D02*
X127501904Y-99424047D01*
X127501904Y-99424047D02*
X127501904Y-99043095D01*
X127501904Y-99043095D02*
X127454285Y-98947857D01*
X127454285Y-98947857D02*
X127406666Y-98900238D01*
X127406666Y-98900238D02*
X127311428Y-98852619D01*
X127311428Y-98852619D02*
X127120952Y-98852619D01*
X127120952Y-98852619D02*
X127025714Y-98900238D01*
X127025714Y-98900238D02*
X126978095Y-98947857D01*
X126978095Y-98947857D02*
X126930476Y-99043095D01*
X126930476Y-99043095D02*
X126930476Y-99281190D01*
X126930476Y-99281190D02*
X126978095Y-99376428D01*
X126978095Y-99376428D02*
X127025714Y-99424047D01*
X127025714Y-99424047D02*
X127120952Y-99471666D01*
X127120952Y-99471666D02*
X127311428Y-99471666D01*
X127311428Y-99471666D02*
X127406666Y-99424047D01*
X127406666Y-99424047D02*
X127454285Y-99376428D01*
X127454285Y-99376428D02*
X127501904Y-99281190D01*
X119447142Y-109772619D02*
X119113809Y-109296428D01*
X118875714Y-109772619D02*
X118875714Y-108772619D01*
X118875714Y-108772619D02*
X119256666Y-108772619D01*
X119256666Y-108772619D02*
X119351904Y-108820238D01*
X119351904Y-108820238D02*
X119399523Y-108867857D01*
X119399523Y-108867857D02*
X119447142Y-108963095D01*
X119447142Y-108963095D02*
X119447142Y-109105952D01*
X119447142Y-109105952D02*
X119399523Y-109201190D01*
X119399523Y-109201190D02*
X119351904Y-109248809D01*
X119351904Y-109248809D02*
X119256666Y-109296428D01*
X119256666Y-109296428D02*
X118875714Y-109296428D01*
X119828095Y-108867857D02*
X119875714Y-108820238D01*
X119875714Y-108820238D02*
X119970952Y-108772619D01*
X119970952Y-108772619D02*
X120209047Y-108772619D01*
X120209047Y-108772619D02*
X120304285Y-108820238D01*
X120304285Y-108820238D02*
X120351904Y-108867857D01*
X120351904Y-108867857D02*
X120399523Y-108963095D01*
X120399523Y-108963095D02*
X120399523Y-109058333D01*
X120399523Y-109058333D02*
X120351904Y-109201190D01*
X120351904Y-109201190D02*
X119780476Y-109772619D01*
X119780476Y-109772619D02*
X120399523Y-109772619D01*
X120970952Y-109201190D02*
X120875714Y-109153571D01*
X120875714Y-109153571D02*
X120828095Y-109105952D01*
X120828095Y-109105952D02*
X120780476Y-109010714D01*
X120780476Y-109010714D02*
X120780476Y-108963095D01*
X120780476Y-108963095D02*
X120828095Y-108867857D01*
X120828095Y-108867857D02*
X120875714Y-108820238D01*
X120875714Y-108820238D02*
X120970952Y-108772619D01*
X120970952Y-108772619D02*
X121161428Y-108772619D01*
X121161428Y-108772619D02*
X121256666Y-108820238D01*
X121256666Y-108820238D02*
X121304285Y-108867857D01*
X121304285Y-108867857D02*
X121351904Y-108963095D01*
X121351904Y-108963095D02*
X121351904Y-109010714D01*
X121351904Y-109010714D02*
X121304285Y-109105952D01*
X121304285Y-109105952D02*
X121256666Y-109153571D01*
X121256666Y-109153571D02*
X121161428Y-109201190D01*
X121161428Y-109201190D02*
X120970952Y-109201190D01*
X120970952Y-109201190D02*
X120875714Y-109248809D01*
X120875714Y-109248809D02*
X120828095Y-109296428D01*
X120828095Y-109296428D02*
X120780476Y-109391666D01*
X120780476Y-109391666D02*
X120780476Y-109582142D01*
X120780476Y-109582142D02*
X120828095Y-109677380D01*
X120828095Y-109677380D02*
X120875714Y-109725000D01*
X120875714Y-109725000D02*
X120970952Y-109772619D01*
X120970952Y-109772619D02*
X121161428Y-109772619D01*
X121161428Y-109772619D02*
X121256666Y-109725000D01*
X121256666Y-109725000D02*
X121304285Y-109677380D01*
X121304285Y-109677380D02*
X121351904Y-109582142D01*
X121351904Y-109582142D02*
X121351904Y-109391666D01*
X121351904Y-109391666D02*
X121304285Y-109296428D01*
X121304285Y-109296428D02*
X121256666Y-109248809D01*
X121256666Y-109248809D02*
X121161428Y-109201190D01*
X51136619Y-97162857D02*
X50660428Y-97496190D01*
X51136619Y-97734285D02*
X50136619Y-97734285D01*
X50136619Y-97734285D02*
X50136619Y-97353333D01*
X50136619Y-97353333D02*
X50184238Y-97258095D01*
X50184238Y-97258095D02*
X50231857Y-97210476D01*
X50231857Y-97210476D02*
X50327095Y-97162857D01*
X50327095Y-97162857D02*
X50469952Y-97162857D01*
X50469952Y-97162857D02*
X50565190Y-97210476D01*
X50565190Y-97210476D02*
X50612809Y-97258095D01*
X50612809Y-97258095D02*
X50660428Y-97353333D01*
X50660428Y-97353333D02*
X50660428Y-97734285D01*
X50231857Y-96781904D02*
X50184238Y-96734285D01*
X50184238Y-96734285D02*
X50136619Y-96639047D01*
X50136619Y-96639047D02*
X50136619Y-96400952D01*
X50136619Y-96400952D02*
X50184238Y-96305714D01*
X50184238Y-96305714D02*
X50231857Y-96258095D01*
X50231857Y-96258095D02*
X50327095Y-96210476D01*
X50327095Y-96210476D02*
X50422333Y-96210476D01*
X50422333Y-96210476D02*
X50565190Y-96258095D01*
X50565190Y-96258095D02*
X51136619Y-96829523D01*
X51136619Y-96829523D02*
X51136619Y-96210476D01*
X50136619Y-95877142D02*
X50136619Y-95210476D01*
X50136619Y-95210476D02*
X51136619Y-95639047D01*
X63873142Y-99776619D02*
X63539809Y-99300428D01*
X63301714Y-99776619D02*
X63301714Y-98776619D01*
X63301714Y-98776619D02*
X63682666Y-98776619D01*
X63682666Y-98776619D02*
X63777904Y-98824238D01*
X63777904Y-98824238D02*
X63825523Y-98871857D01*
X63825523Y-98871857D02*
X63873142Y-98967095D01*
X63873142Y-98967095D02*
X63873142Y-99109952D01*
X63873142Y-99109952D02*
X63825523Y-99205190D01*
X63825523Y-99205190D02*
X63777904Y-99252809D01*
X63777904Y-99252809D02*
X63682666Y-99300428D01*
X63682666Y-99300428D02*
X63301714Y-99300428D01*
X64254095Y-98871857D02*
X64301714Y-98824238D01*
X64301714Y-98824238D02*
X64396952Y-98776619D01*
X64396952Y-98776619D02*
X64635047Y-98776619D01*
X64635047Y-98776619D02*
X64730285Y-98824238D01*
X64730285Y-98824238D02*
X64777904Y-98871857D01*
X64777904Y-98871857D02*
X64825523Y-98967095D01*
X64825523Y-98967095D02*
X64825523Y-99062333D01*
X64825523Y-99062333D02*
X64777904Y-99205190D01*
X64777904Y-99205190D02*
X64206476Y-99776619D01*
X64206476Y-99776619D02*
X64825523Y-99776619D01*
X65682666Y-98776619D02*
X65492190Y-98776619D01*
X65492190Y-98776619D02*
X65396952Y-98824238D01*
X65396952Y-98824238D02*
X65349333Y-98871857D01*
X65349333Y-98871857D02*
X65254095Y-99014714D01*
X65254095Y-99014714D02*
X65206476Y-99205190D01*
X65206476Y-99205190D02*
X65206476Y-99586142D01*
X65206476Y-99586142D02*
X65254095Y-99681380D01*
X65254095Y-99681380D02*
X65301714Y-99729000D01*
X65301714Y-99729000D02*
X65396952Y-99776619D01*
X65396952Y-99776619D02*
X65587428Y-99776619D01*
X65587428Y-99776619D02*
X65682666Y-99729000D01*
X65682666Y-99729000D02*
X65730285Y-99681380D01*
X65730285Y-99681380D02*
X65777904Y-99586142D01*
X65777904Y-99586142D02*
X65777904Y-99348047D01*
X65777904Y-99348047D02*
X65730285Y-99252809D01*
X65730285Y-99252809D02*
X65682666Y-99205190D01*
X65682666Y-99205190D02*
X65587428Y-99157571D01*
X65587428Y-99157571D02*
X65396952Y-99157571D01*
X65396952Y-99157571D02*
X65301714Y-99205190D01*
X65301714Y-99205190D02*
X65254095Y-99252809D01*
X65254095Y-99252809D02*
X65206476Y-99348047D01*
X70692619Y-102496857D02*
X70216428Y-102830190D01*
X70692619Y-103068285D02*
X69692619Y-103068285D01*
X69692619Y-103068285D02*
X69692619Y-102687333D01*
X69692619Y-102687333D02*
X69740238Y-102592095D01*
X69740238Y-102592095D02*
X69787857Y-102544476D01*
X69787857Y-102544476D02*
X69883095Y-102496857D01*
X69883095Y-102496857D02*
X70025952Y-102496857D01*
X70025952Y-102496857D02*
X70121190Y-102544476D01*
X70121190Y-102544476D02*
X70168809Y-102592095D01*
X70168809Y-102592095D02*
X70216428Y-102687333D01*
X70216428Y-102687333D02*
X70216428Y-103068285D01*
X69787857Y-102115904D02*
X69740238Y-102068285D01*
X69740238Y-102068285D02*
X69692619Y-101973047D01*
X69692619Y-101973047D02*
X69692619Y-101734952D01*
X69692619Y-101734952D02*
X69740238Y-101639714D01*
X69740238Y-101639714D02*
X69787857Y-101592095D01*
X69787857Y-101592095D02*
X69883095Y-101544476D01*
X69883095Y-101544476D02*
X69978333Y-101544476D01*
X69978333Y-101544476D02*
X70121190Y-101592095D01*
X70121190Y-101592095D02*
X70692619Y-102163523D01*
X70692619Y-102163523D02*
X70692619Y-101544476D01*
X69692619Y-100639714D02*
X69692619Y-101115904D01*
X69692619Y-101115904D02*
X70168809Y-101163523D01*
X70168809Y-101163523D02*
X70121190Y-101115904D01*
X70121190Y-101115904D02*
X70073571Y-101020666D01*
X70073571Y-101020666D02*
X70073571Y-100782571D01*
X70073571Y-100782571D02*
X70121190Y-100687333D01*
X70121190Y-100687333D02*
X70168809Y-100639714D01*
X70168809Y-100639714D02*
X70264047Y-100592095D01*
X70264047Y-100592095D02*
X70502142Y-100592095D01*
X70502142Y-100592095D02*
X70597380Y-100639714D01*
X70597380Y-100639714D02*
X70645000Y-100687333D01*
X70645000Y-100687333D02*
X70692619Y-100782571D01*
X70692619Y-100782571D02*
X70692619Y-101020666D01*
X70692619Y-101020666D02*
X70645000Y-101115904D01*
X70645000Y-101115904D02*
X70597380Y-101163523D01*
X67937142Y-109936619D02*
X67603809Y-109460428D01*
X67365714Y-109936619D02*
X67365714Y-108936619D01*
X67365714Y-108936619D02*
X67746666Y-108936619D01*
X67746666Y-108936619D02*
X67841904Y-108984238D01*
X67841904Y-108984238D02*
X67889523Y-109031857D01*
X67889523Y-109031857D02*
X67937142Y-109127095D01*
X67937142Y-109127095D02*
X67937142Y-109269952D01*
X67937142Y-109269952D02*
X67889523Y-109365190D01*
X67889523Y-109365190D02*
X67841904Y-109412809D01*
X67841904Y-109412809D02*
X67746666Y-109460428D01*
X67746666Y-109460428D02*
X67365714Y-109460428D01*
X68318095Y-109031857D02*
X68365714Y-108984238D01*
X68365714Y-108984238D02*
X68460952Y-108936619D01*
X68460952Y-108936619D02*
X68699047Y-108936619D01*
X68699047Y-108936619D02*
X68794285Y-108984238D01*
X68794285Y-108984238D02*
X68841904Y-109031857D01*
X68841904Y-109031857D02*
X68889523Y-109127095D01*
X68889523Y-109127095D02*
X68889523Y-109222333D01*
X68889523Y-109222333D02*
X68841904Y-109365190D01*
X68841904Y-109365190D02*
X68270476Y-109936619D01*
X68270476Y-109936619D02*
X68889523Y-109936619D01*
X69746666Y-109269952D02*
X69746666Y-109936619D01*
X69508571Y-108889000D02*
X69270476Y-109603285D01*
X69270476Y-109603285D02*
X69889523Y-109603285D01*
X129751642Y-118646619D02*
X129418309Y-118170428D01*
X129180214Y-118646619D02*
X129180214Y-117646619D01*
X129180214Y-117646619D02*
X129561166Y-117646619D01*
X129561166Y-117646619D02*
X129656404Y-117694238D01*
X129656404Y-117694238D02*
X129704023Y-117741857D01*
X129704023Y-117741857D02*
X129751642Y-117837095D01*
X129751642Y-117837095D02*
X129751642Y-117979952D01*
X129751642Y-117979952D02*
X129704023Y-118075190D01*
X129704023Y-118075190D02*
X129656404Y-118122809D01*
X129656404Y-118122809D02*
X129561166Y-118170428D01*
X129561166Y-118170428D02*
X129180214Y-118170428D01*
X130132595Y-117741857D02*
X130180214Y-117694238D01*
X130180214Y-117694238D02*
X130275452Y-117646619D01*
X130275452Y-117646619D02*
X130513547Y-117646619D01*
X130513547Y-117646619D02*
X130608785Y-117694238D01*
X130608785Y-117694238D02*
X130656404Y-117741857D01*
X130656404Y-117741857D02*
X130704023Y-117837095D01*
X130704023Y-117837095D02*
X130704023Y-117932333D01*
X130704023Y-117932333D02*
X130656404Y-118075190D01*
X130656404Y-118075190D02*
X130084976Y-118646619D01*
X130084976Y-118646619D02*
X130704023Y-118646619D01*
X131037357Y-117646619D02*
X131656404Y-117646619D01*
X131656404Y-117646619D02*
X131323071Y-118027571D01*
X131323071Y-118027571D02*
X131465928Y-118027571D01*
X131465928Y-118027571D02*
X131561166Y-118075190D01*
X131561166Y-118075190D02*
X131608785Y-118122809D01*
X131608785Y-118122809D02*
X131656404Y-118218047D01*
X131656404Y-118218047D02*
X131656404Y-118456142D01*
X131656404Y-118456142D02*
X131608785Y-118551380D01*
X131608785Y-118551380D02*
X131561166Y-118599000D01*
X131561166Y-118599000D02*
X131465928Y-118646619D01*
X131465928Y-118646619D02*
X131180214Y-118646619D01*
X131180214Y-118646619D02*
X131084976Y-118599000D01*
X131084976Y-118599000D02*
X131037357Y-118551380D01*
X131137142Y-89682619D02*
X130803809Y-89206428D01*
X130565714Y-89682619D02*
X130565714Y-88682619D01*
X130565714Y-88682619D02*
X130946666Y-88682619D01*
X130946666Y-88682619D02*
X131041904Y-88730238D01*
X131041904Y-88730238D02*
X131089523Y-88777857D01*
X131089523Y-88777857D02*
X131137142Y-88873095D01*
X131137142Y-88873095D02*
X131137142Y-89015952D01*
X131137142Y-89015952D02*
X131089523Y-89111190D01*
X131089523Y-89111190D02*
X131041904Y-89158809D01*
X131041904Y-89158809D02*
X130946666Y-89206428D01*
X130946666Y-89206428D02*
X130565714Y-89206428D01*
X131518095Y-88777857D02*
X131565714Y-88730238D01*
X131565714Y-88730238D02*
X131660952Y-88682619D01*
X131660952Y-88682619D02*
X131899047Y-88682619D01*
X131899047Y-88682619D02*
X131994285Y-88730238D01*
X131994285Y-88730238D02*
X132041904Y-88777857D01*
X132041904Y-88777857D02*
X132089523Y-88873095D01*
X132089523Y-88873095D02*
X132089523Y-88968333D01*
X132089523Y-88968333D02*
X132041904Y-89111190D01*
X132041904Y-89111190D02*
X131470476Y-89682619D01*
X131470476Y-89682619D02*
X132089523Y-89682619D01*
X132470476Y-88777857D02*
X132518095Y-88730238D01*
X132518095Y-88730238D02*
X132613333Y-88682619D01*
X132613333Y-88682619D02*
X132851428Y-88682619D01*
X132851428Y-88682619D02*
X132946666Y-88730238D01*
X132946666Y-88730238D02*
X132994285Y-88777857D01*
X132994285Y-88777857D02*
X133041904Y-88873095D01*
X133041904Y-88873095D02*
X133041904Y-88968333D01*
X133041904Y-88968333D02*
X132994285Y-89111190D01*
X132994285Y-89111190D02*
X132422857Y-89682619D01*
X132422857Y-89682619D02*
X133041904Y-89682619D01*
X128350619Y-112454357D02*
X127874428Y-112787690D01*
X128350619Y-113025785D02*
X127350619Y-113025785D01*
X127350619Y-113025785D02*
X127350619Y-112644833D01*
X127350619Y-112644833D02*
X127398238Y-112549595D01*
X127398238Y-112549595D02*
X127445857Y-112501976D01*
X127445857Y-112501976D02*
X127541095Y-112454357D01*
X127541095Y-112454357D02*
X127683952Y-112454357D01*
X127683952Y-112454357D02*
X127779190Y-112501976D01*
X127779190Y-112501976D02*
X127826809Y-112549595D01*
X127826809Y-112549595D02*
X127874428Y-112644833D01*
X127874428Y-112644833D02*
X127874428Y-113025785D01*
X127445857Y-112073404D02*
X127398238Y-112025785D01*
X127398238Y-112025785D02*
X127350619Y-111930547D01*
X127350619Y-111930547D02*
X127350619Y-111692452D01*
X127350619Y-111692452D02*
X127398238Y-111597214D01*
X127398238Y-111597214D02*
X127445857Y-111549595D01*
X127445857Y-111549595D02*
X127541095Y-111501976D01*
X127541095Y-111501976D02*
X127636333Y-111501976D01*
X127636333Y-111501976D02*
X127779190Y-111549595D01*
X127779190Y-111549595D02*
X128350619Y-112121023D01*
X128350619Y-112121023D02*
X128350619Y-111501976D01*
X128350619Y-110549595D02*
X128350619Y-111121023D01*
X128350619Y-110835309D02*
X127350619Y-110835309D01*
X127350619Y-110835309D02*
X127493476Y-110930547D01*
X127493476Y-110930547D02*
X127588714Y-111025785D01*
X127588714Y-111025785D02*
X127636333Y-111121023D01*
X116407142Y-94692619D02*
X116073809Y-94216428D01*
X115835714Y-94692619D02*
X115835714Y-93692619D01*
X115835714Y-93692619D02*
X116216666Y-93692619D01*
X116216666Y-93692619D02*
X116311904Y-93740238D01*
X116311904Y-93740238D02*
X116359523Y-93787857D01*
X116359523Y-93787857D02*
X116407142Y-93883095D01*
X116407142Y-93883095D02*
X116407142Y-94025952D01*
X116407142Y-94025952D02*
X116359523Y-94121190D01*
X116359523Y-94121190D02*
X116311904Y-94168809D01*
X116311904Y-94168809D02*
X116216666Y-94216428D01*
X116216666Y-94216428D02*
X115835714Y-94216428D01*
X116788095Y-93787857D02*
X116835714Y-93740238D01*
X116835714Y-93740238D02*
X116930952Y-93692619D01*
X116930952Y-93692619D02*
X117169047Y-93692619D01*
X117169047Y-93692619D02*
X117264285Y-93740238D01*
X117264285Y-93740238D02*
X117311904Y-93787857D01*
X117311904Y-93787857D02*
X117359523Y-93883095D01*
X117359523Y-93883095D02*
X117359523Y-93978333D01*
X117359523Y-93978333D02*
X117311904Y-94121190D01*
X117311904Y-94121190D02*
X116740476Y-94692619D01*
X116740476Y-94692619D02*
X117359523Y-94692619D01*
X117978571Y-93692619D02*
X118073809Y-93692619D01*
X118073809Y-93692619D02*
X118169047Y-93740238D01*
X118169047Y-93740238D02*
X118216666Y-93787857D01*
X118216666Y-93787857D02*
X118264285Y-93883095D01*
X118264285Y-93883095D02*
X118311904Y-94073571D01*
X118311904Y-94073571D02*
X118311904Y-94311666D01*
X118311904Y-94311666D02*
X118264285Y-94502142D01*
X118264285Y-94502142D02*
X118216666Y-94597380D01*
X118216666Y-94597380D02*
X118169047Y-94645000D01*
X118169047Y-94645000D02*
X118073809Y-94692619D01*
X118073809Y-94692619D02*
X117978571Y-94692619D01*
X117978571Y-94692619D02*
X117883333Y-94645000D01*
X117883333Y-94645000D02*
X117835714Y-94597380D01*
X117835714Y-94597380D02*
X117788095Y-94502142D01*
X117788095Y-94502142D02*
X117740476Y-94311666D01*
X117740476Y-94311666D02*
X117740476Y-94073571D01*
X117740476Y-94073571D02*
X117788095Y-93883095D01*
X117788095Y-93883095D02*
X117835714Y-93787857D01*
X117835714Y-93787857D02*
X117883333Y-93740238D01*
X117883333Y-93740238D02*
X117978571Y-93692619D01*
X122547142Y-109712619D02*
X122213809Y-109236428D01*
X121975714Y-109712619D02*
X121975714Y-108712619D01*
X121975714Y-108712619D02*
X122356666Y-108712619D01*
X122356666Y-108712619D02*
X122451904Y-108760238D01*
X122451904Y-108760238D02*
X122499523Y-108807857D01*
X122499523Y-108807857D02*
X122547142Y-108903095D01*
X122547142Y-108903095D02*
X122547142Y-109045952D01*
X122547142Y-109045952D02*
X122499523Y-109141190D01*
X122499523Y-109141190D02*
X122451904Y-109188809D01*
X122451904Y-109188809D02*
X122356666Y-109236428D01*
X122356666Y-109236428D02*
X121975714Y-109236428D01*
X123499523Y-109712619D02*
X122928095Y-109712619D01*
X123213809Y-109712619D02*
X123213809Y-108712619D01*
X123213809Y-108712619D02*
X123118571Y-108855476D01*
X123118571Y-108855476D02*
X123023333Y-108950714D01*
X123023333Y-108950714D02*
X122928095Y-108998333D01*
X123975714Y-109712619D02*
X124166190Y-109712619D01*
X124166190Y-109712619D02*
X124261428Y-109665000D01*
X124261428Y-109665000D02*
X124309047Y-109617380D01*
X124309047Y-109617380D02*
X124404285Y-109474523D01*
X124404285Y-109474523D02*
X124451904Y-109284047D01*
X124451904Y-109284047D02*
X124451904Y-108903095D01*
X124451904Y-108903095D02*
X124404285Y-108807857D01*
X124404285Y-108807857D02*
X124356666Y-108760238D01*
X124356666Y-108760238D02*
X124261428Y-108712619D01*
X124261428Y-108712619D02*
X124070952Y-108712619D01*
X124070952Y-108712619D02*
X123975714Y-108760238D01*
X123975714Y-108760238D02*
X123928095Y-108807857D01*
X123928095Y-108807857D02*
X123880476Y-108903095D01*
X123880476Y-108903095D02*
X123880476Y-109141190D01*
X123880476Y-109141190D02*
X123928095Y-109236428D01*
X123928095Y-109236428D02*
X123975714Y-109284047D01*
X123975714Y-109284047D02*
X124070952Y-109331666D01*
X124070952Y-109331666D02*
X124261428Y-109331666D01*
X124261428Y-109331666D02*
X124356666Y-109284047D01*
X124356666Y-109284047D02*
X124404285Y-109236428D01*
X124404285Y-109236428D02*
X124451904Y-109141190D01*
X119377142Y-99802619D02*
X119043809Y-99326428D01*
X118805714Y-99802619D02*
X118805714Y-98802619D01*
X118805714Y-98802619D02*
X119186666Y-98802619D01*
X119186666Y-98802619D02*
X119281904Y-98850238D01*
X119281904Y-98850238D02*
X119329523Y-98897857D01*
X119329523Y-98897857D02*
X119377142Y-98993095D01*
X119377142Y-98993095D02*
X119377142Y-99135952D01*
X119377142Y-99135952D02*
X119329523Y-99231190D01*
X119329523Y-99231190D02*
X119281904Y-99278809D01*
X119281904Y-99278809D02*
X119186666Y-99326428D01*
X119186666Y-99326428D02*
X118805714Y-99326428D01*
X120329523Y-99802619D02*
X119758095Y-99802619D01*
X120043809Y-99802619D02*
X120043809Y-98802619D01*
X120043809Y-98802619D02*
X119948571Y-98945476D01*
X119948571Y-98945476D02*
X119853333Y-99040714D01*
X119853333Y-99040714D02*
X119758095Y-99088333D01*
X120900952Y-99231190D02*
X120805714Y-99183571D01*
X120805714Y-99183571D02*
X120758095Y-99135952D01*
X120758095Y-99135952D02*
X120710476Y-99040714D01*
X120710476Y-99040714D02*
X120710476Y-98993095D01*
X120710476Y-98993095D02*
X120758095Y-98897857D01*
X120758095Y-98897857D02*
X120805714Y-98850238D01*
X120805714Y-98850238D02*
X120900952Y-98802619D01*
X120900952Y-98802619D02*
X121091428Y-98802619D01*
X121091428Y-98802619D02*
X121186666Y-98850238D01*
X121186666Y-98850238D02*
X121234285Y-98897857D01*
X121234285Y-98897857D02*
X121281904Y-98993095D01*
X121281904Y-98993095D02*
X121281904Y-99040714D01*
X121281904Y-99040714D02*
X121234285Y-99135952D01*
X121234285Y-99135952D02*
X121186666Y-99183571D01*
X121186666Y-99183571D02*
X121091428Y-99231190D01*
X121091428Y-99231190D02*
X120900952Y-99231190D01*
X120900952Y-99231190D02*
X120805714Y-99278809D01*
X120805714Y-99278809D02*
X120758095Y-99326428D01*
X120758095Y-99326428D02*
X120710476Y-99421666D01*
X120710476Y-99421666D02*
X120710476Y-99612142D01*
X120710476Y-99612142D02*
X120758095Y-99707380D01*
X120758095Y-99707380D02*
X120805714Y-99755000D01*
X120805714Y-99755000D02*
X120900952Y-99802619D01*
X120900952Y-99802619D02*
X121091428Y-99802619D01*
X121091428Y-99802619D02*
X121186666Y-99755000D01*
X121186666Y-99755000D02*
X121234285Y-99707380D01*
X121234285Y-99707380D02*
X121281904Y-99612142D01*
X121281904Y-99612142D02*
X121281904Y-99421666D01*
X121281904Y-99421666D02*
X121234285Y-99326428D01*
X121234285Y-99326428D02*
X121186666Y-99278809D01*
X121186666Y-99278809D02*
X121091428Y-99231190D01*
X107718619Y-97872857D02*
X107242428Y-98206190D01*
X107718619Y-98444285D02*
X106718619Y-98444285D01*
X106718619Y-98444285D02*
X106718619Y-98063333D01*
X106718619Y-98063333D02*
X106766238Y-97968095D01*
X106766238Y-97968095D02*
X106813857Y-97920476D01*
X106813857Y-97920476D02*
X106909095Y-97872857D01*
X106909095Y-97872857D02*
X107051952Y-97872857D01*
X107051952Y-97872857D02*
X107147190Y-97920476D01*
X107147190Y-97920476D02*
X107194809Y-97968095D01*
X107194809Y-97968095D02*
X107242428Y-98063333D01*
X107242428Y-98063333D02*
X107242428Y-98444285D01*
X107718619Y-96920476D02*
X107718619Y-97491904D01*
X107718619Y-97206190D02*
X106718619Y-97206190D01*
X106718619Y-97206190D02*
X106861476Y-97301428D01*
X106861476Y-97301428D02*
X106956714Y-97396666D01*
X106956714Y-97396666D02*
X107004333Y-97491904D01*
X106718619Y-96587142D02*
X106718619Y-95920476D01*
X106718619Y-95920476D02*
X107718619Y-96349047D01*
X107972619Y-113620857D02*
X107496428Y-113954190D01*
X107972619Y-114192285D02*
X106972619Y-114192285D01*
X106972619Y-114192285D02*
X106972619Y-113811333D01*
X106972619Y-113811333D02*
X107020238Y-113716095D01*
X107020238Y-113716095D02*
X107067857Y-113668476D01*
X107067857Y-113668476D02*
X107163095Y-113620857D01*
X107163095Y-113620857D02*
X107305952Y-113620857D01*
X107305952Y-113620857D02*
X107401190Y-113668476D01*
X107401190Y-113668476D02*
X107448809Y-113716095D01*
X107448809Y-113716095D02*
X107496428Y-113811333D01*
X107496428Y-113811333D02*
X107496428Y-114192285D01*
X107972619Y-112668476D02*
X107972619Y-113239904D01*
X107972619Y-112954190D02*
X106972619Y-112954190D01*
X106972619Y-112954190D02*
X107115476Y-113049428D01*
X107115476Y-113049428D02*
X107210714Y-113144666D01*
X107210714Y-113144666D02*
X107258333Y-113239904D01*
X106972619Y-111811333D02*
X106972619Y-112001809D01*
X106972619Y-112001809D02*
X107020238Y-112097047D01*
X107020238Y-112097047D02*
X107067857Y-112144666D01*
X107067857Y-112144666D02*
X107210714Y-112239904D01*
X107210714Y-112239904D02*
X107401190Y-112287523D01*
X107401190Y-112287523D02*
X107782142Y-112287523D01*
X107782142Y-112287523D02*
X107877380Y-112239904D01*
X107877380Y-112239904D02*
X107925000Y-112192285D01*
X107925000Y-112192285D02*
X107972619Y-112097047D01*
X107972619Y-112097047D02*
X107972619Y-111906571D01*
X107972619Y-111906571D02*
X107925000Y-111811333D01*
X107925000Y-111811333D02*
X107877380Y-111763714D01*
X107877380Y-111763714D02*
X107782142Y-111716095D01*
X107782142Y-111716095D02*
X107544047Y-111716095D01*
X107544047Y-111716095D02*
X107448809Y-111763714D01*
X107448809Y-111763714D02*
X107401190Y-111811333D01*
X107401190Y-111811333D02*
X107353571Y-111906571D01*
X107353571Y-111906571D02*
X107353571Y-112097047D01*
X107353571Y-112097047D02*
X107401190Y-112192285D01*
X107401190Y-112192285D02*
X107448809Y-112239904D01*
X107448809Y-112239904D02*
X107544047Y-112287523D01*
X122537142Y-94562619D02*
X122203809Y-94086428D01*
X121965714Y-94562619D02*
X121965714Y-93562619D01*
X121965714Y-93562619D02*
X122346666Y-93562619D01*
X122346666Y-93562619D02*
X122441904Y-93610238D01*
X122441904Y-93610238D02*
X122489523Y-93657857D01*
X122489523Y-93657857D02*
X122537142Y-93753095D01*
X122537142Y-93753095D02*
X122537142Y-93895952D01*
X122537142Y-93895952D02*
X122489523Y-93991190D01*
X122489523Y-93991190D02*
X122441904Y-94038809D01*
X122441904Y-94038809D02*
X122346666Y-94086428D01*
X122346666Y-94086428D02*
X121965714Y-94086428D01*
X123489523Y-94562619D02*
X122918095Y-94562619D01*
X123203809Y-94562619D02*
X123203809Y-93562619D01*
X123203809Y-93562619D02*
X123108571Y-93705476D01*
X123108571Y-93705476D02*
X123013333Y-93800714D01*
X123013333Y-93800714D02*
X122918095Y-93848333D01*
X124394285Y-93562619D02*
X123918095Y-93562619D01*
X123918095Y-93562619D02*
X123870476Y-94038809D01*
X123870476Y-94038809D02*
X123918095Y-93991190D01*
X123918095Y-93991190D02*
X124013333Y-93943571D01*
X124013333Y-93943571D02*
X124251428Y-93943571D01*
X124251428Y-93943571D02*
X124346666Y-93991190D01*
X124346666Y-93991190D02*
X124394285Y-94038809D01*
X124394285Y-94038809D02*
X124441904Y-94134047D01*
X124441904Y-94134047D02*
X124441904Y-94372142D01*
X124441904Y-94372142D02*
X124394285Y-94467380D01*
X124394285Y-94467380D02*
X124346666Y-94515000D01*
X124346666Y-94515000D02*
X124251428Y-94562619D01*
X124251428Y-94562619D02*
X124013333Y-94562619D01*
X124013333Y-94562619D02*
X123918095Y-94515000D01*
X123918095Y-94515000D02*
X123870476Y-94467380D01*
X116279019Y-112454357D02*
X115802828Y-112787690D01*
X116279019Y-113025785D02*
X115279019Y-113025785D01*
X115279019Y-113025785D02*
X115279019Y-112644833D01*
X115279019Y-112644833D02*
X115326638Y-112549595D01*
X115326638Y-112549595D02*
X115374257Y-112501976D01*
X115374257Y-112501976D02*
X115469495Y-112454357D01*
X115469495Y-112454357D02*
X115612352Y-112454357D01*
X115612352Y-112454357D02*
X115707590Y-112501976D01*
X115707590Y-112501976D02*
X115755209Y-112549595D01*
X115755209Y-112549595D02*
X115802828Y-112644833D01*
X115802828Y-112644833D02*
X115802828Y-113025785D01*
X116279019Y-111501976D02*
X116279019Y-112073404D01*
X116279019Y-111787690D02*
X115279019Y-111787690D01*
X115279019Y-111787690D02*
X115421876Y-111882928D01*
X115421876Y-111882928D02*
X115517114Y-111978166D01*
X115517114Y-111978166D02*
X115564733Y-112073404D01*
X115612352Y-110644833D02*
X116279019Y-110644833D01*
X115231400Y-110882928D02*
X115945685Y-111121023D01*
X115945685Y-111121023D02*
X115945685Y-110501976D01*
X122437142Y-89332619D02*
X122103809Y-88856428D01*
X121865714Y-89332619D02*
X121865714Y-88332619D01*
X121865714Y-88332619D02*
X122246666Y-88332619D01*
X122246666Y-88332619D02*
X122341904Y-88380238D01*
X122341904Y-88380238D02*
X122389523Y-88427857D01*
X122389523Y-88427857D02*
X122437142Y-88523095D01*
X122437142Y-88523095D02*
X122437142Y-88665952D01*
X122437142Y-88665952D02*
X122389523Y-88761190D01*
X122389523Y-88761190D02*
X122341904Y-88808809D01*
X122341904Y-88808809D02*
X122246666Y-88856428D01*
X122246666Y-88856428D02*
X121865714Y-88856428D01*
X123389523Y-89332619D02*
X122818095Y-89332619D01*
X123103809Y-89332619D02*
X123103809Y-88332619D01*
X123103809Y-88332619D02*
X123008571Y-88475476D01*
X123008571Y-88475476D02*
X122913333Y-88570714D01*
X122913333Y-88570714D02*
X122818095Y-88618333D01*
X123722857Y-88332619D02*
X124341904Y-88332619D01*
X124341904Y-88332619D02*
X124008571Y-88713571D01*
X124008571Y-88713571D02*
X124151428Y-88713571D01*
X124151428Y-88713571D02*
X124246666Y-88761190D01*
X124246666Y-88761190D02*
X124294285Y-88808809D01*
X124294285Y-88808809D02*
X124341904Y-88904047D01*
X124341904Y-88904047D02*
X124341904Y-89142142D01*
X124341904Y-89142142D02*
X124294285Y-89237380D01*
X124294285Y-89237380D02*
X124246666Y-89285000D01*
X124246666Y-89285000D02*
X124151428Y-89332619D01*
X124151428Y-89332619D02*
X123865714Y-89332619D01*
X123865714Y-89332619D02*
X123770476Y-89285000D01*
X123770476Y-89285000D02*
X123722857Y-89237380D01*
X119487142Y-119252619D02*
X119153809Y-118776428D01*
X118915714Y-119252619D02*
X118915714Y-118252619D01*
X118915714Y-118252619D02*
X119296666Y-118252619D01*
X119296666Y-118252619D02*
X119391904Y-118300238D01*
X119391904Y-118300238D02*
X119439523Y-118347857D01*
X119439523Y-118347857D02*
X119487142Y-118443095D01*
X119487142Y-118443095D02*
X119487142Y-118585952D01*
X119487142Y-118585952D02*
X119439523Y-118681190D01*
X119439523Y-118681190D02*
X119391904Y-118728809D01*
X119391904Y-118728809D02*
X119296666Y-118776428D01*
X119296666Y-118776428D02*
X118915714Y-118776428D01*
X120439523Y-119252619D02*
X119868095Y-119252619D01*
X120153809Y-119252619D02*
X120153809Y-118252619D01*
X120153809Y-118252619D02*
X120058571Y-118395476D01*
X120058571Y-118395476D02*
X119963333Y-118490714D01*
X119963333Y-118490714D02*
X119868095Y-118538333D01*
X120820476Y-118347857D02*
X120868095Y-118300238D01*
X120868095Y-118300238D02*
X120963333Y-118252619D01*
X120963333Y-118252619D02*
X121201428Y-118252619D01*
X121201428Y-118252619D02*
X121296666Y-118300238D01*
X121296666Y-118300238D02*
X121344285Y-118347857D01*
X121344285Y-118347857D02*
X121391904Y-118443095D01*
X121391904Y-118443095D02*
X121391904Y-118538333D01*
X121391904Y-118538333D02*
X121344285Y-118681190D01*
X121344285Y-118681190D02*
X120772857Y-119252619D01*
X120772857Y-119252619D02*
X121391904Y-119252619D01*
X115652619Y-92168857D02*
X115176428Y-92502190D01*
X115652619Y-92740285D02*
X114652619Y-92740285D01*
X114652619Y-92740285D02*
X114652619Y-92359333D01*
X114652619Y-92359333D02*
X114700238Y-92264095D01*
X114700238Y-92264095D02*
X114747857Y-92216476D01*
X114747857Y-92216476D02*
X114843095Y-92168857D01*
X114843095Y-92168857D02*
X114985952Y-92168857D01*
X114985952Y-92168857D02*
X115081190Y-92216476D01*
X115081190Y-92216476D02*
X115128809Y-92264095D01*
X115128809Y-92264095D02*
X115176428Y-92359333D01*
X115176428Y-92359333D02*
X115176428Y-92740285D01*
X115652619Y-91216476D02*
X115652619Y-91787904D01*
X115652619Y-91502190D02*
X114652619Y-91502190D01*
X114652619Y-91502190D02*
X114795476Y-91597428D01*
X114795476Y-91597428D02*
X114890714Y-91692666D01*
X114890714Y-91692666D02*
X114938333Y-91787904D01*
X115652619Y-90264095D02*
X115652619Y-90835523D01*
X115652619Y-90549809D02*
X114652619Y-90549809D01*
X114652619Y-90549809D02*
X114795476Y-90645047D01*
X114795476Y-90645047D02*
X114890714Y-90740285D01*
X114890714Y-90740285D02*
X114938333Y-90835523D01*
X125595142Y-119334619D02*
X125261809Y-118858428D01*
X125023714Y-119334619D02*
X125023714Y-118334619D01*
X125023714Y-118334619D02*
X125404666Y-118334619D01*
X125404666Y-118334619D02*
X125499904Y-118382238D01*
X125499904Y-118382238D02*
X125547523Y-118429857D01*
X125547523Y-118429857D02*
X125595142Y-118525095D01*
X125595142Y-118525095D02*
X125595142Y-118667952D01*
X125595142Y-118667952D02*
X125547523Y-118763190D01*
X125547523Y-118763190D02*
X125499904Y-118810809D01*
X125499904Y-118810809D02*
X125404666Y-118858428D01*
X125404666Y-118858428D02*
X125023714Y-118858428D01*
X126547523Y-119334619D02*
X125976095Y-119334619D01*
X126261809Y-119334619D02*
X126261809Y-118334619D01*
X126261809Y-118334619D02*
X126166571Y-118477476D01*
X126166571Y-118477476D02*
X126071333Y-118572714D01*
X126071333Y-118572714D02*
X125976095Y-118620333D01*
X127166571Y-118334619D02*
X127261809Y-118334619D01*
X127261809Y-118334619D02*
X127357047Y-118382238D01*
X127357047Y-118382238D02*
X127404666Y-118429857D01*
X127404666Y-118429857D02*
X127452285Y-118525095D01*
X127452285Y-118525095D02*
X127499904Y-118715571D01*
X127499904Y-118715571D02*
X127499904Y-118953666D01*
X127499904Y-118953666D02*
X127452285Y-119144142D01*
X127452285Y-119144142D02*
X127404666Y-119239380D01*
X127404666Y-119239380D02*
X127357047Y-119287000D01*
X127357047Y-119287000D02*
X127261809Y-119334619D01*
X127261809Y-119334619D02*
X127166571Y-119334619D01*
X127166571Y-119334619D02*
X127071333Y-119287000D01*
X127071333Y-119287000D02*
X127023714Y-119239380D01*
X127023714Y-119239380D02*
X126976095Y-119144142D01*
X126976095Y-119144142D02*
X126928476Y-118953666D01*
X126928476Y-118953666D02*
X126928476Y-118715571D01*
X126928476Y-118715571D02*
X126976095Y-118525095D01*
X126976095Y-118525095D02*
X127023714Y-118429857D01*
X127023714Y-118429857D02*
X127071333Y-118382238D01*
X127071333Y-118382238D02*
X127166571Y-118334619D01*
X58761333Y-90758619D02*
X58428000Y-90282428D01*
X58189905Y-90758619D02*
X58189905Y-89758619D01*
X58189905Y-89758619D02*
X58570857Y-89758619D01*
X58570857Y-89758619D02*
X58666095Y-89806238D01*
X58666095Y-89806238D02*
X58713714Y-89853857D01*
X58713714Y-89853857D02*
X58761333Y-89949095D01*
X58761333Y-89949095D02*
X58761333Y-90091952D01*
X58761333Y-90091952D02*
X58713714Y-90187190D01*
X58713714Y-90187190D02*
X58666095Y-90234809D01*
X58666095Y-90234809D02*
X58570857Y-90282428D01*
X58570857Y-90282428D02*
X58189905Y-90282428D01*
X59237524Y-90758619D02*
X59428000Y-90758619D01*
X59428000Y-90758619D02*
X59523238Y-90711000D01*
X59523238Y-90711000D02*
X59570857Y-90663380D01*
X59570857Y-90663380D02*
X59666095Y-90520523D01*
X59666095Y-90520523D02*
X59713714Y-90330047D01*
X59713714Y-90330047D02*
X59713714Y-89949095D01*
X59713714Y-89949095D02*
X59666095Y-89853857D01*
X59666095Y-89853857D02*
X59618476Y-89806238D01*
X59618476Y-89806238D02*
X59523238Y-89758619D01*
X59523238Y-89758619D02*
X59332762Y-89758619D01*
X59332762Y-89758619D02*
X59237524Y-89806238D01*
X59237524Y-89806238D02*
X59189905Y-89853857D01*
X59189905Y-89853857D02*
X59142286Y-89949095D01*
X59142286Y-89949095D02*
X59142286Y-90187190D01*
X59142286Y-90187190D02*
X59189905Y-90282428D01*
X59189905Y-90282428D02*
X59237524Y-90330047D01*
X59237524Y-90330047D02*
X59332762Y-90377666D01*
X59332762Y-90377666D02*
X59523238Y-90377666D01*
X59523238Y-90377666D02*
X59618476Y-90330047D01*
X59618476Y-90330047D02*
X59666095Y-90282428D01*
X59666095Y-90282428D02*
X59713714Y-90187190D01*
X55205333Y-99776619D02*
X54872000Y-99300428D01*
X54633905Y-99776619D02*
X54633905Y-98776619D01*
X54633905Y-98776619D02*
X55014857Y-98776619D01*
X55014857Y-98776619D02*
X55110095Y-98824238D01*
X55110095Y-98824238D02*
X55157714Y-98871857D01*
X55157714Y-98871857D02*
X55205333Y-98967095D01*
X55205333Y-98967095D02*
X55205333Y-99109952D01*
X55205333Y-99109952D02*
X55157714Y-99205190D01*
X55157714Y-99205190D02*
X55110095Y-99252809D01*
X55110095Y-99252809D02*
X55014857Y-99300428D01*
X55014857Y-99300428D02*
X54633905Y-99300428D01*
X55776762Y-99205190D02*
X55681524Y-99157571D01*
X55681524Y-99157571D02*
X55633905Y-99109952D01*
X55633905Y-99109952D02*
X55586286Y-99014714D01*
X55586286Y-99014714D02*
X55586286Y-98967095D01*
X55586286Y-98967095D02*
X55633905Y-98871857D01*
X55633905Y-98871857D02*
X55681524Y-98824238D01*
X55681524Y-98824238D02*
X55776762Y-98776619D01*
X55776762Y-98776619D02*
X55967238Y-98776619D01*
X55967238Y-98776619D02*
X56062476Y-98824238D01*
X56062476Y-98824238D02*
X56110095Y-98871857D01*
X56110095Y-98871857D02*
X56157714Y-98967095D01*
X56157714Y-98967095D02*
X56157714Y-99014714D01*
X56157714Y-99014714D02*
X56110095Y-99109952D01*
X56110095Y-99109952D02*
X56062476Y-99157571D01*
X56062476Y-99157571D02*
X55967238Y-99205190D01*
X55967238Y-99205190D02*
X55776762Y-99205190D01*
X55776762Y-99205190D02*
X55681524Y-99252809D01*
X55681524Y-99252809D02*
X55633905Y-99300428D01*
X55633905Y-99300428D02*
X55586286Y-99395666D01*
X55586286Y-99395666D02*
X55586286Y-99586142D01*
X55586286Y-99586142D02*
X55633905Y-99681380D01*
X55633905Y-99681380D02*
X55681524Y-99729000D01*
X55681524Y-99729000D02*
X55776762Y-99776619D01*
X55776762Y-99776619D02*
X55967238Y-99776619D01*
X55967238Y-99776619D02*
X56062476Y-99729000D01*
X56062476Y-99729000D02*
X56110095Y-99681380D01*
X56110095Y-99681380D02*
X56157714Y-99586142D01*
X56157714Y-99586142D02*
X56157714Y-99395666D01*
X56157714Y-99395666D02*
X56110095Y-99300428D01*
X56110095Y-99300428D02*
X56062476Y-99252809D01*
X56062476Y-99252809D02*
X55967238Y-99205190D01*
X58253333Y-99776619D02*
X57920000Y-99300428D01*
X57681905Y-99776619D02*
X57681905Y-98776619D01*
X57681905Y-98776619D02*
X58062857Y-98776619D01*
X58062857Y-98776619D02*
X58158095Y-98824238D01*
X58158095Y-98824238D02*
X58205714Y-98871857D01*
X58205714Y-98871857D02*
X58253333Y-98967095D01*
X58253333Y-98967095D02*
X58253333Y-99109952D01*
X58253333Y-99109952D02*
X58205714Y-99205190D01*
X58205714Y-99205190D02*
X58158095Y-99252809D01*
X58158095Y-99252809D02*
X58062857Y-99300428D01*
X58062857Y-99300428D02*
X57681905Y-99300428D01*
X58586667Y-98776619D02*
X59253333Y-98776619D01*
X59253333Y-98776619D02*
X58824762Y-99776619D01*
X61301333Y-99776619D02*
X60968000Y-99300428D01*
X60729905Y-99776619D02*
X60729905Y-98776619D01*
X60729905Y-98776619D02*
X61110857Y-98776619D01*
X61110857Y-98776619D02*
X61206095Y-98824238D01*
X61206095Y-98824238D02*
X61253714Y-98871857D01*
X61253714Y-98871857D02*
X61301333Y-98967095D01*
X61301333Y-98967095D02*
X61301333Y-99109952D01*
X61301333Y-99109952D02*
X61253714Y-99205190D01*
X61253714Y-99205190D02*
X61206095Y-99252809D01*
X61206095Y-99252809D02*
X61110857Y-99300428D01*
X61110857Y-99300428D02*
X60729905Y-99300428D01*
X62158476Y-98776619D02*
X61968000Y-98776619D01*
X61968000Y-98776619D02*
X61872762Y-98824238D01*
X61872762Y-98824238D02*
X61825143Y-98871857D01*
X61825143Y-98871857D02*
X61729905Y-99014714D01*
X61729905Y-99014714D02*
X61682286Y-99205190D01*
X61682286Y-99205190D02*
X61682286Y-99586142D01*
X61682286Y-99586142D02*
X61729905Y-99681380D01*
X61729905Y-99681380D02*
X61777524Y-99729000D01*
X61777524Y-99729000D02*
X61872762Y-99776619D01*
X61872762Y-99776619D02*
X62063238Y-99776619D01*
X62063238Y-99776619D02*
X62158476Y-99729000D01*
X62158476Y-99729000D02*
X62206095Y-99681380D01*
X62206095Y-99681380D02*
X62253714Y-99586142D01*
X62253714Y-99586142D02*
X62253714Y-99348047D01*
X62253714Y-99348047D02*
X62206095Y-99252809D01*
X62206095Y-99252809D02*
X62158476Y-99205190D01*
X62158476Y-99205190D02*
X62063238Y-99157571D01*
X62063238Y-99157571D02*
X61872762Y-99157571D01*
X61872762Y-99157571D02*
X61777524Y-99205190D01*
X61777524Y-99205190D02*
X61729905Y-99252809D01*
X61729905Y-99252809D02*
X61682286Y-99348047D01*
X85456619Y-86047166D02*
X84980428Y-86380499D01*
X85456619Y-86618594D02*
X84456619Y-86618594D01*
X84456619Y-86618594D02*
X84456619Y-86237642D01*
X84456619Y-86237642D02*
X84504238Y-86142404D01*
X84504238Y-86142404D02*
X84551857Y-86094785D01*
X84551857Y-86094785D02*
X84647095Y-86047166D01*
X84647095Y-86047166D02*
X84789952Y-86047166D01*
X84789952Y-86047166D02*
X84885190Y-86094785D01*
X84885190Y-86094785D02*
X84932809Y-86142404D01*
X84932809Y-86142404D02*
X84980428Y-86237642D01*
X84980428Y-86237642D02*
X84980428Y-86618594D01*
X84456619Y-85142404D02*
X84456619Y-85618594D01*
X84456619Y-85618594D02*
X84932809Y-85666213D01*
X84932809Y-85666213D02*
X84885190Y-85618594D01*
X84885190Y-85618594D02*
X84837571Y-85523356D01*
X84837571Y-85523356D02*
X84837571Y-85285261D01*
X84837571Y-85285261D02*
X84885190Y-85190023D01*
X84885190Y-85190023D02*
X84932809Y-85142404D01*
X84932809Y-85142404D02*
X85028047Y-85094785D01*
X85028047Y-85094785D02*
X85266142Y-85094785D01*
X85266142Y-85094785D02*
X85361380Y-85142404D01*
X85361380Y-85142404D02*
X85409000Y-85190023D01*
X85409000Y-85190023D02*
X85456619Y-85285261D01*
X85456619Y-85285261D02*
X85456619Y-85523356D01*
X85456619Y-85523356D02*
X85409000Y-85618594D01*
X85409000Y-85618594D02*
X85361380Y-85666213D01*
X82154619Y-86150666D02*
X81678428Y-86483999D01*
X82154619Y-86722094D02*
X81154619Y-86722094D01*
X81154619Y-86722094D02*
X81154619Y-86341142D01*
X81154619Y-86341142D02*
X81202238Y-86245904D01*
X81202238Y-86245904D02*
X81249857Y-86198285D01*
X81249857Y-86198285D02*
X81345095Y-86150666D01*
X81345095Y-86150666D02*
X81487952Y-86150666D01*
X81487952Y-86150666D02*
X81583190Y-86198285D01*
X81583190Y-86198285D02*
X81630809Y-86245904D01*
X81630809Y-86245904D02*
X81678428Y-86341142D01*
X81678428Y-86341142D02*
X81678428Y-86722094D01*
X81487952Y-85293523D02*
X82154619Y-85293523D01*
X81107000Y-85531618D02*
X81821285Y-85769713D01*
X81821285Y-85769713D02*
X81821285Y-85150666D01*
X51136619Y-100750666D02*
X50660428Y-101083999D01*
X51136619Y-101322094D02*
X50136619Y-101322094D01*
X50136619Y-101322094D02*
X50136619Y-100941142D01*
X50136619Y-100941142D02*
X50184238Y-100845904D01*
X50184238Y-100845904D02*
X50231857Y-100798285D01*
X50231857Y-100798285D02*
X50327095Y-100750666D01*
X50327095Y-100750666D02*
X50469952Y-100750666D01*
X50469952Y-100750666D02*
X50565190Y-100798285D01*
X50565190Y-100798285D02*
X50612809Y-100845904D01*
X50612809Y-100845904D02*
X50660428Y-100941142D01*
X50660428Y-100941142D02*
X50660428Y-101322094D01*
X50136619Y-100417332D02*
X50136619Y-99798285D01*
X50136619Y-99798285D02*
X50517571Y-100131618D01*
X50517571Y-100131618D02*
X50517571Y-99988761D01*
X50517571Y-99988761D02*
X50565190Y-99893523D01*
X50565190Y-99893523D02*
X50612809Y-99845904D01*
X50612809Y-99845904D02*
X50708047Y-99798285D01*
X50708047Y-99798285D02*
X50946142Y-99798285D01*
X50946142Y-99798285D02*
X51041380Y-99845904D01*
X51041380Y-99845904D02*
X51089000Y-99893523D01*
X51089000Y-99893523D02*
X51136619Y-99988761D01*
X51136619Y-99988761D02*
X51136619Y-100274475D01*
X51136619Y-100274475D02*
X51089000Y-100369713D01*
X51089000Y-100369713D02*
X51041380Y-100417332D01*
X61809333Y-109936619D02*
X61476000Y-109460428D01*
X61237905Y-109936619D02*
X61237905Y-108936619D01*
X61237905Y-108936619D02*
X61618857Y-108936619D01*
X61618857Y-108936619D02*
X61714095Y-108984238D01*
X61714095Y-108984238D02*
X61761714Y-109031857D01*
X61761714Y-109031857D02*
X61809333Y-109127095D01*
X61809333Y-109127095D02*
X61809333Y-109269952D01*
X61809333Y-109269952D02*
X61761714Y-109365190D01*
X61761714Y-109365190D02*
X61714095Y-109412809D01*
X61714095Y-109412809D02*
X61618857Y-109460428D01*
X61618857Y-109460428D02*
X61237905Y-109460428D01*
X62190286Y-109031857D02*
X62237905Y-108984238D01*
X62237905Y-108984238D02*
X62333143Y-108936619D01*
X62333143Y-108936619D02*
X62571238Y-108936619D01*
X62571238Y-108936619D02*
X62666476Y-108984238D01*
X62666476Y-108984238D02*
X62714095Y-109031857D01*
X62714095Y-109031857D02*
X62761714Y-109127095D01*
X62761714Y-109127095D02*
X62761714Y-109222333D01*
X62761714Y-109222333D02*
X62714095Y-109365190D01*
X62714095Y-109365190D02*
X62142667Y-109936619D01*
X62142667Y-109936619D02*
X62761714Y-109936619D01*
X67412619Y-116466666D02*
X66936428Y-116799999D01*
X67412619Y-117038094D02*
X66412619Y-117038094D01*
X66412619Y-117038094D02*
X66412619Y-116657142D01*
X66412619Y-116657142D02*
X66460238Y-116561904D01*
X66460238Y-116561904D02*
X66507857Y-116514285D01*
X66507857Y-116514285D02*
X66603095Y-116466666D01*
X66603095Y-116466666D02*
X66745952Y-116466666D01*
X66745952Y-116466666D02*
X66841190Y-116514285D01*
X66841190Y-116514285D02*
X66888809Y-116561904D01*
X66888809Y-116561904D02*
X66936428Y-116657142D01*
X66936428Y-116657142D02*
X66936428Y-117038094D01*
X67412619Y-115514285D02*
X67412619Y-116085713D01*
X67412619Y-115799999D02*
X66412619Y-115799999D01*
X66412619Y-115799999D02*
X66555476Y-115895237D01*
X66555476Y-115895237D02*
X66650714Y-115990475D01*
X66650714Y-115990475D02*
X66698333Y-116085713D01*
X56747380Y-117022857D02*
X56795000Y-117070476D01*
X56795000Y-117070476D02*
X56842619Y-117213333D01*
X56842619Y-117213333D02*
X56842619Y-117308571D01*
X56842619Y-117308571D02*
X56795000Y-117451428D01*
X56795000Y-117451428D02*
X56699761Y-117546666D01*
X56699761Y-117546666D02*
X56604523Y-117594285D01*
X56604523Y-117594285D02*
X56414047Y-117641904D01*
X56414047Y-117641904D02*
X56271190Y-117641904D01*
X56271190Y-117641904D02*
X56080714Y-117594285D01*
X56080714Y-117594285D02*
X55985476Y-117546666D01*
X55985476Y-117546666D02*
X55890238Y-117451428D01*
X55890238Y-117451428D02*
X55842619Y-117308571D01*
X55842619Y-117308571D02*
X55842619Y-117213333D01*
X55842619Y-117213333D02*
X55890238Y-117070476D01*
X55890238Y-117070476D02*
X55937857Y-117022857D01*
X55842619Y-116689523D02*
X55842619Y-116070476D01*
X55842619Y-116070476D02*
X56223571Y-116403809D01*
X56223571Y-116403809D02*
X56223571Y-116260952D01*
X56223571Y-116260952D02*
X56271190Y-116165714D01*
X56271190Y-116165714D02*
X56318809Y-116118095D01*
X56318809Y-116118095D02*
X56414047Y-116070476D01*
X56414047Y-116070476D02*
X56652142Y-116070476D01*
X56652142Y-116070476D02*
X56747380Y-116118095D01*
X56747380Y-116118095D02*
X56795000Y-116165714D01*
X56795000Y-116165714D02*
X56842619Y-116260952D01*
X56842619Y-116260952D02*
X56842619Y-116546666D01*
X56842619Y-116546666D02*
X56795000Y-116641904D01*
X56795000Y-116641904D02*
X56747380Y-116689523D01*
X56175952Y-115213333D02*
X56842619Y-115213333D01*
X55795000Y-115451428D02*
X56509285Y-115689523D01*
X56509285Y-115689523D02*
X56509285Y-115070476D01*
X104017380Y-117772857D02*
X104065000Y-117820476D01*
X104065000Y-117820476D02*
X104112619Y-117963333D01*
X104112619Y-117963333D02*
X104112619Y-118058571D01*
X104112619Y-118058571D02*
X104065000Y-118201428D01*
X104065000Y-118201428D02*
X103969761Y-118296666D01*
X103969761Y-118296666D02*
X103874523Y-118344285D01*
X103874523Y-118344285D02*
X103684047Y-118391904D01*
X103684047Y-118391904D02*
X103541190Y-118391904D01*
X103541190Y-118391904D02*
X103350714Y-118344285D01*
X103350714Y-118344285D02*
X103255476Y-118296666D01*
X103255476Y-118296666D02*
X103160238Y-118201428D01*
X103160238Y-118201428D02*
X103112619Y-118058571D01*
X103112619Y-118058571D02*
X103112619Y-117963333D01*
X103112619Y-117963333D02*
X103160238Y-117820476D01*
X103160238Y-117820476D02*
X103207857Y-117772857D01*
X103112619Y-117439523D02*
X103112619Y-116820476D01*
X103112619Y-116820476D02*
X103493571Y-117153809D01*
X103493571Y-117153809D02*
X103493571Y-117010952D01*
X103493571Y-117010952D02*
X103541190Y-116915714D01*
X103541190Y-116915714D02*
X103588809Y-116868095D01*
X103588809Y-116868095D02*
X103684047Y-116820476D01*
X103684047Y-116820476D02*
X103922142Y-116820476D01*
X103922142Y-116820476D02*
X104017380Y-116868095D01*
X104017380Y-116868095D02*
X104065000Y-116915714D01*
X104065000Y-116915714D02*
X104112619Y-117010952D01*
X104112619Y-117010952D02*
X104112619Y-117296666D01*
X104112619Y-117296666D02*
X104065000Y-117391904D01*
X104065000Y-117391904D02*
X104017380Y-117439523D01*
X103112619Y-116487142D02*
X103112619Y-115868095D01*
X103112619Y-115868095D02*
X103493571Y-116201428D01*
X103493571Y-116201428D02*
X103493571Y-116058571D01*
X103493571Y-116058571D02*
X103541190Y-115963333D01*
X103541190Y-115963333D02*
X103588809Y-115915714D01*
X103588809Y-115915714D02*
X103684047Y-115868095D01*
X103684047Y-115868095D02*
X103922142Y-115868095D01*
X103922142Y-115868095D02*
X104017380Y-115915714D01*
X104017380Y-115915714D02*
X104065000Y-115963333D01*
X104065000Y-115963333D02*
X104112619Y-116058571D01*
X104112619Y-116058571D02*
X104112619Y-116344285D01*
X104112619Y-116344285D02*
X104065000Y-116439523D01*
X104065000Y-116439523D02*
X104017380Y-116487142D01*
X103987380Y-112042857D02*
X104035000Y-112090476D01*
X104035000Y-112090476D02*
X104082619Y-112233333D01*
X104082619Y-112233333D02*
X104082619Y-112328571D01*
X104082619Y-112328571D02*
X104035000Y-112471428D01*
X104035000Y-112471428D02*
X103939761Y-112566666D01*
X103939761Y-112566666D02*
X103844523Y-112614285D01*
X103844523Y-112614285D02*
X103654047Y-112661904D01*
X103654047Y-112661904D02*
X103511190Y-112661904D01*
X103511190Y-112661904D02*
X103320714Y-112614285D01*
X103320714Y-112614285D02*
X103225476Y-112566666D01*
X103225476Y-112566666D02*
X103130238Y-112471428D01*
X103130238Y-112471428D02*
X103082619Y-112328571D01*
X103082619Y-112328571D02*
X103082619Y-112233333D01*
X103082619Y-112233333D02*
X103130238Y-112090476D01*
X103130238Y-112090476D02*
X103177857Y-112042857D01*
X103082619Y-111709523D02*
X103082619Y-111090476D01*
X103082619Y-111090476D02*
X103463571Y-111423809D01*
X103463571Y-111423809D02*
X103463571Y-111280952D01*
X103463571Y-111280952D02*
X103511190Y-111185714D01*
X103511190Y-111185714D02*
X103558809Y-111138095D01*
X103558809Y-111138095D02*
X103654047Y-111090476D01*
X103654047Y-111090476D02*
X103892142Y-111090476D01*
X103892142Y-111090476D02*
X103987380Y-111138095D01*
X103987380Y-111138095D02*
X104035000Y-111185714D01*
X104035000Y-111185714D02*
X104082619Y-111280952D01*
X104082619Y-111280952D02*
X104082619Y-111566666D01*
X104082619Y-111566666D02*
X104035000Y-111661904D01*
X104035000Y-111661904D02*
X103987380Y-111709523D01*
X103177857Y-110709523D02*
X103130238Y-110661904D01*
X103130238Y-110661904D02*
X103082619Y-110566666D01*
X103082619Y-110566666D02*
X103082619Y-110328571D01*
X103082619Y-110328571D02*
X103130238Y-110233333D01*
X103130238Y-110233333D02*
X103177857Y-110185714D01*
X103177857Y-110185714D02*
X103273095Y-110138095D01*
X103273095Y-110138095D02*
X103368333Y-110138095D01*
X103368333Y-110138095D02*
X103511190Y-110185714D01*
X103511190Y-110185714D02*
X104082619Y-110757142D01*
X104082619Y-110757142D02*
X104082619Y-110138095D01*
X73824142Y-120863380D02*
X73776523Y-120911000D01*
X73776523Y-120911000D02*
X73633666Y-120958619D01*
X73633666Y-120958619D02*
X73538428Y-120958619D01*
X73538428Y-120958619D02*
X73395571Y-120911000D01*
X73395571Y-120911000D02*
X73300333Y-120815761D01*
X73300333Y-120815761D02*
X73252714Y-120720523D01*
X73252714Y-120720523D02*
X73205095Y-120530047D01*
X73205095Y-120530047D02*
X73205095Y-120387190D01*
X73205095Y-120387190D02*
X73252714Y-120196714D01*
X73252714Y-120196714D02*
X73300333Y-120101476D01*
X73300333Y-120101476D02*
X73395571Y-120006238D01*
X73395571Y-120006238D02*
X73538428Y-119958619D01*
X73538428Y-119958619D02*
X73633666Y-119958619D01*
X73633666Y-119958619D02*
X73776523Y-120006238D01*
X73776523Y-120006238D02*
X73824142Y-120053857D01*
X74157476Y-119958619D02*
X74776523Y-119958619D01*
X74776523Y-119958619D02*
X74443190Y-120339571D01*
X74443190Y-120339571D02*
X74586047Y-120339571D01*
X74586047Y-120339571D02*
X74681285Y-120387190D01*
X74681285Y-120387190D02*
X74728904Y-120434809D01*
X74728904Y-120434809D02*
X74776523Y-120530047D01*
X74776523Y-120530047D02*
X74776523Y-120768142D01*
X74776523Y-120768142D02*
X74728904Y-120863380D01*
X74728904Y-120863380D02*
X74681285Y-120911000D01*
X74681285Y-120911000D02*
X74586047Y-120958619D01*
X74586047Y-120958619D02*
X74300333Y-120958619D01*
X74300333Y-120958619D02*
X74205095Y-120911000D01*
X74205095Y-120911000D02*
X74157476Y-120863380D01*
X75728904Y-120958619D02*
X75157476Y-120958619D01*
X75443190Y-120958619D02*
X75443190Y-119958619D01*
X75443190Y-119958619D02*
X75347952Y-120101476D01*
X75347952Y-120101476D02*
X75252714Y-120196714D01*
X75252714Y-120196714D02*
X75157476Y-120244333D01*
X77307142Y-114227380D02*
X77259523Y-114275000D01*
X77259523Y-114275000D02*
X77116666Y-114322619D01*
X77116666Y-114322619D02*
X77021428Y-114322619D01*
X77021428Y-114322619D02*
X76878571Y-114275000D01*
X76878571Y-114275000D02*
X76783333Y-114179761D01*
X76783333Y-114179761D02*
X76735714Y-114084523D01*
X76735714Y-114084523D02*
X76688095Y-113894047D01*
X76688095Y-113894047D02*
X76688095Y-113751190D01*
X76688095Y-113751190D02*
X76735714Y-113560714D01*
X76735714Y-113560714D02*
X76783333Y-113465476D01*
X76783333Y-113465476D02*
X76878571Y-113370238D01*
X76878571Y-113370238D02*
X77021428Y-113322619D01*
X77021428Y-113322619D02*
X77116666Y-113322619D01*
X77116666Y-113322619D02*
X77259523Y-113370238D01*
X77259523Y-113370238D02*
X77307142Y-113417857D01*
X77640476Y-113322619D02*
X78259523Y-113322619D01*
X78259523Y-113322619D02*
X77926190Y-113703571D01*
X77926190Y-113703571D02*
X78069047Y-113703571D01*
X78069047Y-113703571D02*
X78164285Y-113751190D01*
X78164285Y-113751190D02*
X78211904Y-113798809D01*
X78211904Y-113798809D02*
X78259523Y-113894047D01*
X78259523Y-113894047D02*
X78259523Y-114132142D01*
X78259523Y-114132142D02*
X78211904Y-114227380D01*
X78211904Y-114227380D02*
X78164285Y-114275000D01*
X78164285Y-114275000D02*
X78069047Y-114322619D01*
X78069047Y-114322619D02*
X77783333Y-114322619D01*
X77783333Y-114322619D02*
X77688095Y-114275000D01*
X77688095Y-114275000D02*
X77640476Y-114227380D01*
X78878571Y-113322619D02*
X78973809Y-113322619D01*
X78973809Y-113322619D02*
X79069047Y-113370238D01*
X79069047Y-113370238D02*
X79116666Y-113417857D01*
X79116666Y-113417857D02*
X79164285Y-113513095D01*
X79164285Y-113513095D02*
X79211904Y-113703571D01*
X79211904Y-113703571D02*
X79211904Y-113941666D01*
X79211904Y-113941666D02*
X79164285Y-114132142D01*
X79164285Y-114132142D02*
X79116666Y-114227380D01*
X79116666Y-114227380D02*
X79069047Y-114275000D01*
X79069047Y-114275000D02*
X78973809Y-114322619D01*
X78973809Y-114322619D02*
X78878571Y-114322619D01*
X78878571Y-114322619D02*
X78783333Y-114275000D01*
X78783333Y-114275000D02*
X78735714Y-114227380D01*
X78735714Y-114227380D02*
X78688095Y-114132142D01*
X78688095Y-114132142D02*
X78640476Y-113941666D01*
X78640476Y-113941666D02*
X78640476Y-113703571D01*
X78640476Y-113703571D02*
X78688095Y-113513095D01*
X78688095Y-113513095D02*
X78735714Y-113417857D01*
X78735714Y-113417857D02*
X78783333Y-113370238D01*
X78783333Y-113370238D02*
X78878571Y-113322619D01*
X64635142Y-109841380D02*
X64587523Y-109889000D01*
X64587523Y-109889000D02*
X64444666Y-109936619D01*
X64444666Y-109936619D02*
X64349428Y-109936619D01*
X64349428Y-109936619D02*
X64206571Y-109889000D01*
X64206571Y-109889000D02*
X64111333Y-109793761D01*
X64111333Y-109793761D02*
X64063714Y-109698523D01*
X64063714Y-109698523D02*
X64016095Y-109508047D01*
X64016095Y-109508047D02*
X64016095Y-109365190D01*
X64016095Y-109365190D02*
X64063714Y-109174714D01*
X64063714Y-109174714D02*
X64111333Y-109079476D01*
X64111333Y-109079476D02*
X64206571Y-108984238D01*
X64206571Y-108984238D02*
X64349428Y-108936619D01*
X64349428Y-108936619D02*
X64444666Y-108936619D01*
X64444666Y-108936619D02*
X64587523Y-108984238D01*
X64587523Y-108984238D02*
X64635142Y-109031857D01*
X65016095Y-109031857D02*
X65063714Y-108984238D01*
X65063714Y-108984238D02*
X65158952Y-108936619D01*
X65158952Y-108936619D02*
X65397047Y-108936619D01*
X65397047Y-108936619D02*
X65492285Y-108984238D01*
X65492285Y-108984238D02*
X65539904Y-109031857D01*
X65539904Y-109031857D02*
X65587523Y-109127095D01*
X65587523Y-109127095D02*
X65587523Y-109222333D01*
X65587523Y-109222333D02*
X65539904Y-109365190D01*
X65539904Y-109365190D02*
X64968476Y-109936619D01*
X64968476Y-109936619D02*
X65587523Y-109936619D01*
X66063714Y-109936619D02*
X66254190Y-109936619D01*
X66254190Y-109936619D02*
X66349428Y-109889000D01*
X66349428Y-109889000D02*
X66397047Y-109841380D01*
X66397047Y-109841380D02*
X66492285Y-109698523D01*
X66492285Y-109698523D02*
X66539904Y-109508047D01*
X66539904Y-109508047D02*
X66539904Y-109127095D01*
X66539904Y-109127095D02*
X66492285Y-109031857D01*
X66492285Y-109031857D02*
X66444666Y-108984238D01*
X66444666Y-108984238D02*
X66349428Y-108936619D01*
X66349428Y-108936619D02*
X66158952Y-108936619D01*
X66158952Y-108936619D02*
X66063714Y-108984238D01*
X66063714Y-108984238D02*
X66016095Y-109031857D01*
X66016095Y-109031857D02*
X65968476Y-109127095D01*
X65968476Y-109127095D02*
X65968476Y-109365190D01*
X65968476Y-109365190D02*
X66016095Y-109460428D01*
X66016095Y-109460428D02*
X66063714Y-109508047D01*
X66063714Y-109508047D02*
X66158952Y-109555666D01*
X66158952Y-109555666D02*
X66349428Y-109555666D01*
X66349428Y-109555666D02*
X66444666Y-109508047D01*
X66444666Y-109508047D02*
X66492285Y-109460428D01*
X66492285Y-109460428D02*
X66539904Y-109365190D01*
X104237380Y-106242857D02*
X104285000Y-106290476D01*
X104285000Y-106290476D02*
X104332619Y-106433333D01*
X104332619Y-106433333D02*
X104332619Y-106528571D01*
X104332619Y-106528571D02*
X104285000Y-106671428D01*
X104285000Y-106671428D02*
X104189761Y-106766666D01*
X104189761Y-106766666D02*
X104094523Y-106814285D01*
X104094523Y-106814285D02*
X103904047Y-106861904D01*
X103904047Y-106861904D02*
X103761190Y-106861904D01*
X103761190Y-106861904D02*
X103570714Y-106814285D01*
X103570714Y-106814285D02*
X103475476Y-106766666D01*
X103475476Y-106766666D02*
X103380238Y-106671428D01*
X103380238Y-106671428D02*
X103332619Y-106528571D01*
X103332619Y-106528571D02*
X103332619Y-106433333D01*
X103332619Y-106433333D02*
X103380238Y-106290476D01*
X103380238Y-106290476D02*
X103427857Y-106242857D01*
X103427857Y-105861904D02*
X103380238Y-105814285D01*
X103380238Y-105814285D02*
X103332619Y-105719047D01*
X103332619Y-105719047D02*
X103332619Y-105480952D01*
X103332619Y-105480952D02*
X103380238Y-105385714D01*
X103380238Y-105385714D02*
X103427857Y-105338095D01*
X103427857Y-105338095D02*
X103523095Y-105290476D01*
X103523095Y-105290476D02*
X103618333Y-105290476D01*
X103618333Y-105290476D02*
X103761190Y-105338095D01*
X103761190Y-105338095D02*
X104332619Y-105909523D01*
X104332619Y-105909523D02*
X104332619Y-105290476D01*
X103761190Y-104719047D02*
X103713571Y-104814285D01*
X103713571Y-104814285D02*
X103665952Y-104861904D01*
X103665952Y-104861904D02*
X103570714Y-104909523D01*
X103570714Y-104909523D02*
X103523095Y-104909523D01*
X103523095Y-104909523D02*
X103427857Y-104861904D01*
X103427857Y-104861904D02*
X103380238Y-104814285D01*
X103380238Y-104814285D02*
X103332619Y-104719047D01*
X103332619Y-104719047D02*
X103332619Y-104528571D01*
X103332619Y-104528571D02*
X103380238Y-104433333D01*
X103380238Y-104433333D02*
X103427857Y-104385714D01*
X103427857Y-104385714D02*
X103523095Y-104338095D01*
X103523095Y-104338095D02*
X103570714Y-104338095D01*
X103570714Y-104338095D02*
X103665952Y-104385714D01*
X103665952Y-104385714D02*
X103713571Y-104433333D01*
X103713571Y-104433333D02*
X103761190Y-104528571D01*
X103761190Y-104528571D02*
X103761190Y-104719047D01*
X103761190Y-104719047D02*
X103808809Y-104814285D01*
X103808809Y-104814285D02*
X103856428Y-104861904D01*
X103856428Y-104861904D02*
X103951666Y-104909523D01*
X103951666Y-104909523D02*
X104142142Y-104909523D01*
X104142142Y-104909523D02*
X104237380Y-104861904D01*
X104237380Y-104861904D02*
X104285000Y-104814285D01*
X104285000Y-104814285D02*
X104332619Y-104719047D01*
X104332619Y-104719047D02*
X104332619Y-104528571D01*
X104332619Y-104528571D02*
X104285000Y-104433333D01*
X104285000Y-104433333D02*
X104237380Y-104385714D01*
X104237380Y-104385714D02*
X104142142Y-104338095D01*
X104142142Y-104338095D02*
X103951666Y-104338095D01*
X103951666Y-104338095D02*
X103856428Y-104385714D01*
X103856428Y-104385714D02*
X103808809Y-104433333D01*
X103808809Y-104433333D02*
X103761190Y-104528571D01*
X104127380Y-100472857D02*
X104175000Y-100520476D01*
X104175000Y-100520476D02*
X104222619Y-100663333D01*
X104222619Y-100663333D02*
X104222619Y-100758571D01*
X104222619Y-100758571D02*
X104175000Y-100901428D01*
X104175000Y-100901428D02*
X104079761Y-100996666D01*
X104079761Y-100996666D02*
X103984523Y-101044285D01*
X103984523Y-101044285D02*
X103794047Y-101091904D01*
X103794047Y-101091904D02*
X103651190Y-101091904D01*
X103651190Y-101091904D02*
X103460714Y-101044285D01*
X103460714Y-101044285D02*
X103365476Y-100996666D01*
X103365476Y-100996666D02*
X103270238Y-100901428D01*
X103270238Y-100901428D02*
X103222619Y-100758571D01*
X103222619Y-100758571D02*
X103222619Y-100663333D01*
X103222619Y-100663333D02*
X103270238Y-100520476D01*
X103270238Y-100520476D02*
X103317857Y-100472857D01*
X103317857Y-100091904D02*
X103270238Y-100044285D01*
X103270238Y-100044285D02*
X103222619Y-99949047D01*
X103222619Y-99949047D02*
X103222619Y-99710952D01*
X103222619Y-99710952D02*
X103270238Y-99615714D01*
X103270238Y-99615714D02*
X103317857Y-99568095D01*
X103317857Y-99568095D02*
X103413095Y-99520476D01*
X103413095Y-99520476D02*
X103508333Y-99520476D01*
X103508333Y-99520476D02*
X103651190Y-99568095D01*
X103651190Y-99568095D02*
X104222619Y-100139523D01*
X104222619Y-100139523D02*
X104222619Y-99520476D01*
X103222619Y-99187142D02*
X103222619Y-98520476D01*
X103222619Y-98520476D02*
X104222619Y-98949047D01*
X79187380Y-106542857D02*
X79235000Y-106590476D01*
X79235000Y-106590476D02*
X79282619Y-106733333D01*
X79282619Y-106733333D02*
X79282619Y-106828571D01*
X79282619Y-106828571D02*
X79235000Y-106971428D01*
X79235000Y-106971428D02*
X79139761Y-107066666D01*
X79139761Y-107066666D02*
X79044523Y-107114285D01*
X79044523Y-107114285D02*
X78854047Y-107161904D01*
X78854047Y-107161904D02*
X78711190Y-107161904D01*
X78711190Y-107161904D02*
X78520714Y-107114285D01*
X78520714Y-107114285D02*
X78425476Y-107066666D01*
X78425476Y-107066666D02*
X78330238Y-106971428D01*
X78330238Y-106971428D02*
X78282619Y-106828571D01*
X78282619Y-106828571D02*
X78282619Y-106733333D01*
X78282619Y-106733333D02*
X78330238Y-106590476D01*
X78330238Y-106590476D02*
X78377857Y-106542857D01*
X78377857Y-106161904D02*
X78330238Y-106114285D01*
X78330238Y-106114285D02*
X78282619Y-106019047D01*
X78282619Y-106019047D02*
X78282619Y-105780952D01*
X78282619Y-105780952D02*
X78330238Y-105685714D01*
X78330238Y-105685714D02*
X78377857Y-105638095D01*
X78377857Y-105638095D02*
X78473095Y-105590476D01*
X78473095Y-105590476D02*
X78568333Y-105590476D01*
X78568333Y-105590476D02*
X78711190Y-105638095D01*
X78711190Y-105638095D02*
X79282619Y-106209523D01*
X79282619Y-106209523D02*
X79282619Y-105590476D01*
X78282619Y-104733333D02*
X78282619Y-104923809D01*
X78282619Y-104923809D02*
X78330238Y-105019047D01*
X78330238Y-105019047D02*
X78377857Y-105066666D01*
X78377857Y-105066666D02*
X78520714Y-105161904D01*
X78520714Y-105161904D02*
X78711190Y-105209523D01*
X78711190Y-105209523D02*
X79092142Y-105209523D01*
X79092142Y-105209523D02*
X79187380Y-105161904D01*
X79187380Y-105161904D02*
X79235000Y-105114285D01*
X79235000Y-105114285D02*
X79282619Y-105019047D01*
X79282619Y-105019047D02*
X79282619Y-104828571D01*
X79282619Y-104828571D02*
X79235000Y-104733333D01*
X79235000Y-104733333D02*
X79187380Y-104685714D01*
X79187380Y-104685714D02*
X79092142Y-104638095D01*
X79092142Y-104638095D02*
X78854047Y-104638095D01*
X78854047Y-104638095D02*
X78758809Y-104685714D01*
X78758809Y-104685714D02*
X78711190Y-104733333D01*
X78711190Y-104733333D02*
X78663571Y-104828571D01*
X78663571Y-104828571D02*
X78663571Y-105019047D01*
X78663571Y-105019047D02*
X78711190Y-105114285D01*
X78711190Y-105114285D02*
X78758809Y-105161904D01*
X78758809Y-105161904D02*
X78854047Y-105209523D01*
X76907142Y-97497380D02*
X76859523Y-97545000D01*
X76859523Y-97545000D02*
X76716666Y-97592619D01*
X76716666Y-97592619D02*
X76621428Y-97592619D01*
X76621428Y-97592619D02*
X76478571Y-97545000D01*
X76478571Y-97545000D02*
X76383333Y-97449761D01*
X76383333Y-97449761D02*
X76335714Y-97354523D01*
X76335714Y-97354523D02*
X76288095Y-97164047D01*
X76288095Y-97164047D02*
X76288095Y-97021190D01*
X76288095Y-97021190D02*
X76335714Y-96830714D01*
X76335714Y-96830714D02*
X76383333Y-96735476D01*
X76383333Y-96735476D02*
X76478571Y-96640238D01*
X76478571Y-96640238D02*
X76621428Y-96592619D01*
X76621428Y-96592619D02*
X76716666Y-96592619D01*
X76716666Y-96592619D02*
X76859523Y-96640238D01*
X76859523Y-96640238D02*
X76907142Y-96687857D01*
X77288095Y-96687857D02*
X77335714Y-96640238D01*
X77335714Y-96640238D02*
X77430952Y-96592619D01*
X77430952Y-96592619D02*
X77669047Y-96592619D01*
X77669047Y-96592619D02*
X77764285Y-96640238D01*
X77764285Y-96640238D02*
X77811904Y-96687857D01*
X77811904Y-96687857D02*
X77859523Y-96783095D01*
X77859523Y-96783095D02*
X77859523Y-96878333D01*
X77859523Y-96878333D02*
X77811904Y-97021190D01*
X77811904Y-97021190D02*
X77240476Y-97592619D01*
X77240476Y-97592619D02*
X77859523Y-97592619D01*
X78764285Y-96592619D02*
X78288095Y-96592619D01*
X78288095Y-96592619D02*
X78240476Y-97068809D01*
X78240476Y-97068809D02*
X78288095Y-97021190D01*
X78288095Y-97021190D02*
X78383333Y-96973571D01*
X78383333Y-96973571D02*
X78621428Y-96973571D01*
X78621428Y-96973571D02*
X78716666Y-97021190D01*
X78716666Y-97021190D02*
X78764285Y-97068809D01*
X78764285Y-97068809D02*
X78811904Y-97164047D01*
X78811904Y-97164047D02*
X78811904Y-97402142D01*
X78811904Y-97402142D02*
X78764285Y-97497380D01*
X78764285Y-97497380D02*
X78716666Y-97545000D01*
X78716666Y-97545000D02*
X78621428Y-97592619D01*
X78621428Y-97592619D02*
X78383333Y-97592619D01*
X78383333Y-97592619D02*
X78288095Y-97545000D01*
X78288095Y-97545000D02*
X78240476Y-97497380D01*
X70347380Y-94902857D02*
X70395000Y-94950476D01*
X70395000Y-94950476D02*
X70442619Y-95093333D01*
X70442619Y-95093333D02*
X70442619Y-95188571D01*
X70442619Y-95188571D02*
X70395000Y-95331428D01*
X70395000Y-95331428D02*
X70299761Y-95426666D01*
X70299761Y-95426666D02*
X70204523Y-95474285D01*
X70204523Y-95474285D02*
X70014047Y-95521904D01*
X70014047Y-95521904D02*
X69871190Y-95521904D01*
X69871190Y-95521904D02*
X69680714Y-95474285D01*
X69680714Y-95474285D02*
X69585476Y-95426666D01*
X69585476Y-95426666D02*
X69490238Y-95331428D01*
X69490238Y-95331428D02*
X69442619Y-95188571D01*
X69442619Y-95188571D02*
X69442619Y-95093333D01*
X69442619Y-95093333D02*
X69490238Y-94950476D01*
X69490238Y-94950476D02*
X69537857Y-94902857D01*
X69537857Y-94521904D02*
X69490238Y-94474285D01*
X69490238Y-94474285D02*
X69442619Y-94379047D01*
X69442619Y-94379047D02*
X69442619Y-94140952D01*
X69442619Y-94140952D02*
X69490238Y-94045714D01*
X69490238Y-94045714D02*
X69537857Y-93998095D01*
X69537857Y-93998095D02*
X69633095Y-93950476D01*
X69633095Y-93950476D02*
X69728333Y-93950476D01*
X69728333Y-93950476D02*
X69871190Y-93998095D01*
X69871190Y-93998095D02*
X70442619Y-94569523D01*
X70442619Y-94569523D02*
X70442619Y-93950476D01*
X69775952Y-93093333D02*
X70442619Y-93093333D01*
X69395000Y-93331428D02*
X70109285Y-93569523D01*
X70109285Y-93569523D02*
X70109285Y-92950476D01*
X73667142Y-85307380D02*
X73619523Y-85355000D01*
X73619523Y-85355000D02*
X73476666Y-85402619D01*
X73476666Y-85402619D02*
X73381428Y-85402619D01*
X73381428Y-85402619D02*
X73238571Y-85355000D01*
X73238571Y-85355000D02*
X73143333Y-85259761D01*
X73143333Y-85259761D02*
X73095714Y-85164523D01*
X73095714Y-85164523D02*
X73048095Y-84974047D01*
X73048095Y-84974047D02*
X73048095Y-84831190D01*
X73048095Y-84831190D02*
X73095714Y-84640714D01*
X73095714Y-84640714D02*
X73143333Y-84545476D01*
X73143333Y-84545476D02*
X73238571Y-84450238D01*
X73238571Y-84450238D02*
X73381428Y-84402619D01*
X73381428Y-84402619D02*
X73476666Y-84402619D01*
X73476666Y-84402619D02*
X73619523Y-84450238D01*
X73619523Y-84450238D02*
X73667142Y-84497857D01*
X74048095Y-84497857D02*
X74095714Y-84450238D01*
X74095714Y-84450238D02*
X74190952Y-84402619D01*
X74190952Y-84402619D02*
X74429047Y-84402619D01*
X74429047Y-84402619D02*
X74524285Y-84450238D01*
X74524285Y-84450238D02*
X74571904Y-84497857D01*
X74571904Y-84497857D02*
X74619523Y-84593095D01*
X74619523Y-84593095D02*
X74619523Y-84688333D01*
X74619523Y-84688333D02*
X74571904Y-84831190D01*
X74571904Y-84831190D02*
X74000476Y-85402619D01*
X74000476Y-85402619D02*
X74619523Y-85402619D01*
X74952857Y-84402619D02*
X75571904Y-84402619D01*
X75571904Y-84402619D02*
X75238571Y-84783571D01*
X75238571Y-84783571D02*
X75381428Y-84783571D01*
X75381428Y-84783571D02*
X75476666Y-84831190D01*
X75476666Y-84831190D02*
X75524285Y-84878809D01*
X75524285Y-84878809D02*
X75571904Y-84974047D01*
X75571904Y-84974047D02*
X75571904Y-85212142D01*
X75571904Y-85212142D02*
X75524285Y-85307380D01*
X75524285Y-85307380D02*
X75476666Y-85355000D01*
X75476666Y-85355000D02*
X75381428Y-85402619D01*
X75381428Y-85402619D02*
X75095714Y-85402619D01*
X75095714Y-85402619D02*
X75000476Y-85355000D01*
X75000476Y-85355000D02*
X74952857Y-85307380D01*
X82161142Y-120915380D02*
X82113523Y-120963000D01*
X82113523Y-120963000D02*
X81970666Y-121010619D01*
X81970666Y-121010619D02*
X81875428Y-121010619D01*
X81875428Y-121010619D02*
X81732571Y-120963000D01*
X81732571Y-120963000D02*
X81637333Y-120867761D01*
X81637333Y-120867761D02*
X81589714Y-120772523D01*
X81589714Y-120772523D02*
X81542095Y-120582047D01*
X81542095Y-120582047D02*
X81542095Y-120439190D01*
X81542095Y-120439190D02*
X81589714Y-120248714D01*
X81589714Y-120248714D02*
X81637333Y-120153476D01*
X81637333Y-120153476D02*
X81732571Y-120058238D01*
X81732571Y-120058238D02*
X81875428Y-120010619D01*
X81875428Y-120010619D02*
X81970666Y-120010619D01*
X81970666Y-120010619D02*
X82113523Y-120058238D01*
X82113523Y-120058238D02*
X82161142Y-120105857D01*
X82542095Y-120105857D02*
X82589714Y-120058238D01*
X82589714Y-120058238D02*
X82684952Y-120010619D01*
X82684952Y-120010619D02*
X82923047Y-120010619D01*
X82923047Y-120010619D02*
X83018285Y-120058238D01*
X83018285Y-120058238D02*
X83065904Y-120105857D01*
X83065904Y-120105857D02*
X83113523Y-120201095D01*
X83113523Y-120201095D02*
X83113523Y-120296333D01*
X83113523Y-120296333D02*
X83065904Y-120439190D01*
X83065904Y-120439190D02*
X82494476Y-121010619D01*
X82494476Y-121010619D02*
X83113523Y-121010619D01*
X83494476Y-120105857D02*
X83542095Y-120058238D01*
X83542095Y-120058238D02*
X83637333Y-120010619D01*
X83637333Y-120010619D02*
X83875428Y-120010619D01*
X83875428Y-120010619D02*
X83970666Y-120058238D01*
X83970666Y-120058238D02*
X84018285Y-120105857D01*
X84018285Y-120105857D02*
X84065904Y-120201095D01*
X84065904Y-120201095D02*
X84065904Y-120296333D01*
X84065904Y-120296333D02*
X84018285Y-120439190D01*
X84018285Y-120439190D02*
X83446857Y-121010619D01*
X83446857Y-121010619D02*
X84065904Y-121010619D01*
X86927380Y-112292857D02*
X86975000Y-112340476D01*
X86975000Y-112340476D02*
X87022619Y-112483333D01*
X87022619Y-112483333D02*
X87022619Y-112578571D01*
X87022619Y-112578571D02*
X86975000Y-112721428D01*
X86975000Y-112721428D02*
X86879761Y-112816666D01*
X86879761Y-112816666D02*
X86784523Y-112864285D01*
X86784523Y-112864285D02*
X86594047Y-112911904D01*
X86594047Y-112911904D02*
X86451190Y-112911904D01*
X86451190Y-112911904D02*
X86260714Y-112864285D01*
X86260714Y-112864285D02*
X86165476Y-112816666D01*
X86165476Y-112816666D02*
X86070238Y-112721428D01*
X86070238Y-112721428D02*
X86022619Y-112578571D01*
X86022619Y-112578571D02*
X86022619Y-112483333D01*
X86022619Y-112483333D02*
X86070238Y-112340476D01*
X86070238Y-112340476D02*
X86117857Y-112292857D01*
X86117857Y-111911904D02*
X86070238Y-111864285D01*
X86070238Y-111864285D02*
X86022619Y-111769047D01*
X86022619Y-111769047D02*
X86022619Y-111530952D01*
X86022619Y-111530952D02*
X86070238Y-111435714D01*
X86070238Y-111435714D02*
X86117857Y-111388095D01*
X86117857Y-111388095D02*
X86213095Y-111340476D01*
X86213095Y-111340476D02*
X86308333Y-111340476D01*
X86308333Y-111340476D02*
X86451190Y-111388095D01*
X86451190Y-111388095D02*
X87022619Y-111959523D01*
X87022619Y-111959523D02*
X87022619Y-111340476D01*
X87022619Y-110388095D02*
X87022619Y-110959523D01*
X87022619Y-110673809D02*
X86022619Y-110673809D01*
X86022619Y-110673809D02*
X86165476Y-110769047D01*
X86165476Y-110769047D02*
X86260714Y-110864285D01*
X86260714Y-110864285D02*
X86308333Y-110959523D01*
X82095142Y-108727380D02*
X82047523Y-108775000D01*
X82047523Y-108775000D02*
X81904666Y-108822619D01*
X81904666Y-108822619D02*
X81809428Y-108822619D01*
X81809428Y-108822619D02*
X81666571Y-108775000D01*
X81666571Y-108775000D02*
X81571333Y-108679761D01*
X81571333Y-108679761D02*
X81523714Y-108584523D01*
X81523714Y-108584523D02*
X81476095Y-108394047D01*
X81476095Y-108394047D02*
X81476095Y-108251190D01*
X81476095Y-108251190D02*
X81523714Y-108060714D01*
X81523714Y-108060714D02*
X81571333Y-107965476D01*
X81571333Y-107965476D02*
X81666571Y-107870238D01*
X81666571Y-107870238D02*
X81809428Y-107822619D01*
X81809428Y-107822619D02*
X81904666Y-107822619D01*
X81904666Y-107822619D02*
X82047523Y-107870238D01*
X82047523Y-107870238D02*
X82095142Y-107917857D01*
X82476095Y-107917857D02*
X82523714Y-107870238D01*
X82523714Y-107870238D02*
X82618952Y-107822619D01*
X82618952Y-107822619D02*
X82857047Y-107822619D01*
X82857047Y-107822619D02*
X82952285Y-107870238D01*
X82952285Y-107870238D02*
X82999904Y-107917857D01*
X82999904Y-107917857D02*
X83047523Y-108013095D01*
X83047523Y-108013095D02*
X83047523Y-108108333D01*
X83047523Y-108108333D02*
X82999904Y-108251190D01*
X82999904Y-108251190D02*
X82428476Y-108822619D01*
X82428476Y-108822619D02*
X83047523Y-108822619D01*
X83666571Y-107822619D02*
X83761809Y-107822619D01*
X83761809Y-107822619D02*
X83857047Y-107870238D01*
X83857047Y-107870238D02*
X83904666Y-107917857D01*
X83904666Y-107917857D02*
X83952285Y-108013095D01*
X83952285Y-108013095D02*
X83999904Y-108203571D01*
X83999904Y-108203571D02*
X83999904Y-108441666D01*
X83999904Y-108441666D02*
X83952285Y-108632142D01*
X83952285Y-108632142D02*
X83904666Y-108727380D01*
X83904666Y-108727380D02*
X83857047Y-108775000D01*
X83857047Y-108775000D02*
X83761809Y-108822619D01*
X83761809Y-108822619D02*
X83666571Y-108822619D01*
X83666571Y-108822619D02*
X83571333Y-108775000D01*
X83571333Y-108775000D02*
X83523714Y-108727380D01*
X83523714Y-108727380D02*
X83476095Y-108632142D01*
X83476095Y-108632142D02*
X83428476Y-108441666D01*
X83428476Y-108441666D02*
X83428476Y-108203571D01*
X83428476Y-108203571D02*
X83476095Y-108013095D01*
X83476095Y-108013095D02*
X83523714Y-107917857D01*
X83523714Y-107917857D02*
X83571333Y-107870238D01*
X83571333Y-107870238D02*
X83666571Y-107822619D01*
X135139380Y-112350857D02*
X135187000Y-112398476D01*
X135187000Y-112398476D02*
X135234619Y-112541333D01*
X135234619Y-112541333D02*
X135234619Y-112636571D01*
X135234619Y-112636571D02*
X135187000Y-112779428D01*
X135187000Y-112779428D02*
X135091761Y-112874666D01*
X135091761Y-112874666D02*
X134996523Y-112922285D01*
X134996523Y-112922285D02*
X134806047Y-112969904D01*
X134806047Y-112969904D02*
X134663190Y-112969904D01*
X134663190Y-112969904D02*
X134472714Y-112922285D01*
X134472714Y-112922285D02*
X134377476Y-112874666D01*
X134377476Y-112874666D02*
X134282238Y-112779428D01*
X134282238Y-112779428D02*
X134234619Y-112636571D01*
X134234619Y-112636571D02*
X134234619Y-112541333D01*
X134234619Y-112541333D02*
X134282238Y-112398476D01*
X134282238Y-112398476D02*
X134329857Y-112350857D01*
X135234619Y-111398476D02*
X135234619Y-111969904D01*
X135234619Y-111684190D02*
X134234619Y-111684190D01*
X134234619Y-111684190D02*
X134377476Y-111779428D01*
X134377476Y-111779428D02*
X134472714Y-111874666D01*
X134472714Y-111874666D02*
X134520333Y-111969904D01*
X135234619Y-110922285D02*
X135234619Y-110731809D01*
X135234619Y-110731809D02*
X135187000Y-110636571D01*
X135187000Y-110636571D02*
X135139380Y-110588952D01*
X135139380Y-110588952D02*
X134996523Y-110493714D01*
X134996523Y-110493714D02*
X134806047Y-110446095D01*
X134806047Y-110446095D02*
X134425095Y-110446095D01*
X134425095Y-110446095D02*
X134329857Y-110493714D01*
X134329857Y-110493714D02*
X134282238Y-110541333D01*
X134282238Y-110541333D02*
X134234619Y-110636571D01*
X134234619Y-110636571D02*
X134234619Y-110827047D01*
X134234619Y-110827047D02*
X134282238Y-110922285D01*
X134282238Y-110922285D02*
X134329857Y-110969904D01*
X134329857Y-110969904D02*
X134425095Y-111017523D01*
X134425095Y-111017523D02*
X134663190Y-111017523D01*
X134663190Y-111017523D02*
X134758428Y-110969904D01*
X134758428Y-110969904D02*
X134806047Y-110922285D01*
X134806047Y-110922285D02*
X134853666Y-110827047D01*
X134853666Y-110827047D02*
X134853666Y-110636571D01*
X134853666Y-110636571D02*
X134806047Y-110541333D01*
X134806047Y-110541333D02*
X134758428Y-110493714D01*
X134758428Y-110493714D02*
X134663190Y-110446095D01*
X128739380Y-97416857D02*
X128787000Y-97464476D01*
X128787000Y-97464476D02*
X128834619Y-97607333D01*
X128834619Y-97607333D02*
X128834619Y-97702571D01*
X128834619Y-97702571D02*
X128787000Y-97845428D01*
X128787000Y-97845428D02*
X128691761Y-97940666D01*
X128691761Y-97940666D02*
X128596523Y-97988285D01*
X128596523Y-97988285D02*
X128406047Y-98035904D01*
X128406047Y-98035904D02*
X128263190Y-98035904D01*
X128263190Y-98035904D02*
X128072714Y-97988285D01*
X128072714Y-97988285D02*
X127977476Y-97940666D01*
X127977476Y-97940666D02*
X127882238Y-97845428D01*
X127882238Y-97845428D02*
X127834619Y-97702571D01*
X127834619Y-97702571D02*
X127834619Y-97607333D01*
X127834619Y-97607333D02*
X127882238Y-97464476D01*
X127882238Y-97464476D02*
X127929857Y-97416857D01*
X128834619Y-96464476D02*
X128834619Y-97035904D01*
X128834619Y-96750190D02*
X127834619Y-96750190D01*
X127834619Y-96750190D02*
X127977476Y-96845428D01*
X127977476Y-96845428D02*
X128072714Y-96940666D01*
X128072714Y-96940666D02*
X128120333Y-97035904D01*
X128263190Y-95893047D02*
X128215571Y-95988285D01*
X128215571Y-95988285D02*
X128167952Y-96035904D01*
X128167952Y-96035904D02*
X128072714Y-96083523D01*
X128072714Y-96083523D02*
X128025095Y-96083523D01*
X128025095Y-96083523D02*
X127929857Y-96035904D01*
X127929857Y-96035904D02*
X127882238Y-95988285D01*
X127882238Y-95988285D02*
X127834619Y-95893047D01*
X127834619Y-95893047D02*
X127834619Y-95702571D01*
X127834619Y-95702571D02*
X127882238Y-95607333D01*
X127882238Y-95607333D02*
X127929857Y-95559714D01*
X127929857Y-95559714D02*
X128025095Y-95512095D01*
X128025095Y-95512095D02*
X128072714Y-95512095D01*
X128072714Y-95512095D02*
X128167952Y-95559714D01*
X128167952Y-95559714D02*
X128215571Y-95607333D01*
X128215571Y-95607333D02*
X128263190Y-95702571D01*
X128263190Y-95702571D02*
X128263190Y-95893047D01*
X128263190Y-95893047D02*
X128310809Y-95988285D01*
X128310809Y-95988285D02*
X128358428Y-96035904D01*
X128358428Y-96035904D02*
X128453666Y-96083523D01*
X128453666Y-96083523D02*
X128644142Y-96083523D01*
X128644142Y-96083523D02*
X128739380Y-96035904D01*
X128739380Y-96035904D02*
X128787000Y-95988285D01*
X128787000Y-95988285D02*
X128834619Y-95893047D01*
X128834619Y-95893047D02*
X128834619Y-95702571D01*
X128834619Y-95702571D02*
X128787000Y-95607333D01*
X128787000Y-95607333D02*
X128739380Y-95559714D01*
X128739380Y-95559714D02*
X128644142Y-95512095D01*
X128644142Y-95512095D02*
X128453666Y-95512095D01*
X128453666Y-95512095D02*
X128358428Y-95559714D01*
X128358428Y-95559714D02*
X128310809Y-95607333D01*
X128310809Y-95607333D02*
X128263190Y-95702571D01*
X111059142Y-99781380D02*
X111011523Y-99829000D01*
X111011523Y-99829000D02*
X110868666Y-99876619D01*
X110868666Y-99876619D02*
X110773428Y-99876619D01*
X110773428Y-99876619D02*
X110630571Y-99829000D01*
X110630571Y-99829000D02*
X110535333Y-99733761D01*
X110535333Y-99733761D02*
X110487714Y-99638523D01*
X110487714Y-99638523D02*
X110440095Y-99448047D01*
X110440095Y-99448047D02*
X110440095Y-99305190D01*
X110440095Y-99305190D02*
X110487714Y-99114714D01*
X110487714Y-99114714D02*
X110535333Y-99019476D01*
X110535333Y-99019476D02*
X110630571Y-98924238D01*
X110630571Y-98924238D02*
X110773428Y-98876619D01*
X110773428Y-98876619D02*
X110868666Y-98876619D01*
X110868666Y-98876619D02*
X111011523Y-98924238D01*
X111011523Y-98924238D02*
X111059142Y-98971857D01*
X112011523Y-99876619D02*
X111440095Y-99876619D01*
X111725809Y-99876619D02*
X111725809Y-98876619D01*
X111725809Y-98876619D02*
X111630571Y-99019476D01*
X111630571Y-99019476D02*
X111535333Y-99114714D01*
X111535333Y-99114714D02*
X111440095Y-99162333D01*
X112344857Y-98876619D02*
X113011523Y-98876619D01*
X113011523Y-98876619D02*
X112582952Y-99876619D01*
X111162142Y-115529380D02*
X111114523Y-115577000D01*
X111114523Y-115577000D02*
X110971666Y-115624619D01*
X110971666Y-115624619D02*
X110876428Y-115624619D01*
X110876428Y-115624619D02*
X110733571Y-115577000D01*
X110733571Y-115577000D02*
X110638333Y-115481761D01*
X110638333Y-115481761D02*
X110590714Y-115386523D01*
X110590714Y-115386523D02*
X110543095Y-115196047D01*
X110543095Y-115196047D02*
X110543095Y-115053190D01*
X110543095Y-115053190D02*
X110590714Y-114862714D01*
X110590714Y-114862714D02*
X110638333Y-114767476D01*
X110638333Y-114767476D02*
X110733571Y-114672238D01*
X110733571Y-114672238D02*
X110876428Y-114624619D01*
X110876428Y-114624619D02*
X110971666Y-114624619D01*
X110971666Y-114624619D02*
X111114523Y-114672238D01*
X111114523Y-114672238D02*
X111162142Y-114719857D01*
X112114523Y-115624619D02*
X111543095Y-115624619D01*
X111828809Y-115624619D02*
X111828809Y-114624619D01*
X111828809Y-114624619D02*
X111733571Y-114767476D01*
X111733571Y-114767476D02*
X111638333Y-114862714D01*
X111638333Y-114862714D02*
X111543095Y-114910333D01*
X112971666Y-114624619D02*
X112781190Y-114624619D01*
X112781190Y-114624619D02*
X112685952Y-114672238D01*
X112685952Y-114672238D02*
X112638333Y-114719857D01*
X112638333Y-114719857D02*
X112543095Y-114862714D01*
X112543095Y-114862714D02*
X112495476Y-115053190D01*
X112495476Y-115053190D02*
X112495476Y-115434142D01*
X112495476Y-115434142D02*
X112543095Y-115529380D01*
X112543095Y-115529380D02*
X112590714Y-115577000D01*
X112590714Y-115577000D02*
X112685952Y-115624619D01*
X112685952Y-115624619D02*
X112876428Y-115624619D01*
X112876428Y-115624619D02*
X112971666Y-115577000D01*
X112971666Y-115577000D02*
X113019285Y-115529380D01*
X113019285Y-115529380D02*
X113066904Y-115434142D01*
X113066904Y-115434142D02*
X113066904Y-115196047D01*
X113066904Y-115196047D02*
X113019285Y-115100809D01*
X113019285Y-115100809D02*
X112971666Y-115053190D01*
X112971666Y-115053190D02*
X112876428Y-115005571D01*
X112876428Y-115005571D02*
X112685952Y-115005571D01*
X112685952Y-115005571D02*
X112590714Y-115053190D01*
X112590714Y-115053190D02*
X112543095Y-115100809D01*
X112543095Y-115100809D02*
X112495476Y-115196047D01*
X125567142Y-89077380D02*
X125519523Y-89125000D01*
X125519523Y-89125000D02*
X125376666Y-89172619D01*
X125376666Y-89172619D02*
X125281428Y-89172619D01*
X125281428Y-89172619D02*
X125138571Y-89125000D01*
X125138571Y-89125000D02*
X125043333Y-89029761D01*
X125043333Y-89029761D02*
X124995714Y-88934523D01*
X124995714Y-88934523D02*
X124948095Y-88744047D01*
X124948095Y-88744047D02*
X124948095Y-88601190D01*
X124948095Y-88601190D02*
X124995714Y-88410714D01*
X124995714Y-88410714D02*
X125043333Y-88315476D01*
X125043333Y-88315476D02*
X125138571Y-88220238D01*
X125138571Y-88220238D02*
X125281428Y-88172619D01*
X125281428Y-88172619D02*
X125376666Y-88172619D01*
X125376666Y-88172619D02*
X125519523Y-88220238D01*
X125519523Y-88220238D02*
X125567142Y-88267857D01*
X126519523Y-89172619D02*
X125948095Y-89172619D01*
X126233809Y-89172619D02*
X126233809Y-88172619D01*
X126233809Y-88172619D02*
X126138571Y-88315476D01*
X126138571Y-88315476D02*
X126043333Y-88410714D01*
X126043333Y-88410714D02*
X125948095Y-88458333D01*
X127424285Y-88172619D02*
X126948095Y-88172619D01*
X126948095Y-88172619D02*
X126900476Y-88648809D01*
X126900476Y-88648809D02*
X126948095Y-88601190D01*
X126948095Y-88601190D02*
X127043333Y-88553571D01*
X127043333Y-88553571D02*
X127281428Y-88553571D01*
X127281428Y-88553571D02*
X127376666Y-88601190D01*
X127376666Y-88601190D02*
X127424285Y-88648809D01*
X127424285Y-88648809D02*
X127471904Y-88744047D01*
X127471904Y-88744047D02*
X127471904Y-88982142D01*
X127471904Y-88982142D02*
X127424285Y-89077380D01*
X127424285Y-89077380D02*
X127376666Y-89125000D01*
X127376666Y-89125000D02*
X127281428Y-89172619D01*
X127281428Y-89172619D02*
X127043333Y-89172619D01*
X127043333Y-89172619D02*
X126948095Y-89125000D01*
X126948095Y-89125000D02*
X126900476Y-89077380D01*
X116017380Y-116852857D02*
X116065000Y-116900476D01*
X116065000Y-116900476D02*
X116112619Y-117043333D01*
X116112619Y-117043333D02*
X116112619Y-117138571D01*
X116112619Y-117138571D02*
X116065000Y-117281428D01*
X116065000Y-117281428D02*
X115969761Y-117376666D01*
X115969761Y-117376666D02*
X115874523Y-117424285D01*
X115874523Y-117424285D02*
X115684047Y-117471904D01*
X115684047Y-117471904D02*
X115541190Y-117471904D01*
X115541190Y-117471904D02*
X115350714Y-117424285D01*
X115350714Y-117424285D02*
X115255476Y-117376666D01*
X115255476Y-117376666D02*
X115160238Y-117281428D01*
X115160238Y-117281428D02*
X115112619Y-117138571D01*
X115112619Y-117138571D02*
X115112619Y-117043333D01*
X115112619Y-117043333D02*
X115160238Y-116900476D01*
X115160238Y-116900476D02*
X115207857Y-116852857D01*
X116112619Y-115900476D02*
X116112619Y-116471904D01*
X116112619Y-116186190D02*
X115112619Y-116186190D01*
X115112619Y-116186190D02*
X115255476Y-116281428D01*
X115255476Y-116281428D02*
X115350714Y-116376666D01*
X115350714Y-116376666D02*
X115398333Y-116471904D01*
X115445952Y-115043333D02*
X116112619Y-115043333D01*
X115065000Y-115281428D02*
X115779285Y-115519523D01*
X115779285Y-115519523D02*
X115779285Y-114900476D01*
X128739380Y-105238857D02*
X128787000Y-105286476D01*
X128787000Y-105286476D02*
X128834619Y-105429333D01*
X128834619Y-105429333D02*
X128834619Y-105524571D01*
X128834619Y-105524571D02*
X128787000Y-105667428D01*
X128787000Y-105667428D02*
X128691761Y-105762666D01*
X128691761Y-105762666D02*
X128596523Y-105810285D01*
X128596523Y-105810285D02*
X128406047Y-105857904D01*
X128406047Y-105857904D02*
X128263190Y-105857904D01*
X128263190Y-105857904D02*
X128072714Y-105810285D01*
X128072714Y-105810285D02*
X127977476Y-105762666D01*
X127977476Y-105762666D02*
X127882238Y-105667428D01*
X127882238Y-105667428D02*
X127834619Y-105524571D01*
X127834619Y-105524571D02*
X127834619Y-105429333D01*
X127834619Y-105429333D02*
X127882238Y-105286476D01*
X127882238Y-105286476D02*
X127929857Y-105238857D01*
X128834619Y-104286476D02*
X128834619Y-104857904D01*
X128834619Y-104572190D02*
X127834619Y-104572190D01*
X127834619Y-104572190D02*
X127977476Y-104667428D01*
X127977476Y-104667428D02*
X128072714Y-104762666D01*
X128072714Y-104762666D02*
X128120333Y-104857904D01*
X127834619Y-103953142D02*
X127834619Y-103334095D01*
X127834619Y-103334095D02*
X128215571Y-103667428D01*
X128215571Y-103667428D02*
X128215571Y-103524571D01*
X128215571Y-103524571D02*
X128263190Y-103429333D01*
X128263190Y-103429333D02*
X128310809Y-103381714D01*
X128310809Y-103381714D02*
X128406047Y-103334095D01*
X128406047Y-103334095D02*
X128644142Y-103334095D01*
X128644142Y-103334095D02*
X128739380Y-103381714D01*
X128739380Y-103381714D02*
X128787000Y-103429333D01*
X128787000Y-103429333D02*
X128834619Y-103524571D01*
X128834619Y-103524571D02*
X128834619Y-103810285D01*
X128834619Y-103810285D02*
X128787000Y-103905523D01*
X128787000Y-103905523D02*
X128739380Y-103953142D01*
X106641380Y-105492857D02*
X106689000Y-105540476D01*
X106689000Y-105540476D02*
X106736619Y-105683333D01*
X106736619Y-105683333D02*
X106736619Y-105778571D01*
X106736619Y-105778571D02*
X106689000Y-105921428D01*
X106689000Y-105921428D02*
X106593761Y-106016666D01*
X106593761Y-106016666D02*
X106498523Y-106064285D01*
X106498523Y-106064285D02*
X106308047Y-106111904D01*
X106308047Y-106111904D02*
X106165190Y-106111904D01*
X106165190Y-106111904D02*
X105974714Y-106064285D01*
X105974714Y-106064285D02*
X105879476Y-106016666D01*
X105879476Y-106016666D02*
X105784238Y-105921428D01*
X105784238Y-105921428D02*
X105736619Y-105778571D01*
X105736619Y-105778571D02*
X105736619Y-105683333D01*
X105736619Y-105683333D02*
X105784238Y-105540476D01*
X105784238Y-105540476D02*
X105831857Y-105492857D01*
X106736619Y-104540476D02*
X106736619Y-105111904D01*
X106736619Y-104826190D02*
X105736619Y-104826190D01*
X105736619Y-104826190D02*
X105879476Y-104921428D01*
X105879476Y-104921428D02*
X105974714Y-105016666D01*
X105974714Y-105016666D02*
X106022333Y-105111904D01*
X105831857Y-104159523D02*
X105784238Y-104111904D01*
X105784238Y-104111904D02*
X105736619Y-104016666D01*
X105736619Y-104016666D02*
X105736619Y-103778571D01*
X105736619Y-103778571D02*
X105784238Y-103683333D01*
X105784238Y-103683333D02*
X105831857Y-103635714D01*
X105831857Y-103635714D02*
X105927095Y-103588095D01*
X105927095Y-103588095D02*
X106022333Y-103588095D01*
X106022333Y-103588095D02*
X106165190Y-103635714D01*
X106165190Y-103635714D02*
X106736619Y-104207142D01*
X106736619Y-104207142D02*
X106736619Y-103588095D01*
X119337142Y-89307380D02*
X119289523Y-89355000D01*
X119289523Y-89355000D02*
X119146666Y-89402619D01*
X119146666Y-89402619D02*
X119051428Y-89402619D01*
X119051428Y-89402619D02*
X118908571Y-89355000D01*
X118908571Y-89355000D02*
X118813333Y-89259761D01*
X118813333Y-89259761D02*
X118765714Y-89164523D01*
X118765714Y-89164523D02*
X118718095Y-88974047D01*
X118718095Y-88974047D02*
X118718095Y-88831190D01*
X118718095Y-88831190D02*
X118765714Y-88640714D01*
X118765714Y-88640714D02*
X118813333Y-88545476D01*
X118813333Y-88545476D02*
X118908571Y-88450238D01*
X118908571Y-88450238D02*
X119051428Y-88402619D01*
X119051428Y-88402619D02*
X119146666Y-88402619D01*
X119146666Y-88402619D02*
X119289523Y-88450238D01*
X119289523Y-88450238D02*
X119337142Y-88497857D01*
X120289523Y-89402619D02*
X119718095Y-89402619D01*
X120003809Y-89402619D02*
X120003809Y-88402619D01*
X120003809Y-88402619D02*
X119908571Y-88545476D01*
X119908571Y-88545476D02*
X119813333Y-88640714D01*
X119813333Y-88640714D02*
X119718095Y-88688333D01*
X121241904Y-89402619D02*
X120670476Y-89402619D01*
X120956190Y-89402619D02*
X120956190Y-88402619D01*
X120956190Y-88402619D02*
X120860952Y-88545476D01*
X120860952Y-88545476D02*
X120765714Y-88640714D01*
X120765714Y-88640714D02*
X120670476Y-88688333D01*
X103947380Y-95592857D02*
X103995000Y-95640476D01*
X103995000Y-95640476D02*
X104042619Y-95783333D01*
X104042619Y-95783333D02*
X104042619Y-95878571D01*
X104042619Y-95878571D02*
X103995000Y-96021428D01*
X103995000Y-96021428D02*
X103899761Y-96116666D01*
X103899761Y-96116666D02*
X103804523Y-96164285D01*
X103804523Y-96164285D02*
X103614047Y-96211904D01*
X103614047Y-96211904D02*
X103471190Y-96211904D01*
X103471190Y-96211904D02*
X103280714Y-96164285D01*
X103280714Y-96164285D02*
X103185476Y-96116666D01*
X103185476Y-96116666D02*
X103090238Y-96021428D01*
X103090238Y-96021428D02*
X103042619Y-95878571D01*
X103042619Y-95878571D02*
X103042619Y-95783333D01*
X103042619Y-95783333D02*
X103090238Y-95640476D01*
X103090238Y-95640476D02*
X103137857Y-95592857D01*
X104042619Y-94640476D02*
X104042619Y-95211904D01*
X104042619Y-94926190D02*
X103042619Y-94926190D01*
X103042619Y-94926190D02*
X103185476Y-95021428D01*
X103185476Y-95021428D02*
X103280714Y-95116666D01*
X103280714Y-95116666D02*
X103328333Y-95211904D01*
X103042619Y-94021428D02*
X103042619Y-93926190D01*
X103042619Y-93926190D02*
X103090238Y-93830952D01*
X103090238Y-93830952D02*
X103137857Y-93783333D01*
X103137857Y-93783333D02*
X103233095Y-93735714D01*
X103233095Y-93735714D02*
X103423571Y-93688095D01*
X103423571Y-93688095D02*
X103661666Y-93688095D01*
X103661666Y-93688095D02*
X103852142Y-93735714D01*
X103852142Y-93735714D02*
X103947380Y-93783333D01*
X103947380Y-93783333D02*
X103995000Y-93830952D01*
X103995000Y-93830952D02*
X104042619Y-93926190D01*
X104042619Y-93926190D02*
X104042619Y-94021428D01*
X104042619Y-94021428D02*
X103995000Y-94116666D01*
X103995000Y-94116666D02*
X103947380Y-94164285D01*
X103947380Y-94164285D02*
X103852142Y-94211904D01*
X103852142Y-94211904D02*
X103661666Y-94259523D01*
X103661666Y-94259523D02*
X103423571Y-94259523D01*
X103423571Y-94259523D02*
X103233095Y-94211904D01*
X103233095Y-94211904D02*
X103137857Y-94164285D01*
X103137857Y-94164285D02*
X103090238Y-94116666D01*
X103090238Y-94116666D02*
X103042619Y-94021428D01*
X50761380Y-90336666D02*
X50809000Y-90384285D01*
X50809000Y-90384285D02*
X50856619Y-90527142D01*
X50856619Y-90527142D02*
X50856619Y-90622380D01*
X50856619Y-90622380D02*
X50809000Y-90765237D01*
X50809000Y-90765237D02*
X50713761Y-90860475D01*
X50713761Y-90860475D02*
X50618523Y-90908094D01*
X50618523Y-90908094D02*
X50428047Y-90955713D01*
X50428047Y-90955713D02*
X50285190Y-90955713D01*
X50285190Y-90955713D02*
X50094714Y-90908094D01*
X50094714Y-90908094D02*
X49999476Y-90860475D01*
X49999476Y-90860475D02*
X49904238Y-90765237D01*
X49904238Y-90765237D02*
X49856619Y-90622380D01*
X49856619Y-90622380D02*
X49856619Y-90527142D01*
X49856619Y-90527142D02*
X49904238Y-90384285D01*
X49904238Y-90384285D02*
X49951857Y-90336666D01*
X50856619Y-89860475D02*
X50856619Y-89669999D01*
X50856619Y-89669999D02*
X50809000Y-89574761D01*
X50809000Y-89574761D02*
X50761380Y-89527142D01*
X50761380Y-89527142D02*
X50618523Y-89431904D01*
X50618523Y-89431904D02*
X50428047Y-89384285D01*
X50428047Y-89384285D02*
X50047095Y-89384285D01*
X50047095Y-89384285D02*
X49951857Y-89431904D01*
X49951857Y-89431904D02*
X49904238Y-89479523D01*
X49904238Y-89479523D02*
X49856619Y-89574761D01*
X49856619Y-89574761D02*
X49856619Y-89765237D01*
X49856619Y-89765237D02*
X49904238Y-89860475D01*
X49904238Y-89860475D02*
X49951857Y-89908094D01*
X49951857Y-89908094D02*
X50047095Y-89955713D01*
X50047095Y-89955713D02*
X50285190Y-89955713D01*
X50285190Y-89955713D02*
X50380428Y-89908094D01*
X50380428Y-89908094D02*
X50428047Y-89860475D01*
X50428047Y-89860475D02*
X50475666Y-89765237D01*
X50475666Y-89765237D02*
X50475666Y-89574761D01*
X50475666Y-89574761D02*
X50428047Y-89479523D01*
X50428047Y-89479523D02*
X50380428Y-89431904D01*
X50380428Y-89431904D02*
X50285190Y-89384285D01*
X99343333Y-85456580D02*
X99295714Y-85504200D01*
X99295714Y-85504200D02*
X99152857Y-85551819D01*
X99152857Y-85551819D02*
X99057619Y-85551819D01*
X99057619Y-85551819D02*
X98914762Y-85504200D01*
X98914762Y-85504200D02*
X98819524Y-85408961D01*
X98819524Y-85408961D02*
X98771905Y-85313723D01*
X98771905Y-85313723D02*
X98724286Y-85123247D01*
X98724286Y-85123247D02*
X98724286Y-84980390D01*
X98724286Y-84980390D02*
X98771905Y-84789914D01*
X98771905Y-84789914D02*
X98819524Y-84694676D01*
X98819524Y-84694676D02*
X98914762Y-84599438D01*
X98914762Y-84599438D02*
X99057619Y-84551819D01*
X99057619Y-84551819D02*
X99152857Y-84551819D01*
X99152857Y-84551819D02*
X99295714Y-84599438D01*
X99295714Y-84599438D02*
X99343333Y-84647057D01*
X99914762Y-84980390D02*
X99819524Y-84932771D01*
X99819524Y-84932771D02*
X99771905Y-84885152D01*
X99771905Y-84885152D02*
X99724286Y-84789914D01*
X99724286Y-84789914D02*
X99724286Y-84742295D01*
X99724286Y-84742295D02*
X99771905Y-84647057D01*
X99771905Y-84647057D02*
X99819524Y-84599438D01*
X99819524Y-84599438D02*
X99914762Y-84551819D01*
X99914762Y-84551819D02*
X100105238Y-84551819D01*
X100105238Y-84551819D02*
X100200476Y-84599438D01*
X100200476Y-84599438D02*
X100248095Y-84647057D01*
X100248095Y-84647057D02*
X100295714Y-84742295D01*
X100295714Y-84742295D02*
X100295714Y-84789914D01*
X100295714Y-84789914D02*
X100248095Y-84885152D01*
X100248095Y-84885152D02*
X100200476Y-84932771D01*
X100200476Y-84932771D02*
X100105238Y-84980390D01*
X100105238Y-84980390D02*
X99914762Y-84980390D01*
X99914762Y-84980390D02*
X99819524Y-85028009D01*
X99819524Y-85028009D02*
X99771905Y-85075628D01*
X99771905Y-85075628D02*
X99724286Y-85170866D01*
X99724286Y-85170866D02*
X99724286Y-85361342D01*
X99724286Y-85361342D02*
X99771905Y-85456580D01*
X99771905Y-85456580D02*
X99819524Y-85504200D01*
X99819524Y-85504200D02*
X99914762Y-85551819D01*
X99914762Y-85551819D02*
X100105238Y-85551819D01*
X100105238Y-85551819D02*
X100200476Y-85504200D01*
X100200476Y-85504200D02*
X100248095Y-85456580D01*
X100248095Y-85456580D02*
X100295714Y-85361342D01*
X100295714Y-85361342D02*
X100295714Y-85170866D01*
X100295714Y-85170866D02*
X100248095Y-85075628D01*
X100248095Y-85075628D02*
X100200476Y-85028009D01*
X100200476Y-85028009D02*
X100105238Y-84980390D01*
X122983333Y-119177380D02*
X122935714Y-119225000D01*
X122935714Y-119225000D02*
X122792857Y-119272619D01*
X122792857Y-119272619D02*
X122697619Y-119272619D01*
X122697619Y-119272619D02*
X122554762Y-119225000D01*
X122554762Y-119225000D02*
X122459524Y-119129761D01*
X122459524Y-119129761D02*
X122411905Y-119034523D01*
X122411905Y-119034523D02*
X122364286Y-118844047D01*
X122364286Y-118844047D02*
X122364286Y-118701190D01*
X122364286Y-118701190D02*
X122411905Y-118510714D01*
X122411905Y-118510714D02*
X122459524Y-118415476D01*
X122459524Y-118415476D02*
X122554762Y-118320238D01*
X122554762Y-118320238D02*
X122697619Y-118272619D01*
X122697619Y-118272619D02*
X122792857Y-118272619D01*
X122792857Y-118272619D02*
X122935714Y-118320238D01*
X122935714Y-118320238D02*
X122983333Y-118367857D01*
X123316667Y-118272619D02*
X123983333Y-118272619D01*
X123983333Y-118272619D02*
X123554762Y-119272619D01*
X65873333Y-85813380D02*
X65825714Y-85861000D01*
X65825714Y-85861000D02*
X65682857Y-85908619D01*
X65682857Y-85908619D02*
X65587619Y-85908619D01*
X65587619Y-85908619D02*
X65444762Y-85861000D01*
X65444762Y-85861000D02*
X65349524Y-85765761D01*
X65349524Y-85765761D02*
X65301905Y-85670523D01*
X65301905Y-85670523D02*
X65254286Y-85480047D01*
X65254286Y-85480047D02*
X65254286Y-85337190D01*
X65254286Y-85337190D02*
X65301905Y-85146714D01*
X65301905Y-85146714D02*
X65349524Y-85051476D01*
X65349524Y-85051476D02*
X65444762Y-84956238D01*
X65444762Y-84956238D02*
X65587619Y-84908619D01*
X65587619Y-84908619D02*
X65682857Y-84908619D01*
X65682857Y-84908619D02*
X65825714Y-84956238D01*
X65825714Y-84956238D02*
X65873333Y-85003857D01*
X66730476Y-84908619D02*
X66540000Y-84908619D01*
X66540000Y-84908619D02*
X66444762Y-84956238D01*
X66444762Y-84956238D02*
X66397143Y-85003857D01*
X66397143Y-85003857D02*
X66301905Y-85146714D01*
X66301905Y-85146714D02*
X66254286Y-85337190D01*
X66254286Y-85337190D02*
X66254286Y-85718142D01*
X66254286Y-85718142D02*
X66301905Y-85813380D01*
X66301905Y-85813380D02*
X66349524Y-85861000D01*
X66349524Y-85861000D02*
X66444762Y-85908619D01*
X66444762Y-85908619D02*
X66635238Y-85908619D01*
X66635238Y-85908619D02*
X66730476Y-85861000D01*
X66730476Y-85861000D02*
X66778095Y-85813380D01*
X66778095Y-85813380D02*
X66825714Y-85718142D01*
X66825714Y-85718142D02*
X66825714Y-85480047D01*
X66825714Y-85480047D02*
X66778095Y-85384809D01*
X66778095Y-85384809D02*
X66730476Y-85337190D01*
X66730476Y-85337190D02*
X66635238Y-85289571D01*
X66635238Y-85289571D02*
X66444762Y-85289571D01*
X66444762Y-85289571D02*
X66349524Y-85337190D01*
X66349524Y-85337190D02*
X66301905Y-85384809D01*
X66301905Y-85384809D02*
X66254286Y-85480047D01*
X109993380Y-91098666D02*
X110041000Y-91146285D01*
X110041000Y-91146285D02*
X110088619Y-91289142D01*
X110088619Y-91289142D02*
X110088619Y-91384380D01*
X110088619Y-91384380D02*
X110041000Y-91527237D01*
X110041000Y-91527237D02*
X109945761Y-91622475D01*
X109945761Y-91622475D02*
X109850523Y-91670094D01*
X109850523Y-91670094D02*
X109660047Y-91717713D01*
X109660047Y-91717713D02*
X109517190Y-91717713D01*
X109517190Y-91717713D02*
X109326714Y-91670094D01*
X109326714Y-91670094D02*
X109231476Y-91622475D01*
X109231476Y-91622475D02*
X109136238Y-91527237D01*
X109136238Y-91527237D02*
X109088619Y-91384380D01*
X109088619Y-91384380D02*
X109088619Y-91289142D01*
X109088619Y-91289142D02*
X109136238Y-91146285D01*
X109136238Y-91146285D02*
X109183857Y-91098666D01*
X109088619Y-90193904D02*
X109088619Y-90670094D01*
X109088619Y-90670094D02*
X109564809Y-90717713D01*
X109564809Y-90717713D02*
X109517190Y-90670094D01*
X109517190Y-90670094D02*
X109469571Y-90574856D01*
X109469571Y-90574856D02*
X109469571Y-90336761D01*
X109469571Y-90336761D02*
X109517190Y-90241523D01*
X109517190Y-90241523D02*
X109564809Y-90193904D01*
X109564809Y-90193904D02*
X109660047Y-90146285D01*
X109660047Y-90146285D02*
X109898142Y-90146285D01*
X109898142Y-90146285D02*
X109993380Y-90193904D01*
X109993380Y-90193904D02*
X110041000Y-90241523D01*
X110041000Y-90241523D02*
X110088619Y-90336761D01*
X110088619Y-90336761D02*
X110088619Y-90574856D01*
X110088619Y-90574856D02*
X110041000Y-90670094D01*
X110041000Y-90670094D02*
X109993380Y-90717713D01*
X51649333Y-109231380D02*
X51601714Y-109279000D01*
X51601714Y-109279000D02*
X51458857Y-109326619D01*
X51458857Y-109326619D02*
X51363619Y-109326619D01*
X51363619Y-109326619D02*
X51220762Y-109279000D01*
X51220762Y-109279000D02*
X51125524Y-109183761D01*
X51125524Y-109183761D02*
X51077905Y-109088523D01*
X51077905Y-109088523D02*
X51030286Y-108898047D01*
X51030286Y-108898047D02*
X51030286Y-108755190D01*
X51030286Y-108755190D02*
X51077905Y-108564714D01*
X51077905Y-108564714D02*
X51125524Y-108469476D01*
X51125524Y-108469476D02*
X51220762Y-108374238D01*
X51220762Y-108374238D02*
X51363619Y-108326619D01*
X51363619Y-108326619D02*
X51458857Y-108326619D01*
X51458857Y-108326619D02*
X51601714Y-108374238D01*
X51601714Y-108374238D02*
X51649333Y-108421857D01*
X52506476Y-108659952D02*
X52506476Y-109326619D01*
X52268381Y-108279000D02*
X52030286Y-108993285D01*
X52030286Y-108993285D02*
X52649333Y-108993285D01*
X51649333Y-117613380D02*
X51601714Y-117661000D01*
X51601714Y-117661000D02*
X51458857Y-117708619D01*
X51458857Y-117708619D02*
X51363619Y-117708619D01*
X51363619Y-117708619D02*
X51220762Y-117661000D01*
X51220762Y-117661000D02*
X51125524Y-117565761D01*
X51125524Y-117565761D02*
X51077905Y-117470523D01*
X51077905Y-117470523D02*
X51030286Y-117280047D01*
X51030286Y-117280047D02*
X51030286Y-117137190D01*
X51030286Y-117137190D02*
X51077905Y-116946714D01*
X51077905Y-116946714D02*
X51125524Y-116851476D01*
X51125524Y-116851476D02*
X51220762Y-116756238D01*
X51220762Y-116756238D02*
X51363619Y-116708619D01*
X51363619Y-116708619D02*
X51458857Y-116708619D01*
X51458857Y-116708619D02*
X51601714Y-116756238D01*
X51601714Y-116756238D02*
X51649333Y-116803857D01*
X51982667Y-116708619D02*
X52601714Y-116708619D01*
X52601714Y-116708619D02*
X52268381Y-117089571D01*
X52268381Y-117089571D02*
X52411238Y-117089571D01*
X52411238Y-117089571D02*
X52506476Y-117137190D01*
X52506476Y-117137190D02*
X52554095Y-117184809D01*
X52554095Y-117184809D02*
X52601714Y-117280047D01*
X52601714Y-117280047D02*
X52601714Y-117518142D01*
X52601714Y-117518142D02*
X52554095Y-117613380D01*
X52554095Y-117613380D02*
X52506476Y-117661000D01*
X52506476Y-117661000D02*
X52411238Y-117708619D01*
X52411238Y-117708619D02*
X52125524Y-117708619D01*
X52125524Y-117708619D02*
X52030286Y-117661000D01*
X52030286Y-117661000D02*
X51982667Y-117613380D01*
X57009380Y-111926666D02*
X57057000Y-111974285D01*
X57057000Y-111974285D02*
X57104619Y-112117142D01*
X57104619Y-112117142D02*
X57104619Y-112212380D01*
X57104619Y-112212380D02*
X57057000Y-112355237D01*
X57057000Y-112355237D02*
X56961761Y-112450475D01*
X56961761Y-112450475D02*
X56866523Y-112498094D01*
X56866523Y-112498094D02*
X56676047Y-112545713D01*
X56676047Y-112545713D02*
X56533190Y-112545713D01*
X56533190Y-112545713D02*
X56342714Y-112498094D01*
X56342714Y-112498094D02*
X56247476Y-112450475D01*
X56247476Y-112450475D02*
X56152238Y-112355237D01*
X56152238Y-112355237D02*
X56104619Y-112212380D01*
X56104619Y-112212380D02*
X56104619Y-112117142D01*
X56104619Y-112117142D02*
X56152238Y-111974285D01*
X56152238Y-111974285D02*
X56199857Y-111926666D01*
X56199857Y-111545713D02*
X56152238Y-111498094D01*
X56152238Y-111498094D02*
X56104619Y-111402856D01*
X56104619Y-111402856D02*
X56104619Y-111164761D01*
X56104619Y-111164761D02*
X56152238Y-111069523D01*
X56152238Y-111069523D02*
X56199857Y-111021904D01*
X56199857Y-111021904D02*
X56295095Y-110974285D01*
X56295095Y-110974285D02*
X56390333Y-110974285D01*
X56390333Y-110974285D02*
X56533190Y-111021904D01*
X56533190Y-111021904D02*
X57104619Y-111593332D01*
X57104619Y-111593332D02*
X57104619Y-110974285D01*
X70627380Y-106658666D02*
X70675000Y-106706285D01*
X70675000Y-106706285D02*
X70722619Y-106849142D01*
X70722619Y-106849142D02*
X70722619Y-106944380D01*
X70722619Y-106944380D02*
X70675000Y-107087237D01*
X70675000Y-107087237D02*
X70579761Y-107182475D01*
X70579761Y-107182475D02*
X70484523Y-107230094D01*
X70484523Y-107230094D02*
X70294047Y-107277713D01*
X70294047Y-107277713D02*
X70151190Y-107277713D01*
X70151190Y-107277713D02*
X69960714Y-107230094D01*
X69960714Y-107230094D02*
X69865476Y-107182475D01*
X69865476Y-107182475D02*
X69770238Y-107087237D01*
X69770238Y-107087237D02*
X69722619Y-106944380D01*
X69722619Y-106944380D02*
X69722619Y-106849142D01*
X69722619Y-106849142D02*
X69770238Y-106706285D01*
X69770238Y-106706285D02*
X69817857Y-106658666D01*
X70722619Y-105706285D02*
X70722619Y-106277713D01*
X70722619Y-105991999D02*
X69722619Y-105991999D01*
X69722619Y-105991999D02*
X69865476Y-106087237D01*
X69865476Y-106087237D02*
X69960714Y-106182475D01*
X69960714Y-106182475D02*
X70008333Y-106277713D01*
D12*
X82550000Y-127508000D02*
X79950000Y-127508000D01*
X82550000Y-130108000D02*
X100390000Y-130108000D01*
X79950000Y-124908000D02*
X100390000Y-124908000D01*
X82550000Y-130108000D02*
X82550000Y-127508000D01*
X100390000Y-130108000D02*
X100390000Y-124908000D01*
X79950000Y-127508000D02*
X79950000Y-124908000D01*
X81280000Y-130108000D02*
X79950000Y-130108000D01*
X79950000Y-130108000D02*
X79950000Y-128778000D01*
X81202000Y-89629000D02*
X81202000Y-89864000D01*
X85062000Y-89629000D02*
X88922000Y-89629000D01*
X88922000Y-89629000D02*
X88922000Y-89864000D01*
X81202000Y-102649000D02*
X81202000Y-102414000D01*
X81202000Y-89864000D02*
X79512000Y-89864000D01*
X85062000Y-102649000D02*
X88922000Y-102649000D01*
X85062000Y-89629000D02*
X81202000Y-89629000D01*
X85062000Y-102649000D02*
X81202000Y-102649000D01*
X88922000Y-102649000D02*
X88922000Y-102414000D01*
X116723000Y-104583000D02*
X116723000Y-102633000D01*
X125593000Y-104583000D02*
X125593000Y-106533000D01*
X116723000Y-104583000D02*
X116723000Y-106533000D01*
X125593000Y-104583000D02*
X125593000Y-101133000D01*
X64887000Y-104394000D02*
X64887000Y-106344000D01*
X56017000Y-104394000D02*
X56017000Y-102444000D01*
X64887000Y-104394000D02*
X64887000Y-102444000D01*
X56017000Y-104394000D02*
X56017000Y-107844000D01*
X94461000Y-99745436D02*
X94461000Y-100199564D01*
X92991000Y-99745436D02*
X92991000Y-100199564D01*
X94461000Y-93856436D02*
X94461000Y-94310564D01*
X92991000Y-93856436D02*
X92991000Y-94310564D01*
X94461000Y-88061436D02*
X94461000Y-88515564D01*
X92991000Y-88061436D02*
X92991000Y-88515564D01*
X94461000Y-116866936D02*
X94461000Y-117321064D01*
X92991000Y-116866936D02*
X92991000Y-117321064D01*
X94461000Y-111024936D02*
X94461000Y-111479064D01*
X92991000Y-111024936D02*
X92991000Y-111479064D01*
X94461000Y-105182936D02*
X94461000Y-105637064D01*
X92991000Y-105182936D02*
X92991000Y-105637064D01*
X62711000Y-116104936D02*
X62711000Y-116559064D01*
X61241000Y-116104936D02*
X61241000Y-116559064D01*
X64543000Y-116559064D02*
X64543000Y-116104936D01*
X66013000Y-116559064D02*
X66013000Y-116104936D01*
X126973000Y-96396436D02*
X126973000Y-96850564D01*
X125503000Y-96396436D02*
X125503000Y-96850564D01*
X120936600Y-111584436D02*
X120936600Y-112038564D01*
X119466600Y-111584436D02*
X119466600Y-112038564D01*
X51589000Y-96747064D02*
X51589000Y-96292936D01*
X53059000Y-96747064D02*
X53059000Y-96292936D01*
X63781000Y-96850564D02*
X63781000Y-96396436D01*
X65251000Y-96850564D02*
X65251000Y-96396436D01*
X69315000Y-101626936D02*
X69315000Y-102081064D01*
X67845000Y-101626936D02*
X67845000Y-102081064D01*
X67845000Y-111987064D02*
X67845000Y-111532936D01*
X69315000Y-111987064D02*
X69315000Y-111532936D01*
X130621564Y-117269000D02*
X130167436Y-117269000D01*
X130621564Y-115799000D02*
X130167436Y-115799000D01*
X131995064Y-91869000D02*
X131540936Y-91869000D01*
X131995064Y-90399000D02*
X131540936Y-90399000D01*
X126973000Y-111584436D02*
X126973000Y-112038564D01*
X125503000Y-111584436D02*
X125503000Y-112038564D01*
X117829000Y-96396436D02*
X117829000Y-96850564D01*
X116359000Y-96396436D02*
X116359000Y-96850564D01*
X123925000Y-112038564D02*
X123925000Y-111584436D01*
X122455000Y-112038564D02*
X122455000Y-111584436D01*
X120877000Y-96396436D02*
X120877000Y-96850564D01*
X119407000Y-96396436D02*
X119407000Y-96850564D01*
X106341000Y-97002936D02*
X106341000Y-97457064D01*
X104871000Y-97002936D02*
X104871000Y-97457064D01*
X106595000Y-112750936D02*
X106595000Y-113205064D01*
X105125000Y-112750936D02*
X105125000Y-113205064D01*
X122455000Y-96897564D02*
X122455000Y-96443436D01*
X123925000Y-96897564D02*
X123925000Y-96443436D01*
X116731400Y-112038564D02*
X116731400Y-111584436D01*
X118201400Y-112038564D02*
X118201400Y-111584436D01*
X123840300Y-91298936D02*
X123840300Y-91753064D01*
X122370300Y-91298936D02*
X122370300Y-91753064D01*
X120857800Y-115850936D02*
X120857800Y-116305064D01*
X119387800Y-115850936D02*
X119387800Y-116305064D01*
X116105000Y-91753064D02*
X116105000Y-91298936D01*
X117575000Y-91753064D02*
X117575000Y-91298936D01*
X126973000Y-116305064D02*
X126973000Y-115850936D01*
X125503000Y-116305064D02*
X125503000Y-115850936D01*
X59155064Y-89381000D02*
X58700936Y-89381000D01*
X59155064Y-87911000D02*
X58700936Y-87911000D01*
X56107000Y-96396436D02*
X56107000Y-96850564D01*
X54637000Y-96396436D02*
X54637000Y-96850564D01*
X59155000Y-96396436D02*
X59155000Y-96850564D01*
X57685000Y-96396436D02*
X57685000Y-96850564D01*
X60733000Y-96850564D02*
X60733000Y-96396436D01*
X62203000Y-96850564D02*
X62203000Y-96396436D01*
X85909000Y-86107564D02*
X85909000Y-85653436D01*
X87379000Y-86107564D02*
X87379000Y-85653436D01*
X82607000Y-86211064D02*
X82607000Y-85756936D01*
X84077000Y-86211064D02*
X84077000Y-85756936D01*
X51589000Y-100811064D02*
X51589000Y-100356936D01*
X53059000Y-100811064D02*
X53059000Y-100356936D01*
X62711000Y-111532936D02*
X62711000Y-111987064D01*
X61241000Y-111532936D02*
X61241000Y-111987064D01*
X69315000Y-116208436D02*
X69315000Y-116662564D01*
X67845000Y-116208436D02*
X67845000Y-116662564D01*
X57939000Y-116136748D02*
X57939000Y-116659252D01*
X59409000Y-116136748D02*
X59409000Y-116659252D01*
X101770000Y-114731200D02*
X101770000Y-115931200D01*
X97250000Y-118186763D02*
X97250000Y-118051200D01*
X97250000Y-118186763D02*
X98314437Y-119251200D01*
X101770000Y-119251200D02*
X101770000Y-118051200D01*
X98314437Y-119251200D02*
X101770000Y-119251200D01*
X98314437Y-114731200D02*
X101770000Y-114731200D01*
X97250000Y-115795637D02*
X97250000Y-115931200D01*
X97250000Y-115795637D02*
X98314437Y-114731200D01*
X101770000Y-108990800D02*
X101770000Y-110190800D01*
X97250000Y-112446363D02*
X97250000Y-112310800D01*
X97250000Y-112446363D02*
X98314437Y-113510800D01*
X101770000Y-113510800D02*
X101770000Y-112310800D01*
X98314437Y-113510800D02*
X101770000Y-113510800D01*
X98314437Y-108990800D02*
X101770000Y-108990800D01*
X97250000Y-110055237D02*
X97250000Y-110190800D01*
X97250000Y-110055237D02*
X98314437Y-108990800D01*
X72207000Y-119556000D02*
X72207000Y-118356000D01*
X76727000Y-116100437D02*
X76727000Y-116236000D01*
X76727000Y-116100437D02*
X75662563Y-115036000D01*
X72207000Y-115036000D02*
X72207000Y-116236000D01*
X75662563Y-115036000D02*
X72207000Y-115036000D01*
X75662563Y-119556000D02*
X72207000Y-119556000D01*
X76727000Y-118491563D02*
X76727000Y-118356000D01*
X76727000Y-118491563D02*
X75662563Y-119556000D01*
X72207000Y-113815600D02*
X72207000Y-112615600D01*
X76727000Y-110360037D02*
X76727000Y-110495600D01*
X76727000Y-110360037D02*
X75662563Y-109295600D01*
X72207000Y-109295600D02*
X72207000Y-110495600D01*
X75662563Y-109295600D02*
X72207000Y-109295600D01*
X75662563Y-113815600D02*
X72207000Y-113815600D01*
X76727000Y-112751163D02*
X76727000Y-112615600D01*
X76727000Y-112751163D02*
X75662563Y-113815600D01*
X66013000Y-112021252D02*
X66013000Y-111498748D01*
X64543000Y-112021252D02*
X64543000Y-111498748D01*
X101770000Y-103250400D02*
X101770000Y-104450400D01*
X97250000Y-106705963D02*
X97250000Y-106570400D01*
X97250000Y-106705963D02*
X98314437Y-107770400D01*
X101770000Y-107770400D02*
X101770000Y-106570400D01*
X98314437Y-107770400D02*
X101770000Y-107770400D01*
X98314437Y-103250400D02*
X101770000Y-103250400D01*
X97250000Y-104314837D02*
X97250000Y-104450400D01*
X97250000Y-104314837D02*
X98314437Y-103250400D01*
X101770000Y-97510000D02*
X101770000Y-98710000D01*
X97250000Y-100965563D02*
X97250000Y-100830000D01*
X97250000Y-100965563D02*
X98314437Y-102030000D01*
X101770000Y-102030000D02*
X101770000Y-100830000D01*
X98314437Y-102030000D02*
X101770000Y-102030000D01*
X98314437Y-97510000D02*
X101770000Y-97510000D01*
X97250000Y-98574437D02*
X97250000Y-98710000D01*
X97250000Y-98574437D02*
X98314437Y-97510000D01*
X72207000Y-108075200D02*
X72207000Y-106875200D01*
X76727000Y-104619637D02*
X76727000Y-104755200D01*
X76727000Y-104619637D02*
X75662563Y-103555200D01*
X72207000Y-103555200D02*
X72207000Y-104755200D01*
X75662563Y-103555200D02*
X72207000Y-103555200D01*
X75662563Y-108075200D02*
X72207000Y-108075200D01*
X76727000Y-107010763D02*
X76727000Y-106875200D01*
X76727000Y-107010763D02*
X75662563Y-108075200D01*
X72207000Y-102334800D02*
X72207000Y-101134800D01*
X76727000Y-98879237D02*
X76727000Y-99014800D01*
X76727000Y-98879237D02*
X75662563Y-97814800D01*
X72207000Y-97814800D02*
X72207000Y-99014800D01*
X75662563Y-97814800D02*
X72207000Y-97814800D01*
X75662563Y-102334800D02*
X72207000Y-102334800D01*
X76727000Y-101270363D02*
X76727000Y-101134800D01*
X76727000Y-101270363D02*
X75662563Y-102334800D01*
X72207000Y-96594400D02*
X72207000Y-95394400D01*
X76727000Y-93138837D02*
X76727000Y-93274400D01*
X76727000Y-93138837D02*
X75662563Y-92074400D01*
X72207000Y-92074400D02*
X72207000Y-93274400D01*
X75662563Y-92074400D02*
X72207000Y-92074400D01*
X75662563Y-96594400D02*
X72207000Y-96594400D01*
X76727000Y-95529963D02*
X76727000Y-95394400D01*
X76727000Y-95529963D02*
X75662563Y-96594400D01*
X72207000Y-90854000D02*
X72207000Y-89654000D01*
X76727000Y-87398437D02*
X76727000Y-87534000D01*
X76727000Y-87398437D02*
X75662563Y-86334000D01*
X72207000Y-86334000D02*
X72207000Y-87534000D01*
X75662563Y-86334000D02*
X72207000Y-86334000D01*
X75662563Y-90854000D02*
X72207000Y-90854000D01*
X76727000Y-89789563D02*
X76727000Y-89654000D01*
X76727000Y-89789563D02*
X75662563Y-90854000D01*
X80544000Y-119608000D02*
X80544000Y-118408000D01*
X85064000Y-116152437D02*
X85064000Y-116288000D01*
X85064000Y-116152437D02*
X83999563Y-115088000D01*
X80544000Y-115088000D02*
X80544000Y-116288000D01*
X83999563Y-115088000D02*
X80544000Y-115088000D01*
X83999563Y-119608000D02*
X80544000Y-119608000D01*
X85064000Y-118543563D02*
X85064000Y-118408000D01*
X85064000Y-118543563D02*
X83999563Y-119608000D01*
X84556000Y-109246000D02*
X84556000Y-110446000D01*
X80036000Y-112701563D02*
X80036000Y-112566000D01*
X80036000Y-112701563D02*
X81100437Y-113766000D01*
X84556000Y-113766000D02*
X84556000Y-112566000D01*
X81100437Y-113766000D02*
X84556000Y-113766000D01*
X81100437Y-109246000D02*
X84556000Y-109246000D01*
X80036000Y-110310437D02*
X80036000Y-110446000D01*
X80036000Y-110310437D02*
X81100437Y-109246000D01*
X82999252Y-105945000D02*
X82476748Y-105945000D01*
X82999252Y-107415000D02*
X82476748Y-107415000D01*
X133832000Y-113968000D02*
X132632000Y-113968000D01*
X130376437Y-109448000D02*
X130512000Y-109448000D01*
X130376437Y-109448000D02*
X129312000Y-110512437D01*
X129312000Y-113968000D02*
X130512000Y-113968000D01*
X129312000Y-110512437D02*
X129312000Y-113968000D01*
X133832000Y-110512437D02*
X133832000Y-113968000D01*
X132767563Y-109448000D02*
X132632000Y-109448000D01*
X132767563Y-109448000D02*
X133832000Y-110512437D01*
X129312000Y-94514000D02*
X130512000Y-94514000D01*
X132767563Y-99034000D02*
X132632000Y-99034000D01*
X132767563Y-99034000D02*
X133832000Y-97969563D01*
X133832000Y-94514000D02*
X132632000Y-94514000D01*
X133832000Y-97969563D02*
X133832000Y-94514000D01*
X129312000Y-97969563D02*
X129312000Y-94514000D01*
X130376437Y-99034000D02*
X130512000Y-99034000D01*
X130376437Y-99034000D02*
X129312000Y-97969563D01*
X109442000Y-98474000D02*
X109442000Y-97274000D01*
X113962000Y-95018437D02*
X113962000Y-95154000D01*
X113962000Y-95018437D02*
X112897563Y-93954000D01*
X109442000Y-93954000D02*
X109442000Y-95154000D01*
X112897563Y-93954000D02*
X109442000Y-93954000D01*
X112897563Y-98474000D02*
X109442000Y-98474000D01*
X113962000Y-97409563D02*
X113962000Y-97274000D01*
X113962000Y-97409563D02*
X112897563Y-98474000D01*
X109545000Y-114222000D02*
X109545000Y-113022000D01*
X114065000Y-110766437D02*
X114065000Y-110902000D01*
X114065000Y-110766437D02*
X113000563Y-109702000D01*
X109545000Y-109702000D02*
X109545000Y-110902000D01*
X113000563Y-109702000D02*
X109545000Y-109702000D01*
X113000563Y-114222000D02*
X109545000Y-114222000D01*
X114065000Y-113157563D02*
X114065000Y-113022000D01*
X114065000Y-113157563D02*
X113000563Y-114222000D01*
X126973000Y-91767252D02*
X126973000Y-91244748D01*
X125503000Y-91767252D02*
X125503000Y-91244748D01*
X116740200Y-115816748D02*
X116740200Y-116339252D01*
X118210200Y-115816748D02*
X118210200Y-116339252D01*
X129312000Y-102336000D02*
X130512000Y-102336000D01*
X132767563Y-106856000D02*
X132632000Y-106856000D01*
X132767563Y-106856000D02*
X133832000Y-105791563D01*
X133832000Y-102336000D02*
X132632000Y-102336000D01*
X133832000Y-105791563D02*
X133832000Y-102336000D01*
X129312000Y-105791563D02*
X129312000Y-102336000D01*
X130376437Y-106856000D02*
X130512000Y-106856000D01*
X130376437Y-106856000D02*
X129312000Y-105791563D01*
X107214000Y-102590000D02*
X108414000Y-102590000D01*
X110669563Y-107110000D02*
X110534000Y-107110000D01*
X110669563Y-107110000D02*
X111734000Y-106045563D01*
X111734000Y-102590000D02*
X110534000Y-102590000D01*
X111734000Y-106045563D02*
X111734000Y-102590000D01*
X107214000Y-106045563D02*
X107214000Y-102590000D01*
X108278437Y-107110000D02*
X108414000Y-107110000D01*
X108278437Y-107110000D02*
X107214000Y-106045563D01*
X120707700Y-91767252D02*
X120707700Y-91244748D01*
X119237700Y-91767252D02*
X119237700Y-91244748D01*
X101770000Y-91769600D02*
X101770000Y-92969600D01*
X97250000Y-95225163D02*
X97250000Y-95089600D01*
X97250000Y-95225163D02*
X98314437Y-96289600D01*
X101770000Y-96289600D02*
X101770000Y-95089600D01*
X98314437Y-96289600D02*
X101770000Y-96289600D01*
X98314437Y-91769600D02*
X101770000Y-91769600D01*
X97250000Y-92834037D02*
X97250000Y-92969600D01*
X97250000Y-92834037D02*
X98314437Y-91769600D01*
X51334000Y-87910000D02*
X52534000Y-87910000D01*
X54789563Y-92430000D02*
X54654000Y-92430000D01*
X54789563Y-92430000D02*
X55854000Y-91365563D01*
X55854000Y-87910000D02*
X54654000Y-87910000D01*
X55854000Y-91365563D02*
X55854000Y-87910000D01*
X51334000Y-91365563D02*
X51334000Y-87910000D01*
X52398437Y-92430000D02*
X52534000Y-92430000D01*
X52398437Y-92430000D02*
X51334000Y-91365563D01*
X101770000Y-86029200D02*
X101770000Y-87229200D01*
X97250000Y-89484763D02*
X97250000Y-89349200D01*
X97250000Y-89484763D02*
X98314437Y-90549200D01*
X101770000Y-90549200D02*
X101770000Y-89349200D01*
X98314437Y-90549200D02*
X101770000Y-90549200D01*
X98314437Y-86029200D02*
X101770000Y-86029200D01*
X97250000Y-87093637D02*
X97250000Y-87229200D01*
X97250000Y-87093637D02*
X98314437Y-86029200D01*
X122455000Y-115816748D02*
X122455000Y-116339252D01*
X123925000Y-115816748D02*
X123925000Y-116339252D01*
X68300000Y-86386000D02*
X68300000Y-87586000D01*
X63780000Y-89841563D02*
X63780000Y-89706000D01*
X63780000Y-89841563D02*
X64844437Y-90906000D01*
X68300000Y-90906000D02*
X68300000Y-89706000D01*
X64844437Y-90906000D02*
X68300000Y-90906000D01*
X64844437Y-86386000D02*
X68300000Y-86386000D01*
X63780000Y-87450437D02*
X63780000Y-87586000D01*
X63780000Y-87450437D02*
X64844437Y-86386000D01*
X107621563Y-88672000D02*
X108686000Y-89736437D01*
X107621563Y-88672000D02*
X107486000Y-88672000D01*
X108686000Y-89736437D02*
X108686000Y-93192000D01*
X104166000Y-89736437D02*
X104166000Y-93192000D01*
X104166000Y-93192000D02*
X105366000Y-93192000D01*
X105230437Y-88672000D02*
X104166000Y-89736437D01*
X105230437Y-88672000D02*
X105366000Y-88672000D01*
X108686000Y-93192000D02*
X107486000Y-93192000D01*
X49556000Y-107924000D02*
X49556000Y-106724000D01*
X54076000Y-104468437D02*
X54076000Y-104604000D01*
X54076000Y-104468437D02*
X53011563Y-103404000D01*
X49556000Y-103404000D02*
X49556000Y-104604000D01*
X53011563Y-103404000D02*
X49556000Y-103404000D01*
X53011563Y-107924000D02*
X49556000Y-107924000D01*
X54076000Y-106859563D02*
X54076000Y-106724000D01*
X54076000Y-106859563D02*
X53011563Y-107924000D01*
X49556000Y-116306000D02*
X49556000Y-115106000D01*
X54076000Y-112850437D02*
X54076000Y-112986000D01*
X54076000Y-112850437D02*
X53011563Y-111786000D01*
X49556000Y-111786000D02*
X49556000Y-112986000D01*
X53011563Y-111786000D02*
X49556000Y-111786000D01*
X53011563Y-116306000D02*
X49556000Y-116306000D01*
X54076000Y-115241563D02*
X54076000Y-115106000D01*
X54076000Y-115241563D02*
X53011563Y-116306000D01*
X57939000Y-111498748D02*
X57939000Y-112021252D01*
X59409000Y-111498748D02*
X59409000Y-112021252D01*
X69315000Y-106230748D02*
X69315000Y-106753252D01*
X67845000Y-106230748D02*
X67845000Y-106753252D01*
%LPC*%
D13*
X81280000Y-128778000D03*
D14*
X81280000Y-126238000D03*
X83820000Y-128778000D03*
X83820000Y-126238000D03*
X86360000Y-128778000D03*
X86360000Y-126238000D03*
X88900000Y-128778000D03*
X88900000Y-126238000D03*
X91440000Y-128778000D03*
X91440000Y-126238000D03*
X93980000Y-128778000D03*
X93980000Y-126238000D03*
X96520000Y-128778000D03*
X96520000Y-126238000D03*
X99060000Y-128778000D03*
X99060000Y-126238000D03*
D15*
X80462000Y-90424000D03*
X80462000Y-91694000D03*
X80462000Y-92964000D03*
X80462000Y-94234000D03*
X80462000Y-95504000D03*
X80462000Y-96774000D03*
X80462000Y-98044000D03*
X80462000Y-99314000D03*
X80462000Y-100584000D03*
X80462000Y-101854000D03*
X89662000Y-101854000D03*
X89662000Y-100584000D03*
X89662000Y-99314000D03*
X89662000Y-98044000D03*
X89662000Y-96774000D03*
X89662000Y-95504000D03*
X89662000Y-94234000D03*
X89662000Y-92964000D03*
X89662000Y-91694000D03*
X89662000Y-90424000D03*
D16*
X124968000Y-102108000D03*
X123698000Y-102108000D03*
X122428000Y-102108000D03*
X121158000Y-102108000D03*
X119888000Y-102108000D03*
X118618000Y-102108000D03*
X117348000Y-102108000D03*
X117348000Y-107058000D03*
X118618000Y-107058000D03*
X119888000Y-107058000D03*
X121158000Y-107058000D03*
X122428000Y-107058000D03*
X123698000Y-107058000D03*
X124968000Y-107058000D03*
D17*
X56642000Y-106869000D03*
X57912000Y-106869000D03*
X59182000Y-106869000D03*
X60452000Y-106869000D03*
X61722000Y-106869000D03*
X62992000Y-106869000D03*
X64262000Y-106869000D03*
X64262000Y-101919000D03*
X62992000Y-101919000D03*
X61722000Y-101919000D03*
X60452000Y-101919000D03*
X59182000Y-101919000D03*
X57912000Y-101919000D03*
X56642000Y-101919000D03*
D18*
X93726000Y-99060000D03*
X93726000Y-100885000D03*
X93726000Y-93171000D03*
X93726000Y-94996000D03*
X93726000Y-87376000D03*
X93726000Y-89201000D03*
X93726000Y-116181500D03*
X93726000Y-118006500D03*
X93726000Y-110339500D03*
X93726000Y-112164500D03*
X93726000Y-104497500D03*
X93726000Y-106322500D03*
X61976000Y-115419500D03*
X61976000Y-117244500D03*
D19*
X65278000Y-117244500D03*
X65278000Y-115419500D03*
D18*
X126238000Y-95711000D03*
X126238000Y-97536000D03*
X120201600Y-110899000D03*
X120201600Y-112724000D03*
D19*
X52324000Y-97432500D03*
X52324000Y-95607500D03*
X64516000Y-97536000D03*
X64516000Y-95711000D03*
D18*
X68580000Y-100941500D03*
X68580000Y-102766500D03*
D19*
X68580000Y-112672500D03*
X68580000Y-110847500D03*
D20*
X131307000Y-116534000D03*
X129482000Y-116534000D03*
X132680500Y-91134000D03*
X130855500Y-91134000D03*
D18*
X126238000Y-110899000D03*
X126238000Y-112724000D03*
X117094000Y-95711000D03*
X117094000Y-97536000D03*
D19*
X123190000Y-110899000D03*
X123190000Y-112724000D03*
D18*
X120142000Y-95711000D03*
X120142000Y-97536000D03*
X105606000Y-96317500D03*
X105606000Y-98142500D03*
X105860000Y-112065500D03*
X105860000Y-113890500D03*
D19*
X123190000Y-97583000D03*
X123190000Y-95758000D03*
X117466400Y-112724000D03*
X117466400Y-110899000D03*
D18*
X123105300Y-90613500D03*
X123105300Y-92438500D03*
X120122800Y-115165500D03*
X120122800Y-116990500D03*
D19*
X116840000Y-92438500D03*
X116840000Y-90613500D03*
X126238000Y-115165500D03*
X126238000Y-116990500D03*
D20*
X59840500Y-88646000D03*
X58015500Y-88646000D03*
D18*
X55372000Y-95711000D03*
X55372000Y-97536000D03*
X58420000Y-95711000D03*
X58420000Y-97536000D03*
D19*
X61468000Y-97536000D03*
X61468000Y-95711000D03*
X86644000Y-86793000D03*
X86644000Y-84968000D03*
X83342000Y-86896500D03*
X83342000Y-85071500D03*
X52324000Y-101496500D03*
X52324000Y-99671500D03*
D18*
X61976000Y-110847500D03*
X61976000Y-112672500D03*
X68580000Y-115523000D03*
X68580000Y-117348000D03*
D21*
X58674000Y-115448000D03*
X58674000Y-117348000D03*
D22*
X97835000Y-116991200D03*
X101185000Y-116991200D03*
X97835000Y-111250800D03*
X101185000Y-111250800D03*
D23*
X76142000Y-117296000D03*
X72792000Y-117296000D03*
X76142000Y-111555600D03*
X72792000Y-111555600D03*
D24*
X65278000Y-112710000D03*
X65278000Y-110810000D03*
D22*
X97835000Y-105510400D03*
X101185000Y-105510400D03*
X97835000Y-99770000D03*
X101185000Y-99770000D03*
D23*
X76142000Y-105815200D03*
X72792000Y-105815200D03*
X76142000Y-100074800D03*
X72792000Y-100074800D03*
X76142000Y-94334400D03*
X72792000Y-94334400D03*
X76142000Y-88594000D03*
X72792000Y-88594000D03*
X84479000Y-117348000D03*
X81129000Y-117348000D03*
D22*
X80621000Y-111506000D03*
X83971000Y-111506000D03*
D25*
X83688000Y-106680000D03*
X81788000Y-106680000D03*
D26*
X131572000Y-110033000D03*
X131572000Y-113383000D03*
D27*
X131572000Y-98449000D03*
X131572000Y-95099000D03*
D23*
X113377000Y-96214000D03*
X110027000Y-96214000D03*
X113480000Y-111962000D03*
X110130000Y-111962000D03*
D24*
X126238000Y-92456000D03*
X126238000Y-90556000D03*
D21*
X117475200Y-115128000D03*
X117475200Y-117028000D03*
D27*
X131572000Y-106271000D03*
X131572000Y-102921000D03*
X109474000Y-106525000D03*
X109474000Y-103175000D03*
D24*
X119972700Y-92456000D03*
X119972700Y-90556000D03*
D22*
X97835000Y-94029600D03*
X101185000Y-94029600D03*
D27*
X53594000Y-91845000D03*
X53594000Y-88495000D03*
D22*
X97835000Y-88289200D03*
X101185000Y-88289200D03*
D21*
X123190000Y-115128000D03*
X123190000Y-117028000D03*
D22*
X64365000Y-88646000D03*
X67715000Y-88646000D03*
D26*
X106426000Y-92607000D03*
X106426000Y-89257000D03*
D23*
X53491000Y-105664000D03*
X50141000Y-105664000D03*
X53491000Y-114046000D03*
X50141000Y-114046000D03*
D21*
X58674000Y-110810000D03*
X58674000Y-112710000D03*
X68580000Y-107442000D03*
X68580000Y-105542000D03*
M02*
