M48
; DRILL file {KiCad 7.0.1-0} date 2023 December 28, Thursday 14:24:23
; FORMAT={-:-/ absolute / metric / decimal}
; #@! TF.CreationDate,2023-12-28T14:24:23+01:00
; #@! TF.GenerationSoftware,Kicad,Pcbnew,7.0.1-0
; #@! TF.FileFunction,Plated,1,2,PTH
FMAT,2
METRIC
; #@! TA.AperFunction,Plated,PTH,ViaDrill
T1C0.400
; #@! TA.AperFunction,Plated,PTH,ViaDrill
T2C0.500
; #@! TA.AperFunction,Plated,PTH,ComponentDrill
T3C1.000
%
G90
G05
T1
X62.386Y-88.646
X63.324Y-100.053
X65.169Y-107.045
X67.249Y-112.492
X72.792Y-115.879
X73.404Y-110.009
X74.0Y-107.442
X74.062Y-104.412
X78.073Y-100.85
X81.838Y-102.512
X82.022Y-87.223
X82.907Y-102.427
X83.911Y-119.776
X85.209Y-115.926
X87.886Y-101.976
X91.531Y-92.918
X93.504Y-108.843
X94.299Y-102.371
X94.497Y-96.977
X94.882Y-112.941
X95.609Y-115.762
X95.682Y-99.443
X99.257Y-107.345
X103.838Y-115.119
X104.671Y-110.964
X118.177Y-92.632
X118.345Y-98.338
X118.881Y-111.811
X122.68Y-113.955
X124.325Y-99.008
X130.032Y-104.971
X131.592Y-100.379
X131.601Y-92.827
T2
X59.35Y-104.449
X60.515Y-108.77
X60.632Y-100.031
X66.811Y-116.307
X100.558Y-120.148
X103.928Y-119.585
X115.298Y-105.408
X122.071Y-104.004
T3
X81.28Y-126.238
X81.28Y-128.778
X83.82Y-126.238
X83.82Y-128.778
X86.36Y-126.238
X86.36Y-128.778
X88.9Y-126.238
X88.9Y-128.778
X91.44Y-126.238
X91.44Y-128.778
X93.98Y-126.238
X93.98Y-128.778
X96.52Y-126.238
X96.52Y-128.778
X99.06Y-126.238
X99.06Y-128.778
T0
M30
